<svg width="370" height="470" xmlns="http://www.w3.org/2000/svg" xmlns:svg="http://www.w3.org/2000/svg">
 <g>
  <title>Layer 1</title>
  <path id="svg_4" d="m0.98765,46.96863c0,0 -0.3,418.2 -0.3,418.2c0,0 16.7,-5.1 16.7,-5.1c0,0 22.5,-8.9 22.5,-8.9c0,0 33.3,-10.8 33.3,-10.8c0,0 16.9,-5 17.3,-5.1c0.4,-0.1 26.1,-5.2 26.1,-5.2c0,0 33.7,-3.6 33.7,-3.6c0,0 18.6,-0.3 18.6,-0.3c0,0 24.2,0.3 24.2,0.3c0,0 24.5,1.7 24.5,1.7c0,0 24.5,2.4 23.9,3.1c-0.6,0.7 18.9,2.7 19,2.4c0.1,-0.3 15.5,2.7 15.5,2.7c0,0 14,0.4 14,0.4c0,0 16.5,-3.4 16.5,-3.4c0,0 14.2,-6.9 14.2,-6.9c0,0 8,-5.5 8,-5.5c0,0 7.4,-7.9 7.4,-7.9c0,0 8.4,-10.4 8.4,-10.5c0,-0.1 5.3,-11.3 5.3,-11.3c0,0 3.3,-11.6 3.4,-11.7c0.1,-0.1 1.1,-14.2 1.1,-14.3c0,-0.1 -1.3,-13.7 -1.3,-13.7c0,0 -4.1,-13.1 -4.1,-13.1c0,0 -6.5,-11.7 -6.5,-11.7c0,0 -10.8,-12.7 -10.8,-12.7c0,0 -15.4,-14.5 -15.4,-14.5c0,0 -11,-10.3 -11.3,-10.8c-0.3,-0.5 -8.9,-8.4 -8.9,-8.4c0,0 -10.5,-12.3 -10.5,-12.3c0,0 -6.4,-7.3 -6.4,-8.4c0,-1.1 -12.8,-20 -9.1,-15.2c3.7,4.8 -8.3,-15 -8.3,-15c0,0 -5.5,-16 -5.5,-16.2c0,-0.2 -7.4,-20.8 -7.4,-20.8c0,0 -6.5,-20.4 -6.5,-20.7c0,-0.3 -5.4,-19.7 -5.4,-19.7c0,0 -5.8,-22.4 -5.8,-22.4c0,0 -4.8,-17.5 -4.8,-17.5c0,0 -3.3,-10 -3.3,-10c0,0 -5.8,-12.8 -5.8,-12.8c0,0 -4.5,-8.6 -4.5,-8.7c0,-0.1 -8,-10.9 -8,-10.9c0,0 -13.2,-15.4 -13.2,-15.4c0,0 -14.7,-13.2 -14.7,-13.2c0,0 -13.4,-8.3 -13.4,-8.3c0,0 -20.6,-9.7 -20.6,-9.7c0,0 -21,-6 -21,-6c0,0 -14.4,-2.3 -14.4,-2.3c0,0 -12.9,-1 -12.9,-1c0,0 -15.1,0.6 -15.1,0.6c0,0 -16.1,2.4 -16.1,2.4c0,0 -22.2,7.5 -22.2,7.5c0,0 -15.6,7.7 -15.6,7.7c0,0 -12.7,7.5 -12.7,7.5c0,0 -11.8,7.4 -11.8,7.4z" stroke-linecap="null" stroke-linejoin="null" stroke-dasharray="null" stroke-width="null" stroke="rgba(152, 219, 239, 0.6)" fill="rgba(152, 219, 239, 0.6)"/>
 </g>
</svg>