<svg xmlns="http://www.w3.org/2000/svg" width="118.225" height="206.125" viewBox="0 0 118.225 206.125"><defs><style>.a{fill:#474749;}.b{fill:#fff;}</style></defs><g transform="translate(-2386.915 1021.001)"><path class="a" d="M2504-985.272a2.927,2.927,0,0,0-1.221-.558l-61.691-34.793a2.931,2.931,0,0,0-2.177-.284l-10.325,2.655a2.937,2.937,0,0,0-2.192,2.474,2.58,2.58,0,0,0-.021.327c0,.041,0,.085,0,.13v123.685l-16.751,4.269a2.934,2.934,0,0,0-1.508.4,2.96,2.96,0,0,0-1.465,2.549v11.062l-16.752,4.269a2.919,2.919,0,0,0-1.507.4,2.959,2.959,0,0,0-1.466,2.549v12.958a2.956,2.956,0,0,0,1.5,2.567l62.422,35.356a2.5,2.5,0,0,0,.355.166,2.274,2.274,0,0,0,.24.086,2.954,2.954,0,0,0,.858.13,2.966,2.966,0,0,0,.729-.091l49.9-12.716a2.95,2.95,0,0,0,2.219-2.859v-152.4A2.967,2.967,0,0,0,2504-985.272ZM2501.6-831l-48.732,12.418-.152-11.886,19.442-4.954a.59.59,0,0,0,.444-.579l-.162-12.745,29.16-7.448Zm-91.925-39.474L2470.44-836.2l-7.193,1.833-11.045,2.814-60.766-34.271Zm19.724-18.279,60.752,34.263-18.224,4.655-60.766-34.271Zm72.2,31.339-9.146,2.336V-979.826l9.146-2.352ZM2429.9-890v-124.307l61.241,34.687v124.307Zm61.747-90.914-60.77-34.273,8.677-2.231,60.77,34.273Zm-39.708,121.163,19.316,10.94.148,11.686L2410.18-871.8v-11.5Zm-61.487-5.274,41.744,23.542,19.335,10.951.15,11.686-61.228-34.679Z"/><path class="b" d="M2593.861-963.628l-61.241-34.687v124.307l61.241,34.686Zm-3.708,52.07v64.1a.59.59,0,0,1-.293.51.588.588,0,0,1-.3.08.59.59,0,0,1-.292-.077l-52.812-30.044a.59.59,0,0,1-.3-.513V-990.181a.59.59,0,0,1,.293-.51.59.59,0,0,1,.589,0l52.812,30.044a.59.59,0,0,1,.3.513Z" transform="translate(-102.716 -15.993)"/><path class="b" d="M2526.995-508.119l-.148-11.685-19.316-10.94L2465.768-554.3v11.5Z" transform="translate(-55.588 -329.006)"/><path class="b" d="M2535.932-1006.627l60.77,34.273,8.676-2.231-60.77-34.273Z" transform="translate(-105.05 -8.56)"/><path class="b" d="M2529.859-533.849l18.223-4.655-60.752-34.263-18.237,4.647Z" transform="translate(-57.932 -315.987)"/><path class="b" d="M2459.994-457.852,2440.659-468.8l-41.744-23.543v11.5l61.228,34.679Z" transform="translate(-8.459 -372.681)"/><path class="b" d="M2463.006-471.9l11.044-2.814,7.193-1.833-60.766-34.271-18.237,4.647Z" transform="translate(-10.804 -359.662)"/><path class="b" d="M2744.62-887.064v124.747l9.146-2.336V-889.416Z" transform="translate(-252.167 -92.762)"/><path class="b" d="M2548.62-919.8l51.632,29.091v-47.226l-51.632-29.373Z" transform="translate(-113.995 -37.852)"/><path class="b" d="M2600.252-698.685l-51.632-29.091v40.653l51.632,29.373Z" transform="translate(-113.995 -206.712)"/><path class="a" d="M2598.314-942.625,2545.5-972.669a.589.589,0,0,0-.588,0,.591.591,0,0,0-.293.51v112.682a.591.591,0,0,0,.3.513l52.813,30.044a.588.588,0,0,0,.292.077.59.59,0,0,0,.3-.08.59.59,0,0,0,.293-.51V-942.112A.59.59,0,0,0,2598.314-942.625Zm-.882,49.437v20.454L2545.8-901.825v-20.454Zm0-1.355L2545.8-923.634v-47.508l51.632,29.373ZM2545.8-900.47l51.632,29.091v40.934L2545.8-859.818Z" transform="translate(-111.175 -34.018)"/><path class="b" d="M2629.659-454.972l.162,12.746a.59.59,0,0,1-.444.579l-19.442,4.954.152,11.886,48.732-12.418v-25.2Z" transform="translate(-157.22 -393.777)"/><path class="b" d="M2600.252-752.149V-772.6L2548.62-801.7v20.454Z" transform="translate(-113.995 -154.602)"/></g></svg>