<svg xmlns="http://www.w3.org/2000/svg" width="142.032" height="223.161" viewBox="0 0 142.032 223.161"><defs><style>.a{fill:#474749;}.b{fill:#fff;}</style></defs><g transform="translate(0 0)"><path class="a" d="M3842.242-3704.11h0l-55.576-31.4v-50.752l32.539,18.382a3.2,3.2,0,0,0,3.142-.019,3.163,3.163,0,0,0,1.564-2.723v-26.454a3.158,3.158,0,0,0-1.6-2.745l-35.644-20.136v-5.709l32.539,18.382a3.2,3.2,0,0,0,3.142-.02,3.162,3.162,0,0,0,1.564-2.723v-26.453a3.157,3.157,0,0,0-1.6-2.745l-35.644-20.136v-34.365a3.166,3.166,0,0,0-.526-1.742,3.137,3.137,0,0,0-1.153-1.125l-10.937-6.178a3.124,3.124,0,0,0-2.355-.3l-13.434,3.55a3.139,3.139,0,0,0-2.321,2.643,2.918,2.918,0,0,0-.024.413c0,.036,0,.074,0,.113v19.622l-46.166-26.08a3.16,3.16,0,0,0-3.143.02,3.162,3.162,0,0,0-1.564,2.722v26.453a3.158,3.158,0,0,0,1.6,2.745l49.27,27.834v5.708l-46.166-26.081a3.16,3.16,0,0,0-3.143.02,3.163,3.163,0,0,0-1.564,2.723v26.453a3.156,3.156,0,0,0,1.6,2.744l49.27,27.835v67.536l-51.73,13.236a3.139,3.139,0,0,0-2.344,2.639,3.139,3.139,0,0,0,1.575,3.16l64.771,36.594a3.158,3.158,0,0,0,1.553.409,3.135,3.135,0,0,0,.781-.1l70.952-18.154a3.137,3.137,0,0,0,2.344-2.639A3.137,3.137,0,0,0,3842.242-3704.11Zm-69.828-195.24,9.364,5.289-11.687,3.089-9.364-5.29Zm10.47,40.751-12.366-6.986v-24.175l12.366-3.153Zm-13.627-31.258v23.56l-9.56-5.4v-23.573Zm50.872,53.747v25.005l-111.3-62.879v-25.005Zm-49.612-1.573,12.366,6.986v11.5l-12.366-6.986Zm-1.261-.712v11.5l-9.56-5.4v-11.5Zm50.872,41.689v25.005l-111.3-62.878v-25.005Zm-37.246,89.132-12.366,3.153v-93.858l12.366,6.986Zm-13.627-91.418v94.3l-9.56-5.414v-94.286Zm-10.82,89.253a.632.632,0,0,0,.32.549l10.82,6.129a.657.657,0,0,0,.072.029.427.427,0,0,0,.054.021.609.609,0,0,0,.184.031.621.621,0,0,0,.155-.02l13.627-3.474a.631.631,0,0,0,.475-.611v-25.5l54.872,31-69.189,17.7-63.188-35.7,51.8-13.253Z" transform="translate(-3701.813 3903.22)"/><path class="b" d="M3780.316-3313.757l69.189-17.7-54.873-31v25.5a.63.63,0,0,1-.474.611l-13.627,3.474a.622.622,0,0,1-.156.02.625.625,0,0,1-.184-.031c-.019-.006-.036-.014-.054-.021a.726.726,0,0,1-.073-.03l-10.82-6.129a.63.63,0,0,1-.32-.548v-23.1l-51.8,13.253Z" transform="translate(-3712.3 3533.093)"/><path class="b" d="M3898.074-3882.564l11.687-3.089-9.364-5.29-11.687,3.089Z" transform="translate(-3829.795 3894.813)"/><path class="b" d="M3895-3849.03v-23.559l-9.559-5.414v23.573Z" transform="translate(-3827.56 3885.953)"/><path class="b" d="M3895-3697.805v-11.5l-9.559-5.4v11.5Z" transform="translate(-3827.56 3774.131)"/><path class="b" d="M3885.445-3495.422l9.559,5.415v-94.3l-9.559-5.4Z" transform="translate(-3827.56 3688.534)"/><path class="b" d="M3919.77-3867.368v24.175l12.366,6.986v-34.313Z" transform="translate(-3851.064 3880.829)"/><path class="b" d="M3932.136-3676.829v-11.5l-12.366-6.986v11.5Z" transform="translate(-3851.064 3760.853)"/><path class="b" d="M3932.136-3563.331l-12.366-6.986v93.858l12.366-3.153Z" transform="translate(-3851.064 3675.256)"/><path class="b" d="M3724.061-3764.8v25l111.3,62.879v-25.005ZM3819.9-3692.4v-3.187l-6.785-3.858v-3.16l6.785,3.858v-3.187l8.131,9.391Zm-19.005-22.521a3.571,3.571,0,0,1,1.736,2.727c0,.959-.778,1.293-1.736.745a3.573,3.573,0,0,1-1.736-2.727C3799.158-3715.139,3799.936-3715.472,3800.894-3714.925Zm1.736,7.731c0,.959-.778,1.292-1.736.745a3.572,3.572,0,0,1-1.736-2.727c0-.959.777-1.292,1.736-.745A3.571,3.571,0,0,1,3802.63-3707.194Zm-1.736,2.277a3.573,3.573,0,0,1,1.736,2.728c0,.959-.778,1.292-1.736.745a3.572,3.572,0,0,1-1.736-2.728C3799.158-3705.13,3799.936-3705.464,3800.894-3704.917Zm-5.106-12.923a3.571,3.571,0,0,1,1.736,2.727c0,.958-.778,1.292-1.736.745a3.571,3.571,0,0,1-1.736-2.727C3794.052-3718.054,3794.829-3718.387,3795.788-3717.84Zm0,10.008a3.573,3.573,0,0,1,1.736,2.728c0,.959-.778,1.292-1.736.744a3.57,3.57,0,0,1-1.736-2.727C3794.052-3708.045,3794.829-3708.379,3795.788-3707.832ZM3769.695-3726c0,.958-.777,1.292-1.736.745a3.572,3.572,0,0,1-1.737-2.727c0-.959.778-1.293,1.737-.745A3.571,3.571,0,0,1,3769.695-3726Zm-24.562-12.285a3.571,3.571,0,0,1-1.736-2.727c0-.959.777-1.292,1.736-.745a3.569,3.569,0,0,1,1.736,2.727C3746.869-3738.066,3746.092-3737.733,3745.133-3738.28Zm1.736,4.259c0,.959-.777,1.293-1.736.745A3.571,3.571,0,0,1,3743.4-3736c0-.959.777-1.292,1.736-.745A3.571,3.571,0,0,1,3746.869-3734.021Zm-1.736-9.263a3.571,3.571,0,0,1-1.736-2.727c0-.959.777-1.293,1.736-.745a3.57,3.57,0,0,1,1.736,2.727C3746.869-3743.071,3746.092-3742.737,3745.133-3743.284Zm-3.268-3.6c0,.959-.777,1.293-1.736.745a3.571,3.571,0,0,1-1.736-2.727c0-.958.777-1.292,1.736-.745A3.572,3.572,0,0,1,3741.865-3746.886Zm-10.621,2.209a3.572,3.572,0,0,1,1.736,2.728c0,.959-.777,1.292-1.736.745a3.569,3.569,0,0,1-1.736-2.727C3729.508-3744.89,3730.284-3745.224,3731.244-3744.677Zm40.034,24.59c0-.959.777-1.293,1.736-.745a3.572,3.572,0,0,1,1.737,2.727c0,.959-.778,1.293-1.737.745A3.572,3.572,0,0,1,3771.278-3720.087Zm0-5c0-.959.777-1.292,1.736-.745a3.572,3.572,0,0,1,1.737,2.727c0,.959-.778,1.292-1.737.745A3.572,3.572,0,0,1,3771.278-3725.092Zm1.736-2.277a3.572,3.572,0,0,1-1.736-2.727c0-.959.777-1.293,1.736-.745a3.571,3.571,0,0,1,1.737,2.727C3774.75-3727.155,3773.972-3726.821,3773.013-3727.369Zm8.885,1.6a3.571,3.571,0,0,1,1.736,2.727c0,.959-.777,1.293-1.736.745a3.574,3.574,0,0,1-1.736-2.727C3780.162-3725.982,3780.94-3726.316,3781.9-3725.769Z" transform="translate(-3717.047 3808.431)"/><path class="b" d="M3724.061-3889.8v25.005l111.3,62.878v-25.005Zm7.334,12.266v-1.776l7.637,4.343v1.775l-2.87-1.632v10.742l-1.889-1.074v-10.742Zm16.612,12.568v-4.9l1.889,1.074v12.518l-1.889-1.074v-5.846l-5.4-3.071v5.846l-1.889-1.074V-3874l1.889,1.074v4.9Zm4.889,10.4v-12.518l1.889,1.074v12.518Zm11.148,5.431a3.311,3.311,0,0,1-2.878-.5,7.963,7.963,0,0,1-2.692-2.5,8.087,8.087,0,0,1-1.305-3.458l1.913.666a5.078,5.078,0,0,0,.454,1.782,4.2,4.2,0,0,0,1.7,1.779,1.631,1.631,0,0,0,1.467.243,1.138,1.138,0,0,0,.584-1.168,2.687,2.687,0,0,0-.1-.726,3.356,3.356,0,0,0-.316-.74,5.846,5.846,0,0,0-.556-.794q-.34-.416-.811-.887l-1.208-1.189q-2.57-2.548-2.57-4.639a1.6,1.6,0,0,1,1.078-1.747,3.443,3.443,0,0,1,2.684.569,8.17,8.17,0,0,1,3.38,4.03l-1.532.037a5.809,5.809,0,0,0-.819-1.438,3.737,3.737,0,0,0-1.046-.854,1.738,1.738,0,0,0-1.305-.3.728.728,0,0,0-.519.807,3.623,3.623,0,0,0,1.362,2.25l1.248,1.22a12.225,12.225,0,0,1,2.23,2.772,5.325,5.325,0,0,1,.705,2.578A2.1,2.1,0,0,1,3764.044-3849.132Zm34.749,8.148,2.173,1.235,2.862,6.63,2.87-3.37,2.173,1.235-4.1,4.778v5.408l-1.889-1.074v-5.408Zm14.322,15.893v-3.16l6.785,3.857v-3.187l8.131,9.391-8.131.144v-3.187Zm-13.235-2.758-2.067-1.176-1.314-3.787-5.359-3.048-1.395,2.247-2.035-1.157,6.195-9.783Zm-20-24.5,3.26,10.828,3.461-6.4,2.052,1.166-5.594,10.132-3.219-10.7-3.356,6.969-5.319-16.344,2.052,1.167,3.259,10.22Z" transform="translate(-3717.047 3894.028)"/><path class="b" d="M3941.3-3732.89l-1.946,3.15,3.8,2.162Z" transform="translate(-3864.473 3786.583)"/><path class="a" d="M3752.094-3841.289v-10.743l2.87,1.632v-1.775l-7.637-4.343v1.776l2.878,1.636v10.743Z" transform="translate(-3732.979 3871.24)"/><path class="a" d="M3776.9-3839.7v12.518l1.889,1.074v-5.846l5.4,3.07v5.846l1.889,1.074v-12.518l-1.889-1.074v4.9l-5.4-3.07v-4.9Z" transform="translate(-3753.233 3859.723)"/><path class="a" d="M3815.535-3817.733v12.518l1.889,1.074v-12.519Z" transform="translate(-3779.687 3844.681)"/><path class="a" d="M3834.181-3798.687l-1.249-1.221a3.623,3.623,0,0,1-1.362-2.25.727.727,0,0,1,.519-.808,1.742,1.742,0,0,1,1.306.3,3.726,3.726,0,0,1,1.046.854,5.793,5.793,0,0,1,.819,1.438l1.532-.037a8.172,8.172,0,0,0-3.381-4.03,3.441,3.441,0,0,0-2.684-.569,1.6,1.6,0,0,0-1.078,1.746q0,2.092,2.571,4.64l1.208,1.189q.47.47.811.887a5.854,5.854,0,0,1,.556.794,3.306,3.306,0,0,1,.316.739,2.7,2.7,0,0,1,.1.727,1.138,1.138,0,0,1-.584,1.167,1.632,1.632,0,0,1-1.468-.242,4.2,4.2,0,0,1-1.7-1.779,5.071,5.071,0,0,1-.454-1.783l-1.913-.666a8.1,8.1,0,0,0,1.3,3.458,7.975,7.975,0,0,0,2.692,2.5,3.307,3.307,0,0,0,2.878.5,2.1,2.1,0,0,0,1.151-2.2,5.329,5.329,0,0,0-.705-2.578A12.221,12.221,0,0,0,3834.181-3798.687Z" transform="translate(-3788.969 3836.035)"/><path class="a" d="M3875.534-3783.618l-2.052-1.167,5.319,16.345,3.357-6.969,3.219,10.7,5.594-10.132-2.051-1.167-3.462,6.4-3.259-10.829-3.405,7.039Z" transform="translate(-3819.368 3822.119)"/><path class="a" d="M3928.012-3735.319l1.394-2.247,5.36,3.047,1.313,3.787,2.067,1.176-5.975-16.7-6.194,9.783Zm4.127-6.726,1.857,5.312-3.8-2.162Z" transform="translate(-3855.315 3795.737)"/><path class="a" d="M3967.111-3719.029v-5.407l4.1-4.778-2.173-1.235-2.87,3.37-2.862-6.63-2.173-1.235,4.086,9.434v5.407Z" transform="translate(-3879.391 3787.989)"/><path class="a" d="M4021.486-3684.489l-8.132-9.391v3.188l-6.785-3.858v3.161l6.785,3.857v3.187Z" transform="translate(-3910.502 3760.328)"/><path class="a" d="M4013.354-3563.656l-6.785-3.858v3.16l6.785,3.858v3.187l8.132-.143-8.132-9.391Z" transform="translate(-3910.502 3673.337)"/><path class="a" d="M3743.075-3698.069c.959.548,1.737.214,1.737-.745a3.572,3.572,0,0,0-1.737-2.727c-.958-.547-1.736-.214-1.736.745A3.571,3.571,0,0,0,3743.075-3698.069Z" transform="translate(-3728.88 3765.296)"/><path class="a" d="M3787.137-3676.388c-.959-.548-1.736-.214-1.736.745a3.571,3.571,0,0,0,1.736,2.728c.959.547,1.736.213,1.736-.745A3.57,3.57,0,0,0,3787.137-3676.388Z" transform="translate(-3759.052 3748.072)"/><path class="a" d="M3787.137-3692.263c-.959-.548-1.736-.214-1.736.745a3.571,3.571,0,0,0,1.736,2.727c.959.548,1.736.214,1.736-.745A3.571,3.571,0,0,0,3787.137-3692.263Z" transform="translate(-3759.052 3758.942)"/><path class="a" d="M3787.137-3708.138c-.959-.548-1.736-.214-1.736.745a3.571,3.571,0,0,0,1.736,2.727c.959.547,1.736.214,1.736-.745A3.571,3.571,0,0,0,3787.137-3708.138Z" transform="translate(-3759.052 3769.813)"/><path class="a" d="M3877.32-3623.17a3.571,3.571,0,0,0-1.736-2.727c-.958-.548-1.736-.214-1.736.745a3.572,3.572,0,0,0,1.736,2.727C3876.542-3621.878,3877.32-3622.212,3877.32-3623.17Z" transform="translate(-3819.618 3713.497)"/><path class="a" d="M3875.584-3638.3c.959.548,1.736.214,1.736-.745a3.571,3.571,0,0,0-1.736-2.727c-.958-.548-1.736-.214-1.736.745A3.572,3.572,0,0,0,3875.584-3638.3Z" transform="translate(-3819.618 3724.368)"/><path class="a" d="M3875.584-3657.648c-.958-.547-1.736-.214-1.736.745a3.572,3.572,0,0,0,1.736,2.727c.959.548,1.736.214,1.736-.745A3.572,3.572,0,0,0,3875.584-3657.648Z" transform="translate(-3819.618 3735.239)"/><path class="a" d="M3964.031-3571.935c.959.547,1.736.214,1.736-.745a3.572,3.572,0,0,0-1.736-2.727c-.959-.548-1.736-.214-1.736.745A3.572,3.572,0,0,0,3964.031-3571.935Z" transform="translate(-3880.184 3678.922)"/><path class="a" d="M3964.031-3591.283c-.959-.547-1.736-.214-1.736.745a3.572,3.572,0,0,0,1.736,2.727c.959.547,1.736.214,1.736-.745A3.572,3.572,0,0,0,3964.031-3591.283Z" transform="translate(-3880.184 3689.794)"/><path class="a" d="M3962.295-3606.413a3.572,3.572,0,0,0,1.736,2.728c.959.547,1.736.214,1.736-.745a3.573,3.573,0,0,0-1.736-2.728C3963.072-3607.7,3962.295-3607.372,3962.295-3606.413Z" transform="translate(-3880.184 3700.664)"/><path class="a" d="M3947.833-3581.182c.959.547,1.736.214,1.736-.745a3.572,3.572,0,0,0-1.736-2.727c-.959-.547-1.736-.214-1.736.745A3.572,3.572,0,0,0,3947.833-3581.182Z" transform="translate(-3869.092 3685.255)"/><path class="a" d="M3947.833-3612.933c.959.548,1.736.214,1.736-.744a3.571,3.571,0,0,0-1.736-2.728c-.959-.548-1.736-.214-1.736.745A3.572,3.572,0,0,0,3947.833-3612.933Z" transform="translate(-3869.092 3706.997)"/><path class="a" d="M3903.77-3638.085c.959.547,1.736.214,1.736-.745a3.572,3.572,0,0,0-1.736-2.727c-.959-.547-1.736-.214-1.736.745A3.574,3.574,0,0,0,3903.77-3638.085Z" transform="translate(-3838.919 3724.22)"/><path class="a" d="M3857.811-3650.183a3.572,3.572,0,0,0,1.736,2.727c.958.548,1.736.214,1.736-.745a3.572,3.572,0,0,0-1.736-2.727C3858.589-3651.475,3857.811-3651.142,3857.811-3650.183Z" transform="translate(-3808.636 3730.637)"/><path class="a" d="M3769.526-3716.456a3.571,3.571,0,0,0,1.736,2.727c.958.547,1.736.214,1.736-.745a3.571,3.571,0,0,0-1.736-2.727C3770.3-3717.748,3769.526-3717.415,3769.526-3716.456Z" transform="translate(-3748.18 3776.019)"/></g></svg>