<svg xmlns="http://www.w3.org/2000/svg" width="555" height="694.95" viewBox="0 0 555 694.95"><defs><style>.a{fill:#c6ccd0;}.b,.j{fill:#f9eccc;}.c{fill:#d9d9d9;}.d{fill:#e6b384;}.d,.e,.f,.g,.h,.i,.j,.k,.l{fill-rule:evenodd;}.e{fill:#471818;}.f,.m{fill:#191847;}.g{fill:#2f3676;}.h{fill:#ccc1a7;}.i{fill:#c1f5c3;}.k{fill:rgba(0,0,0,0.1);}.l{fill:rgba(0,0,0,0.4);}</style></defs><g transform="translate(-52 -1879)"><rect class="a" width="35" height="655" transform="translate(428 1879)"/><rect class="b" width="134" height="18" transform="translate(473 1933)"/><rect class="b" width="134" height="18" transform="translate(284 1933)"/><rect class="a" width="134" height="28" transform="translate(473 1898)"/><rect class="a" width="134" height="28" transform="translate(284 1898)"/><g transform="translate(30.353 2147.95)"><rect class="c" width="4.751" height="238.122" transform="matrix(0.989, -0.149, 0.149, 0.989, 255.003, 184.673)"/><path class="d" d="M174.143,39.916c5.795,10.8,5.107,38.2-2.383,40.129-2.986.77-9.349-1.116-15.825-5.019L160,103.782H136l8.262-38.51c-4.608-5.409-7.726-12.037-7.2-19.465C138.558,24.407,168.349,29.115,174.143,39.916Z"/><path class="e" d="M142.418,69.308c-3.012-13.4-11.593-22.537-10.283-28.526a10.2,10.2,0,0,1,6.986-7.45s2.936-11.875,18.935-10.1,25.763,8.418,21.546,23.038c-3.876,0-8.556-1.4-15.026,1-3.08,1.143-4.406,7.09-4.406,7.09h-2.924s-4.257-7.057-8.4-5.187-1.881,9.088-1.881,9.088l-1.441,11.049Z"/><path class="f" d="M128,187l36.255,127.227L190.707,408H210L181.891,187Z"/><path class="g" d="M118.3,187c-.838,65.574-3.7,101.34-4.578,107.3S99.532,338.156,73.786,408H93.773q49.164-100.5,54.89-113.7c3.816-8.8,15.6-44.564,33.337-107.3Z"/><path class="f" d="M72,426l1-21H94c14.936,10.5,39,17,39,17v4H95l-13-2v2Z"/><path class="f" d="M188,426l1-21h21c14.936,10.5,39,17,39,17v4H211l-13-2v2Z"/><path class="d" d="M24.014,233.36c8.122-3.691,20.1-10.545,22.013-13.159,3.918-5.346,27.512-62.826,27.512-62.826l17.611,3.189S60.49,221.4,58.307,224.9c-2.836,4.543-.736,12.24.687,17.459.22.808.424,1.556.592,2.224-3.4.855-4.618-1.118-5.9-3.2-1.446-2.35-2.976-4.836-7.838-3.537-1.879.5-3.69,1.167-5.46,1.817-6.113,2.245-11.728,4.307-17.9-1.19-.979-.871-1.733-3.636,1.527-5.117ZM217.89,167.131l31.9,23.424a85.877,85.877,0,0,1,21.684,8.714c1.371,1.249,3.028,3.779-2.658,3.342s-11.688-.642-12.472,1.3c-.344.849.123,1.771.623,2.759.642,1.269,1.339,2.646.447,4.117q-1.585,2.617-14.986-13.124l-31.588-13.1,7.052-17.431Z"/><path class="h" d="M160.264,84.041l-10.7,4.387c.112,2.793.1,6.767.089,11.319-.04,14.289-.1,34.28,3.6,41.375,14.5,27.874,46.331,40.6,80.194,57.488l8.047-16.428q-1.4-.992-2.772-1.994a4.5,4.5,0,0,0-.048-8.512,34.269,34.269,0,0,0-13.355-2C195.349,144.423,175.173,114.858,160.264,84.041Z"/><path class="i" d="M112,195.91s47.157,5.18,74.236,0c2.237-.428,2.139-10.07,1.1-12.7C171.185,142.2,160.56,112.184,160.56,83.7c-4.445,2.322-15.56.7-15.56.7C125.086,113.75,115.933,147.427,112,195.91Z"/><path class="j" d="M52.193,196.406C79.981,116.98,136.976,82,136.976,82h11.372c-1.288,17.036,4.765,41.826,11.787,70.584,11.229,45.993,24.936,102.135,15.056,152.934-12.149,2.713-26.425.861-41.879-1.144-22.3-2.895-47.063-6.107-71.429,3.626,1.535-33.249,32.281-72.31,44.276-107.243a4.5,4.5,0,0,1-1.351-4.061l.521-2.955a4.5,4.5,0,0,1,3.9-3.687q.5-2.252.864-4.471c1.221-7.558.441-15.028-.329-22.414-.424-4.055-.844-8.085-.93-12.09C95.44,163.01,79.228,183.813,65.548,219.871l-18.887-5.558q1.083-4.024,2.268-7.917c-2.186-1.205-4.764-6.926-2.922-7.88A22.049,22.049,0,0,1,52.193,196.406Z"/><path class="k" d="M141.106,83l-5.159,15.865,10.389,11.894-9.389,9.347L159.662,159l-27.778-38.817,9.222-9.424-9.222-10.511Z"/><path class="l" d="M149,170a4,4,0,1,1,4,4,4,4,0,0,1-4-4Zm5,23a4,4,0,1,1,4,4,4,4,0,0,1-4-4Zm1,23a4,4,0,1,1,4,4,4,4,0,0,1-4-4Z"/><ellipse class="m" cx="2.313" cy="6.012" rx="2.313" ry="6.012" transform="translate(174.959 48.179)"/><rect class="m" width="21.369" height="1.338" transform="translate(154.64 49.538) rotate(7.238)"/><circle cx="6.596" cy="6.596" r="6.596" transform="translate(286.549 412.266)"/></g></g></svg>