<svg xmlns="http://www.w3.org/2000/svg" width="141.78" height="222.765" viewBox="0 0 141.78 222.765"><defs><style>.a{fill:#474749;}.b{fill:#fff;}</style></defs><g transform="translate(-5703.1 1013.604)"><path class="a" d="M5843.279-814.848h0L5787.8-846.192v-50.662l32.481,18.35a3.2,3.2,0,0,0,3.137-.02,3.157,3.157,0,0,0,1.561-2.718v-26.406a3.151,3.151,0,0,0-1.6-2.739l-35.58-20.1v-5.7l32.481,18.35a3.2,3.2,0,0,0,3.137-.02,3.157,3.157,0,0,0,1.561-2.718v-26.406a3.151,3.151,0,0,0-1.6-2.74l-35.58-20.1v-34.3a3.159,3.159,0,0,0-.525-1.74,3.123,3.123,0,0,0-1.151-1.123l-10.918-6.167a3.117,3.117,0,0,0-2.351-.3l-13.41,3.544a3.134,3.134,0,0,0-2.317,2.638,2.936,2.936,0,0,0-.023.412c0,.036,0,.074,0,.114v19.587l-46.084-26.034a3.152,3.152,0,0,0-3.136.02,3.157,3.157,0,0,0-1.562,2.718v26.406a3.15,3.15,0,0,0,1.6,2.739l49.183,27.785v5.7l-46.084-26.034a3.152,3.152,0,0,0-3.136.02,3.157,3.157,0,0,0-1.562,2.718v26.406a3.15,3.15,0,0,0,1.6,2.739l49.183,27.785v67.416l-51.639,13.212a3.132,3.132,0,0,0-2.34,2.634,3.131,3.131,0,0,0,1.572,3.154l64.656,36.53a3.146,3.146,0,0,0,1.55.408,3.153,3.153,0,0,0,.78-.1l70.826-18.121a3.132,3.132,0,0,0,2.34-2.635A3.132,3.132,0,0,0,5843.279-814.848Zm-59.252-154.215-12.344-6.973v-24.132l12.344-3.147Zm-12.771-32.315-9.347-5.28,11.667-3.083,9.347,5.28Zm49.95,54.764v24.961L5710.1-984.42v-24.961Zm-49.522,9.91v-11.481l12.344,6.973v11.481Zm-1.259-12.192v11.481l-9.542-5.391v-11.482Zm50.781,41.615v24.961L5710.1-945.086v-24.961Zm-37.179,88.974-12.344,3.147v-93.691l12.344,6.973Zm-13.6-91.256v94.132l-9.542-5.4v-94.119Zm-10.8,89.095a.63.63,0,0,0,.319.547l10.8,6.117a.67.67,0,0,0,.073.03c.018.007.035.016.054.022a.627.627,0,0,0,.184.031.638.638,0,0,0,.155-.019l13.6-3.468a.629.629,0,0,0,.474-.609v-25.46l54.775,30.947-69.066,17.671L5707.919-830.3l51.7-13.229Zm10.8-179.8v23.518l-9.542-5.391v-23.532Z"/><path class="b" d="M5781.49-424.228l69.066-17.671-54.775-30.947v25.46a.629.629,0,0,1-.474.609l-13.6,3.468a.638.638,0,0,1-.155.019.627.627,0,0,1-.184-.031c-.019-.006-.036-.014-.054-.022a.671.671,0,0,1-.073-.03l-10.8-6.117a.63.63,0,0,1-.319-.547V-473.1l-51.7,13.229Z" transform="translate(-10.496 -370.43)"/><path class="b" d="M5890-998.243l9.347,5.28,11.667-3.083-9.347-5.28Z" transform="translate(-128.087 -8.414)"/><path class="b" d="M5896.275-959.466v-23.518l-9.542-5.4v23.532Z" transform="translate(-125.85 -17.281)"/><path class="b" d="M5896.275-808.22V-819.7l-9.542-5.391v11.481Z" transform="translate(-125.85 -129.194)"/><path class="b" d="M5886.732-605.973l9.542,5.4V-694.7l-9.542-5.391Z" transform="translate(-125.85 -214.861)"/><path class="b" d="M5921.058-977.758v24.132l12.344,6.973v-34.252Z" transform="translate(-149.374 -22.41)"/><path class="b" d="M5921.058-805.7v11.481l12.344,6.973v-11.481Z" transform="translate(-149.374 -142.484)"/><path class="b" d="M5933.4-673.727l-12.344-6.973v93.691l12.344-3.147Z" transform="translate(-149.374 -228.151)"/><path class="b" d="M5804.855-803.122q-.858-.485-1.144.289a14.123,14.123,0,0,0-.278,3.629,17.4,17.4,0,0,0,.293,3.8,2.448,2.448,0,0,0,1.128,1.6q.812.458,1.113-.268a9.954,9.954,0,0,0,.3-3.114,21.71,21.71,0,0,0-.277-4.268A2.431,2.431,0,0,0,5804.855-803.122Z" transform="translate(-68.763 -144.123)"/><path class="b" d="M5829.338-790.085a2.359,2.359,0,0,0-.448-.616,3.078,3.078,0,0,0-.653-.485l-.271-.153v3.964q.935.528,1.322.313t.386-1.242a5.518,5.518,0,0,0-.081-1A2.947,2.947,0,0,0,5829.338-790.085Z" transform="translate(-85.575 -152.326)"/><path class="b" d="M5969.3-703.011q-.355-2.141-.58-4.469-.108,1.013-.278,2.018t-.4,2.111l-.294,1.364,1.908,1.078Z" transform="translate(-181.374 -209.798)"/><path class="b" d="M5725.348-875.181v24.961l111.106,62.767v-24.96Zm79.892,51.944,1.7.96.788,3.042c.026.092.052.191.078.3s.057.225.092.354a26.955,26.955,0,0,1,.6,2.7,12.124,12.124,0,0,1,.232-1.206l.248-.927.093-.365.665-2.322,1.677.947-2.079,5.626v5.131l-1.608-.908v-5.131Zm9.667,12.082v2.527l-1.4-.79V-813l.355.208q.711.4.958.132a2.557,2.557,0,0,0,.248-1.452,7.011,7.011,0,0,0-.193-1.964,1.445,1.445,0,0,0-.665-.9q-.68-.384-.68.93v.479l-1.43-.807.008-.452a4.384,4.384,0,0,1,.12-1.13,1.03,1.03,0,0,1,.383-.611.865.865,0,0,1,.665-.1,3.355,3.355,0,0,1,.974.4,4.117,4.117,0,0,1,1.785,1.8,7.125,7.125,0,0,1,.518,3.036,4.481,4.481,0,0,1-.355,2.264Q5815.849-810.685,5814.906-811.156Zm.248,4.614a.5.5,0,0,1-.278.515.8.8,0,0,1-.672-.109,1.769,1.769,0,0,1-.375-.285,2.244,2.244,0,0,1-.306-.373,1.866,1.866,0,0,1-.2-.417,1.276,1.276,0,0,1-.073-.416.486.486,0,0,1,.278-.508.8.8,0,0,1,.7.115,1.891,1.891,0,0,1,.657.649A1.55,1.55,0,0,1,5815.154-806.541Zm4.992,3.491a.815.815,0,0,1-.68-.114,2.018,2.018,0,0,1-.672-.65,1.563,1.563,0,0,1-.278-.837.486.486,0,0,1,.278-.508.787.787,0,0,1,.688.11,1.911,1.911,0,0,1,.665.653,1.547,1.547,0,0,1,.278.829A.5.5,0,0,1,5820.146-803.05Zm-1.453-3.525v-9.065l1.561.882v9.064Zm-15.447-17.788,2.558,13.376-1.592-.9-.448-2.579L5801.4-815.8l-.457,2.068-1.545-.873,2.6-10.465ZM5791.84-830.8l.811,6,.131.893q.094.717.14,1.292l.085,1.06c0,.029.01.078.015.148s.013.159.023.268l.038-.364q.094-.96.2-1.751t.228-1.44l.858-4.677,1.236.7.8,5.469q.178,1.213.3,2.231t.2,1.927q.077-.868.173-1.664t.206-1.553l.115-.731.688-4.279,1.538.868-2.11,10.74-1.251-.707-.843-5.63c0-.023-.018-.116-.039-.277s-.051-.392-.093-.694l-.162-1.281c-.011-.1-.027-.247-.05-.446s-.047-.447-.073-.745l-.039-.516q-.015.169-.031.292c-.01.082-.018.15-.023.2q-.039.488-.066.755t-.035.324l-.162,1.052-.085.57a1.965,1.965,0,0,1-.047.252l-.873,4.661-1.291-.729-2.063-13.1Zm-15.123,3.391-1.607-.908v-5.9l-2.357-1.331v5.9l-1.607-.908v-11.931l1.607.908v4.667l2.357,1.331v-4.667l1.607.907Zm-11.692-17.128v-1.407l5.231,2.955v1.407l-1.8-1.017v10.525l-1.577-.89v-10.525Zm-3.57,8.509-1.631-.921-2.187-7.077v5.842l-1.607-.908v-11.931l2.118,1.2a5.468,5.468,0,0,1,1.955,1.73,5.337,5.337,0,0,1,.812,2.939,2.953,2.953,0,0,1-.429,1.817,1.019,1.019,0,0,1-1.225.271Zm-7.017-9.634q0,3.16-.7,4.093t-2.357,0a5.383,5.383,0,0,1-2.45-2.813,15.533,15.533,0,0,1-.7-5.366q0-3.184.7-4.112t2.38.015a5.386,5.386,0,0,1,2.225,2.285,8.01,8.01,0,0,1,.7,2.348A22.684,22.684,0,0,1,5754.439-845.668Zm-17.4-12.984.015.009,1.657.936v-3.278l2.5,1.411v3.278l1.518.857c.709.4,1.176,1.4.869,1.871l-2.786,4.249c-.161.244-.5.266-.87.057l-.114-.064a2.1,2.1,0,0,1-.87-1.039l-2.787-7.4C5735.861-858.575,5736.328-859.052,5737.037-858.652Zm45.337,23.166a2.012,2.012,0,0,1,1.97.286,6.753,6.753,0,0,1,1.639,1.335v1.569a4.95,4.95,0,0,0-1.321-1.272,1.053,1.053,0,0,0-1.036-.137q-.4.2-.4.909a2.882,2.882,0,0,0,.287,1.236q.146.322.483.891t.869,1.4a15.263,15.263,0,0,1,1.337,2.478,5.212,5.212,0,0,1,.355,1.924,1.951,1.951,0,0,1-.781,1.839,2.025,2.025,0,0,1-2-.257,5.624,5.624,0,0,1-1.754-1.555v-1.592a5.741,5.741,0,0,0,1.561,1.507q.657.371,1.028.144t.371-.977a3.414,3.414,0,0,0-.286-1.329q-.147-.33-.41-.8t-.657-1.086q-.611-.948-1.013-1.638a10.624,10.624,0,0,1-.595-1.147,4.956,4.956,0,0,1-.371-1.925Q5781.648-835.077,5782.374-835.486Zm-3.817-2.821,1.607.908v11.931l-1.607-.908Z" transform="translate(-15.248 -94.866)"/><path class="b" d="M5826.923-910.789q.363-.251.363-1.395a2.857,2.857,0,0,0-1.391-2.718l-.124-.07-.07-.039a.284.284,0,0,0-.077-.036v3.956Q5826.56-910.562,5826.923-910.789Z" transform="translate(-83.971 -67.545)"/><path class="b" d="M5985.036-816.437q-.355-2.141-.579-4.469-.108,1.013-.278,2.018t-.4,2.111l-.293,1.364,1.908,1.078Z" transform="translate(-192.157 -132.063)"/><path class="b" d="M5825.625-898.42v4.026q.99.559,1.368.347t.378-1.324a3.621,3.621,0,0,0-.394-1.822A3.436,3.436,0,0,0,5825.625-898.42Z" transform="translate(-83.971 -78.94)"/><path class="b" d="M5787.848-931.942q-.108,1.013-.278,2.018t-.4,2.111l-.293,1.364,1.908,1.078-.355-2.1Q5788.072-929.613,5787.848-931.942Z" transform="translate(-57.414 -55.966)"/><path class="b" d="M5725.348-1000.181v24.961l111.106,62.767v-24.961ZM5830.4-924.225l-1.766.769-2.318-3.627-1.073.467c-.5.218-1.355-.457-1.591-1.259l-2.147-7.3c-.123-.42-.035-.76.228-.874l.081-.035a1.022,1.022,0,0,1,1,.339l6.087,5.585c.669.614.863,1.576.361,1.795l-.011,0-1.171.51ZM5810.19-944.6l1.7.96.788,3.042q.039.138.077.3t.093.354a27.089,27.089,0,0,1,.6,2.7,12.269,12.269,0,0,1,.232-1.206l.247-.927.093-.365.665-2.322,1.677.947-2.079,5.626v5.131l-1.608-.908v-5.131Zm-1.994-1.126,2.558,13.376-1.592-.9-.448-2.579-2.365-1.335-.456,2.068-1.545-.873,2.6-10.465Zm-11.406-6.442.812,6,.131.893q.093.717.139,1.292l.085,1.06c0,.029.01.078.015.148s.013.159.023.268l.039-.364q.092-.96.2-1.751t.228-1.44l.857-4.678,1.237.7.8,5.469q.177,1.213.3,2.231t.2,1.927q.078-.868.174-1.664t.205-1.553l.116-.731.688-4.279,1.538.868-2.11,10.74-1.252-.707-.842-5.63c-.005-.023-.019-.116-.039-.277s-.052-.392-.093-.694l-.162-1.281c-.011-.1-.027-.247-.05-.446s-.048-.447-.074-.745l-.039-.516c-.011.113-.021.21-.031.292s-.018.15-.023.2c-.026.325-.047.577-.066.755s-.03.286-.035.324l-.163,1.052c-.036.242-.064.432-.085.57a2.145,2.145,0,0,1-.046.252l-.873,4.661-1.291-.729-2.063-13.1Zm-9.466-4.681a2.012,2.012,0,0,1,1.97.286,6.761,6.761,0,0,1,1.638,1.335v1.569a4.937,4.937,0,0,0-1.321-1.271,1.053,1.053,0,0,0-1.036-.137q-.4.2-.4.909a2.881,2.881,0,0,0,.286,1.236q.146.322.482.891t.87,1.4a15.261,15.261,0,0,1,1.337,2.478,5.212,5.212,0,0,1,.355,1.924,1.952,1.952,0,0,1-.78,1.839,2.025,2.025,0,0,1-2-.257,5.609,5.609,0,0,1-1.754-1.555v-1.592a5.734,5.734,0,0,0,1.561,1.507q.657.371,1.028.144t.371-.977a3.412,3.412,0,0,0-.286-1.328q-.146-.33-.41-.8t-.657-1.086q-.611-.948-1.012-1.638a10.535,10.535,0,0,1-.595-1.147,4.947,4.947,0,0,1-.371-1.925Q5786.6-956.435,5787.325-956.844Zm-12.117-6.1-1.8-1.017v10.525l-1.577-.89v-10.525l-1.854-1.048v-1.406l5.231,2.955Zm-9.334-1.539v1.36l-2.365-1.335v4.072l2.666,1.506v1.36l-4.273-2.413v-11.931l4.273,2.413v1.36l-2.666-1.506v3.779Zm-5.935-1.636a4.836,4.836,0,0,1,.363,2q0,3.284-2.812,1.7l-2.1-1.187v-11.931l2.179,1.231a4.915,4.915,0,0,1,2.558,4.621,2.7,2.7,0,0,1-.332,1.613q-.333.4-1.175.225A5.819,5.819,0,0,1,5759.938-966.121Zm-11.614-13.414,1.7.96.788,3.042c.025.092.052.191.077.3s.057.225.093.354a26.927,26.927,0,0,1,.6,2.7,12.23,12.23,0,0,1,.232-1.206l.247-.927.093-.365.665-2.322,1.677.947-2.079,5.626v5.131l-1.607-.908v-5.131Zm.564,12.25-1.592-.9-.449-2.579-2.365-1.335-.456,2.069-1.545-.873,2.6-10.465,1.251.707Zm-13.972-19.821,1.375.777,1.051,5.462q.193,1.021.352,2.026t.29,2.084q.015-.123.023-.192a.616.616,0,0,1,.015-.1l.224-1.241.2-1.185.178-.757.936-4.255,1.391.785,1.1,12.551-1.538-.868-.271-4.2c-.01-.212-.02-.395-.027-.548s-.012-.28-.012-.378l-.07-1.639-.039-1.49c0-.01,0-.033,0-.068l-.012-.142-.039.218q-.062.39-.112.679t-.089.483l-.2.976-.077.366-1,4.641-1.082-.611-.942-5.03q-.193-1-.344-2t-.274-2.075l-.463,7.96-1.515-.856Zm48.591,27.442,1.607.907v11.931l-1.607-.908Zm-3.446,2.721v-4.667l1.606.907v11.931l-1.606-.908v-5.9l-2.357-1.331v5.9l-1.607-.908V-963.85l1.607.908v4.667Z" transform="translate(-15.248 -9.199)"/><path class="a" d="M5754.618-954.357q.124,1.074.274,2.075t.344,2l.943,5.03,1.082.611,1-4.641.077-.366.2-.976q.038-.195.089-.483t.112-.679l.038-.218c.005.06.009.107.012.142s0,.058,0,.068l.039,1.49.07,1.639c0,.1,0,.224.011.378s.017.336.027.548l.271,4.2,1.538.868-1.1-12.551-1.391-.785-.935,4.255-.178.757-.2,1.185-.224,1.241a.664.664,0,0,0-.016.1c-.005.046-.013.11-.023.192q-.132-1.079-.29-2.084t-.352-2.026L5755-957.852l-1.375-.777-.981,11.377,1.515.856Z" transform="translate(-33.952 -37.676)"/><path class="a" d="M5782.4-940.392l-2.6,10.465,1.545.873.456-2.069,2.365,1.335.449,2.579,1.592.9-2.559-13.376Zm-.371,8.152.293-1.364q.231-1.105.4-2.111t.278-2.018q.223,2.328.58,4.469l.355,2.1Z" transform="translate(-52.566 -50.175)"/><path class="a" d="M5802.462-920.322v-5.131l2.079-5.626-1.677-.947-.665,2.322-.093.365-.247.927a12.23,12.23,0,0,0-.232,1.206,26.935,26.935,0,0,0-.6-2.7q-.053-.193-.093-.354c-.025-.107-.052-.207-.077-.3l-.788-3.042-1.7-.96,2.488,8.206v5.131Z" transform="translate(-65.29 -54.167)"/><path class="a" d="M5825.217-914.426a2.7,2.7,0,0,0,.333-1.613,4.915,4.915,0,0,0-2.558-4.621l-2.179-1.231v11.931l2.1,1.187q2.813,1.588,2.813-1.7a4.828,4.828,0,0,0-.364-2,5.816,5.816,0,0,0-1.321-1.735Q5824.885-914.026,5825.217-914.426Zm-2.89-5.311a.284.284,0,0,1,.077.036l.07.039.124.07a2.857,2.857,0,0,1,1.391,2.718q0,1.144-.363,1.395-.363.228-1.3-.3Zm1.746,8.281q0,1.113-.378,1.324t-1.368-.347V-914.5a3.436,3.436,0,0,1,1.353,1.227A3.621,3.621,0,0,1,5824.073-911.455Z" transform="translate(-80.673 -62.855)"/><path class="a" d="M5845.788-906.425v-1.36l-4.273-2.413v11.931l4.273,2.413v-1.36l-2.666-1.506v-4.072l2.365,1.335v-1.36l-2.365-1.335v-3.779Z" transform="translate(-94.861 -70.868)"/><path class="a" d="M5867.177-895.706v1.406l1.855,1.047v10.525l1.576.89v-10.525l1.8,1.017v-1.406Z" transform="translate(-112.448 -80.8)"/><path class="a" d="M5886.627-884.721v11.931l1.607.908v-5.9l2.357,1.331v5.9l1.607.908v-11.931l-1.607-.908v4.667l-2.357-1.331v-4.668Z" transform="translate(-125.778 -88.328)"/><path class="a" d="M5911.786-870.513l-1.607-.908v11.931l1.607.908Z" transform="translate(-141.919 -97.444)"/><path class="a" d="M5920.372-859.058a10.624,10.624,0,0,0,.595,1.147q.4.69,1.013,1.638.394.616.656,1.086t.41.8a3.413,3.413,0,0,1,.286,1.329q0,.75-.371.977t-1.028-.144a5.735,5.735,0,0,1-1.561-1.507v1.592a5.618,5.618,0,0,0,1.754,1.555,2.025,2.025,0,0,0,2,.257,1.951,1.951,0,0,0,.781-1.839,5.222,5.222,0,0,0-.355-1.924,15.3,15.3,0,0,0-1.337-2.478q-.533-.834-.87-1.4t-.483-.891a2.887,2.887,0,0,1-.286-1.236q0-.711.4-.909a1.052,1.052,0,0,1,1.035.137,4.937,4.937,0,0,1,1.321,1.272v-1.569a6.759,6.759,0,0,0-1.638-1.335,2.012,2.012,0,0,0-1.97-.286q-.727.409-.727,1.807A4.947,4.947,0,0,0,5920.372-859.058Z" transform="translate(-148.65 -103.253)"/><path class="a" d="M5950.811-836.542l.874-4.661a2.213,2.213,0,0,0,.046-.252c.021-.138.048-.328.085-.57l.162-1.052q.007-.058.035-.324c.018-.178.04-.43.065-.755.005-.054.013-.122.023-.2s.021-.179.031-.292l.039.516c.025.3.05.546.073.745s.04.347.05.446l.163,1.281q.062.452.093.694c.021.161.033.254.039.277l.842,5.63,1.252.707,2.11-10.74-1.538-.868-.687,4.279-.116.731q-.108.758-.205,1.553t-.174,1.664q-.078-.909-.2-1.927t-.3-2.231l-.8-5.469-1.236-.7-.857,4.678q-.124.648-.229,1.44t-.2,1.751l-.039.364c-.011-.109-.018-.2-.023-.268a1.48,1.48,0,0,0-.016-.148l-.085-1.06q-.046-.575-.139-1.292l-.131-.893-.812-6-1.553-.877,2.063,13.1Z" transform="translate(-167.467 -111.872)"/><path class="a" d="M5977.957-818.018l.456-2.068,2.365,1.335.448,2.579,1.592.9-2.558-13.376-1.252-.707-2.6,10.465Zm.974-4.55q.231-1.105.4-2.111t.278-2.018q.223,2.328.579,4.469l.355,2.1-1.908-1.078Z" transform="translate(-187.31 -126.272)"/><path class="a" d="M5999.073-809.286v-5.131l2.079-5.626-1.677-.947-.665,2.322-.093.365-.247.927a12.269,12.269,0,0,0-.232,1.206,27.089,27.089,0,0,0-.6-2.7q-.053-.193-.093-.354t-.077-.3l-.788-3.042-1.7-.96,2.488,8.206v5.131Z" transform="translate(-200.033 -130.264)"/><path class="a" d="M6038.564-788.853c.5-.218.308-1.181-.361-1.795l-6.087-5.585a1.022,1.022,0,0,0-1-.339l-.081.035c-.263.114-.351.454-.228.874l2.147,7.3c.236.8,1.089,1.478,1.591,1.259l1.073-.467,2.318,3.627,1.766-.769-2.318-3.627,1.171-.51Z" transform="translate(-224.55 -148.713)"/><path class="a" d="M5801.131-808.442q-1.677-.947-2.38-.015t-.7,4.112a15.532,15.532,0,0,0,.7,5.366,5.388,5.388,0,0,0,2.45,2.813q1.654.934,2.357,0t.7-4.093a22.754,22.754,0,0,0-.216-3.553,8.026,8.026,0,0,0-.7-2.348A5.387,5.387,0,0,0,5801.131-808.442Zm1.151,10.518q-.3.726-1.113.268a2.446,2.446,0,0,1-1.128-1.6,17.37,17.37,0,0,1-.293-3.8,14.154,14.154,0,0,1,.277-3.629q.286-.773,1.144-.289a2.431,2.431,0,0,1,1.136,1.661,21.66,21.66,0,0,1,.278,4.268A9.949,9.949,0,0,1,5802.282-797.923Z" transform="translate(-65.076 -140.278)"/><path class="a" d="M5827.313-790.741a2.953,2.953,0,0,0,.429-1.817,5.337,5.337,0,0,0-.812-2.939,5.464,5.464,0,0,0-1.955-1.73l-2.117-1.2v11.931l1.607.908v-5.842l2.188,7.077,1.63.921-2.195-7.043A1.02,1.02,0,0,0,5827.313-790.741Zm-1.526-1.175q-.386.215-1.322-.313v-3.964l.271.153a3.064,3.064,0,0,1,.653.485,2.349,2.349,0,0,1,.448.616,2.93,2.93,0,0,1,.255.785,5.518,5.518,0,0,1,.081,1Q5826.173-792.131,5825.787-791.916Z" transform="translate(-82.075 -147.471)"/><path class="a" d="M5854.875-768.411v-10.525l1.8,1.017v-1.406l-5.231-2.955v1.406l1.854,1.047V-769.3Z" transform="translate(-101.666 -158.535)"/><path class="a" d="M5874.858-769.056v4.667l-2.357-1.331v-4.667l-1.607-.908v11.931l1.607.908v-5.9l2.357,1.331v5.9l1.607.908v-11.931Z" transform="translate(-114.995 -166.063)"/><path class="a" d="M5896.052-757.087l-1.607-.908v11.931l1.607.908Z" transform="translate(-131.136 -175.178)"/><path class="a" d="M5905.233-744.485q.4.691,1.013,1.638.394.617.657,1.086t.41.8a3.413,3.413,0,0,1,.286,1.328q0,.75-.371.977t-1.028-.144a5.743,5.743,0,0,1-1.561-1.507v1.592a5.624,5.624,0,0,0,1.754,1.555,2.025,2.025,0,0,0,2,.257,1.951,1.951,0,0,0,.781-1.839,5.212,5.212,0,0,0-.355-1.924,15.263,15.263,0,0,0-1.337-2.478q-.533-.835-.869-1.4t-.483-.891a2.882,2.882,0,0,1-.287-1.236q0-.711.4-.909a1.053,1.053,0,0,1,1.036.137,4.948,4.948,0,0,1,1.321,1.272v-1.569a6.753,6.753,0,0,0-1.639-1.335,2.012,2.012,0,0,0-1.97-.286q-.727.409-.726,1.807a4.956,4.956,0,0,0,.371,1.925A10.624,10.624,0,0,0,5905.233-744.485Z" transform="translate(-137.868 -180.988)"/><path class="a" d="M5935.078-723.116l.873-4.661a1.963,1.963,0,0,0,.047-.252l.085-.57.162-1.052q.008-.058.035-.324t.065-.755c0-.054.013-.122.023-.2s.021-.179.031-.292l.039.516q.039.447.074.745t.05.446l.162,1.281q.062.452.093.694c.021.161.033.254.039.277l.842,5.63,1.252.707,2.109-10.74-1.538-.868-.687,4.279-.115.731q-.109.758-.206,1.553t-.173,1.664q-.078-.909-.2-1.927t-.3-2.231l-.8-5.469-1.236-.7-.857,4.677q-.124.648-.229,1.44t-.2,1.751l-.039.364c-.01-.109-.018-.2-.023-.268s-.011-.119-.016-.148l-.085-1.06q-.046-.575-.139-1.292l-.131-.893-.811-6-1.553-.877,2.063,13.1Z" transform="translate(-156.684 -189.607)"/><path class="a" d="M5960.677-705.465l1.545.873.456-2.068,2.364,1.335.449,2.579,1.592.9-2.558-13.376-1.252-.707Zm2.52-3.677q.231-1.105.4-2.111t.278-2.018q.223,2.328.58,4.469l.355,2.1-1.908-1.078Z" transform="translate(-176.527 -204.007)"/><path class="a" d="M5983.339-695.861v-5.131l2.079-5.626-1.677-.947-.665,2.322-.093.365-.248.927a12.124,12.124,0,0,0-.232,1.206,26.928,26.928,0,0,0-.6-2.7c-.036-.128-.067-.247-.093-.354s-.052-.207-.077-.3l-.788-3.042-1.7-.96,2.488,8.206v5.131Z" transform="translate(-189.251 -207.999)"/><path class="a" d="M6005.146-688.142a4.481,4.481,0,0,0,.355-2.264,7.125,7.125,0,0,0-.518-3.036,4.117,4.117,0,0,0-1.785-1.8,3.355,3.355,0,0,0-.974-.4.865.865,0,0,0-.665.1,1.03,1.03,0,0,0-.383.611,4.384,4.384,0,0,0-.12,1.13l-.008.452,1.43.807v-.479q0-1.314.68-.93a1.445,1.445,0,0,1,.665.9,7.011,7.011,0,0,1,.193,1.964,2.557,2.557,0,0,1-.248,1.452q-.247.27-.958-.132l-.355-.208v3.585l1.4.79v-2.527Q6004.8-687.658,6005.146-688.142Z" transform="translate(-204.196 -217.893)"/><path class="a" d="M6005.658-662.079a.8.8,0,0,0-.7-.115.486.486,0,0,0-.278.508,1.276,1.276,0,0,0,.073.416,1.866,1.866,0,0,0,.2.417,2.246,2.246,0,0,0,.306.373,1.766,1.766,0,0,0,.375.285.8.8,0,0,0,.672.109.5.5,0,0,0,.278-.515,1.55,1.55,0,0,0-.278-.83A1.891,1.891,0,0,0,6005.658-662.079Z" transform="translate(-206.687 -240.807)"/><path class="a" d="M6023.559-685.077l-1.561-.882v9.064l1.561.882Z" transform="translate(-218.552 -224.547)"/><path class="a" d="M6022.4-652.626a.787.787,0,0,0-.688-.11.486.486,0,0,0-.277.508,1.562,1.562,0,0,0,.277.837,2.015,2.015,0,0,0,.673.65.813.813,0,0,0,.68.114.5.5,0,0,0,.278-.515,1.55,1.55,0,0,0-.278-.829A1.911,1.911,0,0,0,6022.4-652.626Z" transform="translate(-218.166 -247.288)"/><path class="a" d="M5762.31-819.448a2.091,2.091,0,0,0,.87,1.039l.114.064c.371.21.709.188.87-.057l2.786-4.249c.307-.467-.16-1.471-.869-1.871l-1.518-.857v-3.278l-2.5-1.411v3.278l-1.656-.936-.016-.009c-.709-.4-1.176.076-.87.889Z" transform="translate(-38.603 -125.784)"/></g></svg>