<svg width="330" height="458" xmlns="http://www.w3.org/2000/svg" xmlns:svg="http://www.w3.org/2000/svg">
 <g>
  <title>Layer 1</title>
  <path id="svg_2" d="m0.93004,27.94129l-0.1,417.3l23.5,-4.5l26.2,-4.4l26.8,-3.8c0,0 23,-3.6 23,-3.6c0,0 24.1,-2.2 24.1,-2.2c0,0 34.9,-2.7 34.9,-2.7c0,0 16.9,-1.3 17,-1.3c0.1,0 31.5,-0.5 31.5,-0.5c0,0 29.1,0.2 29.1,0.2c0,0 18.2,0.3 18.2,0.3c0,0 11.3,0.2 11.3,0.2c0,0 10.9,-1.6 10.9,-1.6c0,0 10.5,-4.8 10.5,-4.8c0,0 9.1,-7.1 9.1,-7.1c0,0 8.4,-11.7 8.4,-11.7c0,0 3.7,-8.8 3.7,-8.8c0,0 1.6,-10.4 1.6,-10.4c0,0 -0.7,-10.8 -0.7,-10.8c0,0 -4.1,-11.2 -4.1,-11.2c0,0 -3.6,-6.5 -3.6,-6.5c0,0 -25.5,-36 -25.5,-36c0,0 -6.3,-10.1 -6.3,-10.1c0,0 -9,-16.1 -9,-16.1c0,0 -6.1,-14.4 -6.1,-14.4c0,0 -14.4,-42.8 -14.4,-42.8c0,0 -10.8,-38.4 -10.8,-38.4c0,0 -10.1,-38 -10.1,-38c0,0 -10.3,-41.9 -10.3,-41.9c0,0 -6.4,-17 -6.4,-17c0,0 -8.6,-15.6 -8.6,-15.6c0,0 -8.3,-11.7 -8.3,-11.7c0,0 -17.3,-19.1 -17.3,-19.1c0,0 -15.1,-12.1 -15.1,-12.1c0,0 -11.2,-7.5 -11.2,-7.5c0,0 -17.7,-8.3 -17.7,-8.3c0,0 -19.5,-6.6 -19.5,-6.6c0,0 -17.6,-3 -17.6,-3c0,0 -16.2,-1 -16.2,-1c0,0 -14.7,0.1 -14.7,0.1c0,0 -14.1,2 -14.1,2c0,0 -18.4,5 -18.4,5c0,0 -13.6,5 -13.6,5c0,0 -10.1,5.4 -10.1,5.4z" stroke="rgba(249, 236, 204, 0.6)" fill="rgba(249, 236, 204, 0.6)"/>
 </g>
</svg>