<svg xmlns="http://www.w3.org/2000/svg" width="217.548" height="154.645" viewBox="0 0 217.548 154.645"><defs><style>.a{fill:#474749;}.b{fill:#fff;}</style></defs><g transform="translate(0 0)"><path class="a" d="M4698.289-3631.4l-.029-.186a3.132,3.132,0,0,0-1.162-1.923,3.138,3.138,0,0,0-.577-.354l-48.625-27.472-.018-.067-42.674-24.054a3.138,3.138,0,0,0-2.332-.312l-59.706,15.209a3.14,3.14,0,0,0-1.189.4c-.07.041-.14.085-.207.131l-2.831.721a7.815,7.815,0,0,0-4.571-.126,10,10,0,0,0-4.234,2.369l-12.947,3.3a7.809,7.809,0,0,0-4.566-.126,10,10,0,0,0-4.23,2.366l-24.864,6.334a3.126,3.126,0,0,0-1.188.4,3.16,3.16,0,0,0-1.467,1.966l-.034.092-.073.556.01.1v11.268c0,.048,0,.1,0,.144s0,.1,0,.146v54.321a3.156,3.156,0,0,0,1.6,2.745l91.008,51.412c.058.053.118.1.18.151a3.165,3.165,0,0,0,1.93.66,3.152,3.152,0,0,0,.791-.1l119.667-31.045a3.152,3.152,0,0,0,2.36-3.051v-65.6A2.874,2.874,0,0,0,4698.289-3631.4Zm-3.757,65.5-118.405,30.718v-53.039l118.405-30.717Zm-187.035-88.25a.469.469,0,0,0,.469.469.469.469,0,0,0,.469-.469,7.038,7.038,0,0,1,5.066-6.384,3.948,3.948,0,0,1,3.488.547,3.659,3.659,0,0,1,1.339,2.994.47.47,0,0,0,.47.469.47.47,0,0,0,.47-.469,4.757,4.757,0,0,0-1.066-3.117l12.024-3.063a7.086,7.086,0,0,0-.982,3.481.469.469,0,0,0,.469.469.468.468,0,0,0,.468-.469,7.042,7.042,0,0,1,5.067-6.385,3.947,3.947,0,0,1,3.488.547,3.66,3.66,0,0,1,1.34,2.993.469.469,0,0,0,.469.469.469.469,0,0,0,.469-.469,4.756,4.756,0,0,0-1.064-3.114l3.975-1.012,89.912,50.8-5.812,1.489-44,11.209-89.923-50.806,14.382-3.664A7.079,7.079,0,0,0,4507.5-3654.154Zm185.978,22.917-5.91,1.515-52.167,13.29-47.921-27.075,57.98-14.859Zm-118.61,31.274v9.814l-90.306-51.017v-9.813Zm-82.437-54.23Zm93.4,10.456Zm49.063,28.9v9.981l-58.767,15.061v-9.981Zm59.639-5.409-6.2,1.609-52.175,13.371v-9.982l58.376-14.96Zm-202.2-33.279,89.923,50.806-6.687,1.7-89.931-50.8Zm-7.773,14.1,90.306,51.017v52.872l-90.306-51.017Zm161.3-19.694h0ZM4585.89-3644.4l-40.418-22.836,58.09-14.8,40.31,22.775Z" transform="translate(-4480.766 3685.864)"/><path class="b" d="M4819.282-3583.777l47.92,27.075,52.168-13.29,5.91-1.514-48.019-27.131Z" transform="translate(-4712.574 3626.132)"/><path class="b" d="M4686.035-3658.927l40.418,22.836,57.981-14.859-40.309-22.775Z" transform="translate(-4621.33 3677.551)"/><path class="b" d="M4973.71-3494.34v9.981l52.176-13.371,6.2-1.609v-9.961Z" transform="translate(-4818.322 3564.958)"/><path class="b" d="M4586.146-3530.761l6.688-1.7-89.923-50.806-6.7,1.705Z" transform="translate(-4491.345 3615.611)"/><path class="b" d="M4612.982-3561.464l44-11.209,5.812-1.489-89.913-50.8-3.974,1.012a4.757,4.757,0,0,1,1.064,3.114.469.469,0,0,1-.469.469.469.469,0,0,1-.469-.469,3.659,3.659,0,0,0-1.341-2.994,3.947,3.947,0,0,0-3.488-.547,7.04,7.04,0,0,0-5.067,6.385.468.468,0,0,1-.468.469.469.469,0,0,1-.469-.469,7.077,7.077,0,0,1,.982-3.481l-12.023,3.063a4.756,4.756,0,0,1,1.066,3.116.47.47,0,0,1-.469.47.47.47,0,0,1-.47-.47,3.659,3.659,0,0,0-1.339-2.994,3.95,3.95,0,0,0-3.488-.547,7.04,7.04,0,0,0-5.066,6.385.469.469,0,0,1-.469.469.469.469,0,0,1-.469-.469,7.079,7.079,0,0,1,.984-3.484l-14.382,3.664Zm-43.558-31.558a.469.469,0,0,1-.47-.469,8.029,8.029,0,0,1,5.767-7.292,4.863,4.863,0,0,1,4.3.711,4.577,4.577,0,0,1,1.706,3.737.47.47,0,0,1-.47.47.469.469,0,0,1-.469-.47,3.661,3.661,0,0,0-1.34-2.994,3.949,3.949,0,0,0-3.488-.547,7.04,7.04,0,0,0-5.066,6.385A.469.469,0,0,1,4569.424-3593.022Zm54.244,3.827a.47.47,0,0,1-.469-.47,3.658,3.658,0,0,0-1.34-2.993,3.947,3.947,0,0,0-3.488-.547,7.039,7.039,0,0,0-5.066,6.385.469.469,0,0,1-.469.469.469.469,0,0,1-.469-.469,8.028,8.028,0,0,1,5.767-7.292,4.864,4.864,0,0,1,4.3.711,4.579,4.579,0,0,1,1.706,3.737A.47.47,0,0,1,4623.668-3589.2Zm-10.833-6.091a.469.469,0,0,1-.469-.469,3.661,3.661,0,0,0-1.34-2.994,3.95,3.95,0,0,0-3.487-.547,7.04,7.04,0,0,0-5.067,6.384.469.469,0,0,1-.469.47.469.469,0,0,1-.47-.47,8.028,8.028,0,0,1,5.767-7.291,4.861,4.861,0,0,1,4.3.711,4.578,4.578,0,0,1,1.706,3.737A.469.469,0,0,1,4612.835-3595.286ZM4602-3601.408a.469.469,0,0,1-.47-.469,3.66,3.66,0,0,0-1.339-2.994,3.95,3.95,0,0,0-3.489-.547,7.04,7.04,0,0,0-5.066,6.385.469.469,0,0,1-.47.469.469.469,0,0,1-.469-.469,8.028,8.028,0,0,1,5.767-7.292,4.861,4.861,0,0,1,4.3.711,4.575,4.575,0,0,1,1.705,3.737A.469.469,0,0,1,4602-3601.408Zm-10.833-6.044a.469.469,0,0,1-.469-.469,3.661,3.661,0,0,0-1.34-2.994,3.951,3.951,0,0,0-3.488-.546,7.04,7.04,0,0,0-5.066,6.385.469.469,0,0,1-.469.469.469.469,0,0,1-.469-.469,8.028,8.028,0,0,1,5.766-7.292,4.868,4.868,0,0,1,4.3.711,4.58,4.58,0,0,1,1.7,3.737A.469.469,0,0,1,4591.169-3607.452Zm-10.914,20.552a.469.469,0,0,1-.469-.469,8.028,8.028,0,0,1,5.766-7.292,4.864,4.864,0,0,1,4.3.711,4.577,4.577,0,0,1,1.705,3.737.469.469,0,0,1-.469.469.47.47,0,0,1-.469-.469,3.66,3.66,0,0,0-1.339-2.994,3.949,3.949,0,0,0-3.488-.547,7.039,7.039,0,0,0-5.066,6.384A.47.47,0,0,1,4580.256-3586.9Zm10.833,6.09a.47.47,0,0,1-.469-.469,8.029,8.029,0,0,1,5.767-7.292,4.862,4.862,0,0,1,4.3.712,4.575,4.575,0,0,1,1.705,3.737.469.469,0,0,1-.47.469.469.469,0,0,1-.468-.469,3.658,3.658,0,0,0-1.34-2.994,3.95,3.95,0,0,0-3.488-.547,7.039,7.039,0,0,0-5.067,6.384A.469.469,0,0,1,4591.088-3580.811Zm10.833,6.006a.469.469,0,0,1-.468-.469,8.029,8.029,0,0,1,5.766-7.292,4.865,4.865,0,0,1,4.3.711,4.577,4.577,0,0,1,1.706,3.737.469.469,0,0,1-.469.469.469.469,0,0,1-.469-.469,3.659,3.659,0,0,0-1.34-2.993,3.947,3.947,0,0,0-3.488-.547,7.039,7.039,0,0,0-5.066,6.384A.469.469,0,0,1,4601.921-3574.8Zm21.667,3.441a.469.469,0,0,1-.47-.469,3.659,3.659,0,0,0-1.341-2.994,3.946,3.946,0,0,0-3.486-.547,7.039,7.039,0,0,0-5.067,6.384.469.469,0,0,1-.469.469.469.469,0,0,1-.469-.469,8.029,8.029,0,0,1,5.767-7.292,4.861,4.861,0,0,1,4.3.712,4.576,4.576,0,0,1,1.705,3.737A.469.469,0,0,1,4623.587-3571.364Zm.081-8.983a.469.469,0,0,1-.469-.469,8.03,8.03,0,0,1,5.766-7.292,4.865,4.865,0,0,1,4.3.712,4.576,4.576,0,0,1,1.705,3.737.469.469,0,0,1-.469.469.469.469,0,0,1-.469-.469,3.661,3.661,0,0,0-1.34-2.994,3.948,3.948,0,0,0-3.487-.547,7.038,7.038,0,0,0-5.066,6.384A.469.469,0,0,1,4623.668-3580.347Zm10.833,6.284a.469.469,0,0,1-.469-.469,8.03,8.03,0,0,1,5.766-7.292,4.862,4.862,0,0,1,4.3.712,4.575,4.575,0,0,1,1.7,3.737.469.469,0,0,1-.469.469.469.469,0,0,1-.469-.469,3.662,3.662,0,0,0-1.34-2.994,3.951,3.951,0,0,0-3.489-.546,7.04,7.04,0,0,0-5.066,6.384A.469.469,0,0,1,4634.5-3574.063Zm-59.7-45.035a4.863,4.863,0,0,1,4.3.711,4.576,4.576,0,0,1,1.706,3.737.469.469,0,0,1-.469.47.469.469,0,0,1-.469-.47,3.661,3.661,0,0,0-1.341-2.994,3.947,3.947,0,0,0-3.487-.546,7.038,7.038,0,0,0-5.066,6.384.47.47,0,0,1-.469.47.469.469,0,0,1-.469-.47A8.028,8.028,0,0,1,4574.8-3619.1Zm-10.915,12.271a4.864,4.864,0,0,1,4.3.711,4.576,4.576,0,0,1,1.705,3.737.469.469,0,0,1-.468.469.469.469,0,0,1-.47-.469,3.662,3.662,0,0,0-1.341-2.994,3.947,3.947,0,0,0-3.488-.547,7.039,7.039,0,0,0-5.065,6.385.469.469,0,0,1-.47.469.469.469,0,0,1-.468-.469A8.027,8.027,0,0,1,4563.888-3606.828Zm-10.833-6.729a4.864,4.864,0,0,1,4.3.711,4.578,4.578,0,0,1,1.706,3.737.47.47,0,0,1-.47.469.469.469,0,0,1-.468-.469,3.662,3.662,0,0,0-1.34-2.994,3.951,3.951,0,0,0-3.488-.547,7.039,7.039,0,0,0-5.066,6.384.47.47,0,0,1-.469.469.47.47,0,0,1-.47-.469A8.029,8.029,0,0,1,4553.055-3613.556Z" transform="translate(-4509.727 3644.16)"/><path class="b" d="M4492.795-3565.385l90.307,51.017v-9.813l-90.307-51.017Z" transform="translate(-4489.004 3610.084)"/><path class="b" d="M4783.28-3445.478v9.981l58.768-15.061v-9.981Z" transform="translate(-4687.92 3531.567)"/><path class="b" d="M4583.1-3487.536l-90.307-51.017v52.873l90.307,51.017Z" transform="translate(-4489.004 3584.989)"/><path class="b" d="M4783.28-3442.849v53.039l118.406-30.718v-53.039Z" transform="translate(-4687.92 3540.488)"/><path class="a" d="M4600.4-3581.455a.47.47,0,0,0,.469-.469,7.038,7.038,0,0,1,5.066-6.384,3.949,3.949,0,0,1,3.488.547,3.662,3.662,0,0,1,1.34,2.994.469.469,0,0,0,.468.469.469.469,0,0,0,.47-.469,4.576,4.576,0,0,0-1.705-3.737,4.865,4.865,0,0,0-4.3-.712,8.029,8.029,0,0,0-5.766,7.292A.469.469,0,0,0,4600.4-3581.455Z" transform="translate(-4562.365 3619.82)"/><path class="a" d="M4634.759-3560.11a.47.47,0,0,0,.47-.469,7.038,7.038,0,0,1,5.065-6.384,3.946,3.946,0,0,1,3.488.547,3.66,3.66,0,0,1,1.341,2.994.469.469,0,0,0,.469.469.469.469,0,0,0,.469-.469,4.576,4.576,0,0,0-1.707-3.738,4.862,4.862,0,0,0-4.3-.711,8.028,8.028,0,0,0-5.766,7.292A.469.469,0,0,0,4634.759-3560.11Z" transform="translate(-4585.896 3605.204)"/><path class="a" d="M4674.661-3547.789a3.947,3.947,0,0,1,3.488.547,3.66,3.66,0,0,1,1.341,2.994.469.469,0,0,0,.468.469.469.469,0,0,0,.47-.469,4.577,4.577,0,0,0-1.706-3.737,4.865,4.865,0,0,0-4.3-.711,8.029,8.029,0,0,0-5.767,7.292.469.469,0,0,0,.469.469.469.469,0,0,0,.469-.469A7.04,7.04,0,0,1,4674.661-3547.789Z" transform="translate(-4609.428 3592.073)"/><path class="a" d="M4709.026-3528.369a3.948,3.948,0,0,1,3.488.547,3.661,3.661,0,0,1,1.341,2.994.469.469,0,0,0,.468.469.469.469,0,0,0,.47-.469,4.58,4.58,0,0,0-1.7-3.737,4.865,4.865,0,0,0-4.3-.711,8.029,8.029,0,0,0-5.767,7.292.47.47,0,0,0,.47.469.469.469,0,0,0,.469-.469A7.04,7.04,0,0,1,4709.026-3528.369Z" transform="translate(-4632.96 3578.775)"/><path class="a" d="M4743.391-3509.049a3.948,3.948,0,0,1,3.487.547,3.659,3.659,0,0,1,1.34,2.994.469.469,0,0,0,.469.469.469.469,0,0,0,.469-.469,4.577,4.577,0,0,0-1.706-3.737,4.862,4.862,0,0,0-4.3-.711,8.028,8.028,0,0,0-5.767,7.292.469.469,0,0,0,.469.469.469.469,0,0,0,.47-.469A7.038,7.038,0,0,1,4743.391-3509.049Z" transform="translate(-4656.493 3565.545)"/><path class="a" d="M4777.755-3490a3.947,3.947,0,0,1,3.488.547,3.659,3.659,0,0,1,1.341,2.994.469.469,0,0,0,.468.469.469.469,0,0,0,.47-.469,4.578,4.578,0,0,0-1.706-3.738,4.868,4.868,0,0,0-4.3-.711,8.029,8.029,0,0,0-5.766,7.292.469.469,0,0,0,.469.469.469.469,0,0,0,.47-.469A7.039,7.039,0,0,1,4777.755-3490Z" transform="translate(-4680.025 3552.499)"/><path class="a" d="M4816.182-3470.258a4.862,4.862,0,0,0-4.3-.712,8.03,8.03,0,0,0-5.767,7.292.47.47,0,0,0,.47.469.469.469,0,0,0,.469-.469,7.038,7.038,0,0,1,5.066-6.384,3.948,3.948,0,0,1,3.488.547,3.657,3.657,0,0,1,1.341,2.994.469.469,0,0,0,.469.469.469.469,0,0,0,.47-.469A4.575,4.575,0,0,0,4816.182-3470.258Z" transform="translate(-4703.558 3538.848)"/><path class="a" d="M4669.383-3599.037a.47.47,0,0,0,.47-.47,7.037,7.037,0,0,1,5.066-6.383,3.947,3.947,0,0,1,3.488.546,3.658,3.658,0,0,1,1.34,2.994.469.469,0,0,0,.47.469.469.469,0,0,0,.469-.469,4.575,4.575,0,0,0-1.706-3.737,4.864,4.864,0,0,0-4.3-.712,8.029,8.029,0,0,0-5.766,7.292A.469.469,0,0,0,4669.383-3599.037Z" transform="translate(-4609.605 3631.86)"/><path class="a" d="M4713.344-3584.742a4.863,4.863,0,0,0-4.3-.711,8.029,8.029,0,0,0-5.767,7.292.47.47,0,0,0,.47.469.469.469,0,0,0,.468-.469,7.04,7.04,0,0,1,5.067-6.384,3.95,3.95,0,0,1,3.488.547,3.66,3.66,0,0,1,1.34,2.994.469.469,0,0,0,.469.469.469.469,0,0,0,.469-.469A4.576,4.576,0,0,0,4713.344-3584.742Z" transform="translate(-4633.137 3617.244)"/><path class="a" d="M4747.71-3565.567a4.862,4.862,0,0,0-4.3-.712,8.029,8.029,0,0,0-5.767,7.292.469.469,0,0,0,.469.469.469.469,0,0,0,.469-.469,7.04,7.04,0,0,1,5.067-6.384,3.948,3.948,0,0,1,3.487.547,3.66,3.66,0,0,1,1.34,2.994.469.469,0,0,0,.469.469.469.469,0,0,0,.469-.469A4.578,4.578,0,0,0,4747.71-3565.567Z" transform="translate(-4656.67 3604.113)"/><path class="a" d="M4782.074-3546.147a4.864,4.864,0,0,0-4.3-.711,8.028,8.028,0,0,0-5.766,7.292.469.469,0,0,0,.469.469.47.47,0,0,0,.469-.469,7.039,7.039,0,0,1,5.067-6.384,3.948,3.948,0,0,1,3.487.547,3.661,3.661,0,0,1,1.34,2.994.469.469,0,0,0,.469.469.469.469,0,0,0,.469-.469A4.574,4.574,0,0,0,4782.074-3546.147Z" transform="translate(-4680.202 3590.815)"/><path class="a" d="M4816.439-3526.827a4.862,4.862,0,0,0-4.3-.711,8.029,8.029,0,0,0-5.766,7.292.469.469,0,0,0,.47.469.469.469,0,0,0,.469-.469,7.038,7.038,0,0,1,5.066-6.384,3.95,3.95,0,0,1,3.488.546,3.66,3.66,0,0,1,1.34,2.994.469.469,0,0,0,.469.469.47.47,0,0,0,.469-.469A4.576,4.576,0,0,0,4816.439-3526.827Z" transform="translate(-4703.734 3577.585)"/><path class="a" d="M4846.744-3507.579a3.949,3.949,0,0,1,3.487.547,3.66,3.66,0,0,1,1.34,2.994.469.469,0,0,0,.469.469.469.469,0,0,0,.469-.469,4.578,4.578,0,0,0-1.705-3.737,4.864,4.864,0,0,0-4.3-.711,8.029,8.029,0,0,0-5.767,7.292.469.469,0,0,0,.47.469.469.469,0,0,0,.468-.469A7.04,7.04,0,0,1,4846.744-3507.579Z" transform="translate(-4727.267 3564.539)"/><path class="a" d="M4881.108-3487.644a3.952,3.952,0,0,1,3.489.546,3.66,3.66,0,0,1,1.339,2.994.469.469,0,0,0,.469.469.469.469,0,0,0,.469-.469,4.574,4.574,0,0,0-1.705-3.737,4.862,4.862,0,0,0-4.3-.712,8.03,8.03,0,0,0-5.766,7.292.47.47,0,0,0,.469.469.469.469,0,0,0,.469-.469A7.039,7.039,0,0,1,4881.108-3487.644Z" transform="translate(-4750.798 3550.888)"/></g></svg>