<svg width="320" height="439.99999999999994" xmlns="http://www.w3.org/2000/svg" xmlns:svg="http://www.w3.org/2000/svg">
 <g>
  <title>Layer 1</title>
  <path id="svg_2" d="m1.39012,21.87303l-0.1,324.9c0,0 30.1,6.9 30.2,6.9c0.1,0 38.2,11.2 38.2,11.2c0,0 25.4,8.9 25.4,8.9c0,0 37.7,16.9 37.7,16.9c0,0 18.3,9.5 18.3,9.5c0,0 16.2,8.5 16.2,8.5c0,0 6.3,2.6 6.4,2.5c0.1,-0.1 8.2,-1.4 8.2,-1.4c0,0 8.2,-2.9 8.2,-2.9c0,0 4.4,-3.7 4.4,-3.7c0,0 4.6,-5.9 4.6,-6c0,-0.1 3.3,-8.9 3.3,-8.9c0,0 3,-26.3 3,-26.3c0,0 2.3,-14.2 2.3,-13.9c0,0.3 4.7,-18 4.7,-18c0,0 6,-16.2 6,-16.2c0,0 6.7,-16.4 6.7,-16.4c0,0 8.7,-18.5 8.7,-18.5c0,0 12.2,-23 12.3,-23.4c0.1,-0.4 7.7,-13.3 7.7,-13.3c0,0 9.6,-17.8 9.8,-18c0.2,-0.2 10.7,-18.1 10.7,-18.1c0,0 11,-19.4 11,-19.5c0,-0.1 7.2,-15.6 7.2,-15.6c0,0 2.8,-16.4 3,-17.1c0.2,-0.7 0.3,-14.7 0.6,-14.9c0.3,-0.2 -4.4,-23 -4.4,-23c0,0 -9.8,-20 -9.8,-20c0,0 -9.1,-12.7 -9.1,-12.9c0,-0.2 -15.3,-14.7 -15.2,-14.7c0.1,0 -18.5,-10.1 -18.5,-10.1c0,0 -10,-3.9 -10,-3.9c0,0 -15.9,-3.1 -15.9,-3.1c0,0 -23.7,-0.1 -23.7,-0.1c0,0 -27.7,-0.5 -27.7,-0.5c0,0 -18.2,-0.2 -18.2,-0.2c0,0 -33.9,-1.6 -33.9,-1.6c0,0 -26.6,-2.6 -26.5,-2.6c0.1,0 -23.4,-5 -23.4,-5.1c0,-0.1 -17,-5.3 -17,-5.3c0,0 -21.6,-6.9 -21.6,-6.9c0,0 -19.8,-7.2 -19.8,-7.2z" stroke-linecap="null" stroke-linejoin="null" stroke-dasharray="null" stroke-width="null" stroke="#daf9db" fill="#daf9db"/>
 </g>
</svg>