<svg width="380" height="500" xmlns="http://www.w3.org/2000/svg" xmlns:svg="http://www.w3.org/2000/svg">
 <g>
  <title>Layer 1</title>
  <path id="svg_2" d="m0.88158,47.20451l0.1,433.1l44.5,-3.6c0,0 34.4,-1.3 34.4,-1.3c0,0 34.8,-0.1 34.8,-0.1c0,0 17,-0.5 17,-0.5c0,0 24.7,0.6 24.7,0.6c0,0 30,0.6 30,0.6c0,0 16.9,0.1 16.9,0c0,-0.1 13,-2.1 13,-2.1c0,0 20.6,-3.9 20.6,-3.9c0,0 15.7,-5.9 15.7,-5.9c0,0 19,-8.6 19,-8.6c0,0 13.1,-7.4 13.1,-7.4c0,0 12.8,-8.8 12.9,-8.9c0.1,-0.1 13.5,-11.2 13.5,-11.2c0,0 10.4,-11.2 10.4,-11.2c0,0 9.2,-10.8 9.2,-10.8c0,0 8,-12.4 8,-12.4c0,0 9,-16.2 9,-16.2c0,0 5.9,-13.6 5.9,-13.7c0,-0.1 6.1,-16 6.1,-16c0,0 3.7,-15.3 3.7,-15.3c0,0 1.5,-17.5 1.9,-17.9c0.4,-0.4 0.7,-17.9 0.7,-17.9c0,0 -0.8,-14.1 -0.8,-14.1c0,0 -1.9,-15.9 -1.9,-15.9c0,0 -4.4,-16.6 -4.4,-16.6c0,0 -6.3,-17.6 -6.3,-17.6c0,0 -5.9,-12.2 -5.9,-12.2c0,0 -6.8,-12.8 -6.8,-12.8c0,0 -10.4,-15.5 -10.4,-15.5c0,0 -10,-11.6 -10,-11.6c0,0 -12.6,-13.1 -12.6,-13.1c0,0 -16.3,-12.1 -16.3,-12.1c0,0 -18.8,-12.1 -18.8,-12.1c0,0 -23.5,-14.1 -23.5,-14.1c0,0 -32.3,-19.2 -32.3,-19.2c0,0 -32.5,-21.2 -32.5,-21.2c0,0 -27.4,-20.2 -27.4,-20.2c0,0 -9.8,-8.7 -9.8,-8.8c0,-0.1 -15,-15.9 -15,-15.9c0,0 -13.8,-16 -13.8,-16.1c0,-0.1 -10.1,-10.9 -10.1,-10.9c0,0 -11.9,-7.5 -11.9,-7.5c0,0 -15.8,-5.8 -15.8,-5.8c0,0 -15.5,-1.2 -15.5,-1.2c0,0 -13.8,2.6 -13.8,2.6c0,0 -14.3,5.4 -14.3,5.4c0,0 -12,9.5 -12,9.5c0,0 -9.8,11 -9.9,10.9c-0.1,-0.1 -13.3,16.7 -13.3,16.7z" stroke-linecap="null" stroke-linejoin="null" stroke-dasharray="null" stroke-width="null" stroke="rgba(249, 236, 204, 0.9)" fill="rgba(249, 236, 204, 0.9)"/>
 </g>
</svg>