<svg width="350" height="500" xmlns="http://www.w3.org/2000/svg" xmlns:svg="http://www.w3.org/2000/svg">
 <g>
  <title>Layer 1</title>
  <path id="svg_3" d="m0.59442,28.11805c0,0 0,368.3 0,368.3c0,0 0,8.9 0,8.9c0,0 15.7,5.6 15.8,5.6c0.1,0 25.1,9.6 25.1,9.6c0,0 28.8,13.1 28.8,13.1c0,0 14.1,7 14.1,7c0,0 21.5,11.2 21.6,11.2c0.1,0 32.7,16.3 32.7,16.3c0,0 19.3,7.9 19.3,7.9c0,0 14.9,4 14.9,4c0,0 21,3.3 21,3.3c0,0 22.8,-0.4 22.8,-0.4c0,0 15.6,-2.2 15.6,-2.2c0,0 12,-3.7 12,-3.7c0,0 17.4,-7.1 17.4,-7.1c0,0 12.5,-6.7 12.6,-6.7c0.1,0 14.6,-11.4 14.6,-11.4c0,0 11,-10.7 11,-10.7c0,0 13.1,-17 13.4,-17.2c0.3,-0.2 9.2,-16.8 9.2,-16.8c0,0 6.9,-15.2 6.9,-15.2c0,0 3.8,-13.3 3.8,-13.3c0,0 3,-19.7 3,-19.7c0,0 1.3,-19.2 1.3,-19.2c0,0 -1,-15.5 -1,-15.5c0,0 -1.1,-8.4 -1.1,-8.4c0,0 -2.8,-15 -2.8,-15c0,0 -5.4,-17.3 -5.4,-17.3c0,0 -4,-8.6 -4,-8.6c0,0 -8.2,-17.5 -8.2,-17.5c0,0 -8.7,-15.7 -8.8,-15.7c-0.1,0 -6.3,-7.6 -6.3,-7.6c0,0 -11.6,-13.5 -11.6,-13.5c0,0 -16.9,-16.3 -16.9,-16.3c0,0 -17.7,-13.2 -17.7,-13.2c0,0 -27.5,-21.7 -27.5,-21.7c0,0 -42.7,-36 -42.7,-36c0,0 -16.8,-16.3 -16.8,-16.3c0,0 -11.5,-12.8 -11.5,-12.8c0,0 -10.5,-13.8 -10.5,-13.8c0,0 -9.7,-14.6 -9.8,-15c-0.1,-0.4 -9,-14.3 -9,-14.3c0,0 -13.7,-21.1 -13.7,-21.1c0,0 -10.9,-11.6 -10.9,-11.6c0,0 -10.3,-8.2 -10.3,-8.2c0,0 -11.8,-6 -11.8,-6c0,0 -16,-4.8 -16,-4.8c0,0 -13.6,-1.3 -13.6,-1.3c0,0 -13.8,1.2 -13.8,1.2c0,0 -17.2,7.9 -17.2,7.9c0,0 -9.5,5.6 -9.5,5.6c0,0 -8.5,5.2 -8.5,5.2z" stroke-linecap="null" stroke-linejoin="null" stroke-dasharray="null" stroke-width="null" stroke="rgba(189, 229, 241, 0.6)" fill="rgba(189, 229, 241, 0.6)"/>
 </g>
</svg>