<svg width="340" height="520" xmlns="http://www.w3.org/2000/svg" 
                    xmlns:svg="http://www.w3.org/2000/svg">  <g>
                     <title>Figure 3</title>
                     <path stroke="#98dbef" id="svg_2" d="m-0.02677,28.04229l-0.34239,468.22561l6.35506,
                     -2.17465l10.32174,-3.02452c0,0 11.12343,-2.69957 11.12343,-2.59959c0,0.09998 13.32808,
                     -3.09951 13.32808,-3.09951c0,0 16.53483,-3.29948 16.53483,-3.29948c0,0 13.5285,
                     -1.99968 13.5285,-1.99968c0,0 10.12132,-1.09983 10.12132,-1.09983c0,0 8.41773,
                     -0.79987 8.41773,-0.79987c0,0 15.73314,-0.89986 15.73314,-0.89986c0,0 11.7247,
                     -0.19997 11.7247,-0.19997c0,0 17.83758,0.49992 17.73737,0.49992c-0.10021,0 17.03589,
                     0.79987 17.03589,0.79987c0,0 10.22153,0.69989 10.12132,0.79987c-0.10021,
                     0.09998 12.32597,1.39978 12.32597,1.39978c0,0 19.04011,2.39962 19.04011,2.39962c0,
                     0 15.3323,2.39962 15.3323,2.39962c0,0 15.83336,2.89954 15.83336,2.89954c0,0 10.72259,
                     1.69973 10.72259,1.69973c0,0 7.71626,-0.19997 7.91668,-0.19997c0.20042,0 13.42829,
                     -1.09983 13.42829,-1.09983c0,0 11.22364,-2.89954 11.22364,-2.89954c0,0 9.82069,
                     -4.49929 9.82069,-4.49929c0,0 9.82069,-5.99905 9.82069,-5.99905c0,0 7.31541,
                     -5.29916 7.31541,-5.29916c0,0 7.2152,-7.59879 7.2152,-7.59879c0,0 2.90612,
                     -4.29932 2.90612,-4.29932c0,0 4.30908,-6.49897 4.30908,-6.49897c0,0 4.30908,
                     -8.49865 4.30908,-8.49865c0,0 3.6076,-9.89843 3.6076,-9.89843c0,0 2.00422,
                     -8.39867 2.00422,-8.39867c0,0 1.20253,-7.89875 1.20253,-7.89875c0,0 -0.20042,
                     -7.89875 -0.20042,-8.09871c0,-0.19997 -0.60127,-7.39882 -0.60127,-7.39882c0,0 -1.8038,
                     -9.89843 -1.8038,-9.99841c0,-0.09998 -3.20676,-8.59863 -3.20676,-8.59863c0,0 -3.70781,
                     -8.49865 -3.6076,-8.49865c0.10021,0 -3.30697,-5.99905 -3.6076,-5.99905c-0.30063,
                     0 -5.01056,-6.19902 -5.01056,-6.19902c0,0 -7.2152,-7.69878 -7.2152,-7.69878c0,
                     0 -6.01267,-5.49913 -6.01267,-5.49913c0,0 -6.81436,-6.49897 -6.81436,-6.49897c0,
                     0 -7.41562,-6.99889 -7.41562,-6.99889c0,0 -5.4114,-5.29916 -5.4114,-5.29916c0,
                     0 -7.41562,-7.29884 -7.41562,-7.29884c0,0 -7.01478,-6.69894 -7.01478,-6.69894c0,
                     0 -7.31541,-8.49865 -7.31541,-8.49865c0,0 -7.91668,-10.39835 -7.91668,-10.29836c0,
                     0.09998 -4.5095,-5.49913 -4.5095,-5.79908c0,-0.29995 -6.11288,-10.39835 -6.11288,
                     -10.39835c0,0 -6.91457,-13.39787 -6.91457,-13.39787c0,0 -5.51161,-12.69798 -5.51161,
                     -12.69798c0,0 -3.30697,-9.19854 -3.6076,-9.79844c-0.30063,-0.5999 -5.81224,
                     -17.09728 -6.01267,-16.69735c-0.20042,0.39994 -4.00844,-11.99809 -4.00844,
                     -11.99809c0,0 -4.70992,-14.29773 -4.91034,-15.39755c-0.20042,-1.09983 -5.71203,
                     -19.09697 -5.71203,-19.09697c0,0 -4.81013,-16.89732 -4.81013,-16.89732c0,0 -3.50739,
                     -13.59784 -3.50739,-13.59784c0,0 -3.90823,-15.39755 -3.90823,-15.49754c0,
                     -0.09998 -2.60549,-8.89859 -2.60549,-8.89859c0,0 -4.20887,-11.09824 -4.40929,
                     -11.29821c-0.20042,-0.19997 -5.31119,-11.19822 -5.4114,-11.09824c-0.10021,
                     0.09998 -4.40929,-6.99889 -4.40929,-6.99889c0,0 -5.61182,-8.49865 -5.61182,
                     -8.7986c0,-0.29995 -10.32174,-13.69782 -10.32174,-13.69782c0,0 -11.42407,
                     -11.29821 -11.42407,-11.29821c0,0 -10.8228,-8.7986 -10.92301,-8.89859c-0.10021,
                     -0.09998 -17.43673,-11.59816 -17.43673,-11.59816c0,0 -15.83336,-7.49881 -15.93357,
                     -7.49881c-0.10021,0 -13.22787,-4.79924 -13.22787,-4.79924c0,0 -7.01478,
                     -2.29963 -7.11499,-2.4996c-0.10021,-0.19997 -10.8228,-1.8997 -10.8228,
                     -1.8997c0,0 -13.42829,-2.29963 -13.42829,-2.29963c0,0 -14.33019,-0.19997 -14.33019,
                     -0.19997c0,0 -9.9209,0 -10.02111,0c-0.10021,0 -10.8228,1.09983 -10.8228,1.09983c0,
                     0 -13.58487,2.6152 -11.7247,2.69957z" fill="#98dbef"/>
                    </g>
                   </svg>