<svg xmlns="http://www.w3.org/2000/svg" width="125.341" height="248.549" viewBox="0 0 125.341 248.549"><defs><style>.a{fill:#474749;}.b{fill:#fff;}</style></defs><path class="a" d="M5624.628-3921.284c-.009-.07-.019-.143-.035-.228a3.147,3.147,0,0,0-.258-.774l-.08-.163-.051-.075a3.2,3.2,0,0,0-.339-.462c-.049-.056-.1-.11-.155-.162a2.9,2.9,0,0,0-.279-.249l-.053-.04-.082-.074-105.378-59.835a3.131,3.131,0,0,0-2.338-.312L5501.7-3980.1l-.255.065-.1.047a3.133,3.133,0,0,0-.446.211l-.235.133-.128.116a3.061,3.061,0,0,0-.385.35,2.78,2.78,0,0,0-.208.256,3.04,3.04,0,0,0-.272.432,2.749,2.749,0,0,0-.139.315c-.038.1-.07.2-.1.294l-.059.167-.033.264c0,.028-.006.055-.009.082l-.017.1v179.36a3.156,3.156,0,0,0,1.6,2.743l105.135,59.548a2.754,2.754,0,0,0,.382.179c.082.034.164.064.247.089a3.144,3.144,0,0,0,.926.142,3.139,3.139,0,0,0,.782-.1l13.9-3.562a3.151,3.151,0,0,0,2.368-3.053v-178.983A2.926,2.926,0,0,0,5624.628-3921.284Zm-3.757,168.077v10.794l-12.64,3.239v-177.681l3.622-.928,9.018-2.311Zm-104.6-226.724,103.558,58.8-12.142,3.111-103.558-58.8Zm-13.181,3.972,103.877,58.982v177.533l-103.877-58.835Z" transform="translate(-5499.312 3983.759)"/><path class="b" d="M5615.188-3900.036l-103.876-58.982v177.681l103.876,58.835Zm-93,52.036c0-.016,0-.031.005-.047s0-.024,0-.037.008-.022.011-.035a.594.594,0,0,1,.03-.1c.008-.022.016-.043.026-.064a.64.64,0,0,1,.061-.092c.013-.017.024-.035.038-.051a.644.644,0,0,1,.1-.083c.012-.009.023-.02.037-.028l.005,0a.627.627,0,0,1,.16-.065l0,0,16.887-4.272v-58.753a4.872,4.872,0,0,1,2.446-4.252,4.871,4.871,0,0,1,4.905-.023l35.975,20.466a14.168,14.168,0,0,1,7.149,12.291v62.271a.631.631,0,0,1-.477.611l-17.3,4.378a.618.618,0,0,1-.155.019.631.631,0,0,1-.387-.133.641.641,0,0,1-.092-.09l-49.105-27.83a.632.632,0,0,1-.318-.548Z" transform="translate(-5507.53 3966.817)"/><path class="b" d="M5604.883-3757.888l6.635,3.775-.018-11.53a3.926,3.926,0,0,1,1.747-3.606c1.276-.746,3.054-.581,4.877.452l17.673,10.015c3.371,1.91,6.016,6.129,6.021,9.6l.02,12.3,11,6.208v-57.513a12.905,12.905,0,0,0-6.511-11.2l-35.976-20.466a3.625,3.625,0,0,0-3.648.018,3.624,3.624,0,0,0-1.818,3.162Zm16.271-13.949-.514-.292v1.408l-.542-.307v-1.408l-.556-.316v-.446l1.611.915Zm-1.909-16.6,2.7,1.485v2.155l-2.887,1.986a11.926,11.926,0,0,0-2.243-4.034Zm-7.864-1.18c1.915-.217,4.7,1.827,6.231,4.371,1.426,2.366,1.511,4.383,1.174,5.411a3.243,3.243,0,0,1-1.8,2.167c-1.1.741-1.042,1.7-1.571,2.256-.618.656-1.954.1-3.006-.952l-.106-1.189a2.829,2.829,0,0,0,1.618,1.186c.594.086.754-.105,1.066-.759a3.336,3.336,0,0,1,1.336-1.6,3.016,3.016,0,0,0,1.653-3.039,8.276,8.276,0,0,0-2.259-4.754c-1.231-1.277-2.834-2.231-4.2-1.862-1.145.309-1.334,1.6-1.289,2.959l-1.02-1.091C5609.225-3787.947,5609.586-3789.416,5611.381-3789.619Zm.3,4.471-.886.137a2.721,2.721,0,0,1,.564-2.516c.434-.368,1.229-.607,2.534.089a7.154,7.154,0,0,1,3.012,3.313,4.269,4.269,0,0,1,.427,3.11l-1.113-.517c.237-.354.571-1.206-.312-2.878a4.236,4.236,0,0,0-3.021-2.319C5611.877-3786.768,5611.649-3785.815,5611.679-3785.148Zm-4.955,5.2,3.872-2.582,3.17,3.444-4.23,2.854-2.861-1.571Z" transform="translate(-5571.605 3871.843)"/><path class="b" d="M5600.815-3587.733l15.534-3.929-47.682-26.919-15.534,3.929Z" transform="translate(-5536.167 3733.695)"/><path class="b" d="M5597.813-3576.3l-48.012-27.1v2.077l48.012,27.21Z" transform="translate(-5533.886 3723.302)"/><path class="a" d="M5546.121-3751.7l49.1,27.83a.57.57,0,0,0,.091.09.631.631,0,0,0,.387.133.641.641,0,0,0,.155-.02l17.3-4.378a.63.63,0,0,0,.476-.611v-62.271a14.168,14.168,0,0,0-7.148-12.291l-35.975-20.466a4.871,4.871,0,0,0-4.905.023,4.871,4.871,0,0,0-2.446,4.252v58.752l-16.887,4.272,0,0a.63.63,0,0,0-.159.065l-.006,0c-.013.008-.023.02-.036.028a.61.61,0,0,0-.1.083c-.015.016-.025.034-.039.051a.627.627,0,0,0-.061.092.545.545,0,0,0-.026.064.632.632,0,0,0-.03.1c0,.012-.008.022-.011.035s0,.024,0,.037-.006.031-.006.046v3.524A.629.629,0,0,0,5546.121-3751.7Zm20.123-70.87a3.624,3.624,0,0,1,3.648-.017l35.976,20.466a12.9,12.9,0,0,1,6.511,11.195v57.514l-11-6.209-.02-12.3c-.006-3.475-2.651-7.693-6.021-9.6l-17.674-10.016c-1.823-1.033-3.6-1.2-4.877-.452a3.926,3.926,0,0,0-1.748,3.606l.019,11.53-6.634-3.775V-3819.4A3.624,3.624,0,0,1,5566.243-3822.567Zm-19.182,67.877,48.011,27.105v2.182l-48.011-27.21Zm25.241-13.7a2.736,2.736,0,0,1,1.123-2.515c.878-.513,2.2-.345,3.619.46l17.674,10.015c2.963,1.679,5.377,5.5,5.382,8.509l.018,11.535-27.8-15.752Zm-8.656,8.915,47.681,26.919-15.533,3.929-47.682-26.918Zm32.689,34.389v-2.377l16.043-4.059v2.377Z" transform="translate(-5531.146 3874.586)"/><path class="b" d="M5722.155-3529.9l-16.044,4.059v2.377l16.044-4.058Z" transform="translate(-5640.922 3672.969)"/><path class="b" d="M5657.689-3624.958l-.019-11.535c0-3.013-2.419-6.83-5.381-8.509l-17.673-10.016c-1.422-.805-2.742-.974-3.62-.46a2.734,2.734,0,0,0-1.123,2.515l.02,12.252Z" transform="translate(-5588.717 3759.16)"/><path class="a" d="M5620.916-3721.714c1.365-.369,2.968.585,4.2,1.862a8.272,8.272,0,0,1,2.259,4.754,3.015,3.015,0,0,1-1.653,3.039,3.328,3.328,0,0,0-1.335,1.6c-.312.654-.474.844-1.068.759a2.836,2.836,0,0,1-1.617-1.186l.106,1.189c1.053,1.056,2.387,1.608,3.006.952.53-.561.474-1.515,1.573-2.256a3.246,3.246,0,0,0,1.8-2.167c.336-1.029.251-3.045-1.174-5.412-1.533-2.544-4.318-4.587-6.232-4.371-1.8.2-2.158,1.672-2.173,3.1l1.02,1.091C5619.581-3720.115,5619.771-3721.4,5620.916-3721.714Z" transform="translate(-5581.002 3805.175)"/><path class="a" d="M5625.591-3716.258a4.233,4.233,0,0,1,3.021,2.32c.883,1.672.549,2.524.313,2.878l1.114.517a4.271,4.271,0,0,0-.427-3.11,7.152,7.152,0,0,0-3.013-3.313c-1.305-.7-2.1-.457-2.534-.088a2.72,2.72,0,0,0-.564,2.516l.886-.137C5624.356-3715.342,5624.585-3716.3,5625.591-3716.258Z" transform="translate(-5584.313 3801.371)"/><path class="a" d="M5617.658-3696.981l-3.171-3.444-3.872,2.582-.048,2.145,2.861,1.571Z" transform="translate(-5575.497 3789.739)"/><path class="a" d="M5651.389-3670.38l.557.316v1.408l.54.307v-1.408l.515.292v-.446l-1.612-.915Z" transform="translate(-5603.451 3769.47)"/><path class="a" d="M5647.854-3715.532v-2.155l-2.7-1.485-2.434,1.592a11.91,11.91,0,0,1,2.242,4.034Z" transform="translate(-5597.518 3802.577)"/><path class="b" d="M5848.463-3779.482l-3.621.928v177.681l12.639-3.239v-177.681Z" transform="translate(-5735.922 3845.458)"/><path class="b" d="M5618.165-3909.7l12.141-3.112-103.558-58.8-12.141,3.112Z" transform="translate(-5509.786 3975.444)"/></svg>