<svg width="270" height="390" xmlns="http://www.w3.org/2000/svg" xmlns:svg="http://www.w3.org/2000/svg">
 <g>
  <title>Layer 1</title>
  <path id="svg_2" d="m269.23096,375.74988l-0.2,-323.4l-31.3,-6.9c0,0 -24.4,-8 -24.4,-8c0,0 -22.8,-8.1 -22.8,-8.1c0,0 -30.1,-10.9 -30.1,-10.9c0,0 -26.3,-9.9 -26.3,-9.9c0,0 -14.1,-3 -14.1,-3c0,0 -16.6,-0.4 -16.6,-0.4c0,0 -16.6,1.7 -16.6,1.7c0,0 -19.2,5.9 -19.2,5.9c0,0 -14.4,8.3 -14.4,8.3c0,0 -12.9,9.6 -12.9,9.6c0,0 -8.1,8.6 -8.1,8.6c0,0 -10,13.8 -10,13.8c0,0 -8.2,16.9 -8.2,16.9c0,0 -3.9,13.5 -3.9,13.5c0,0 -2.1,15.1 -2.1,15.1c0,0 0.4,12.8 0.4,12.8c0,0 2.2,13.4 2.2,13.4c0,0 6.6,21.9 6.6,21.9c0,0 5.8,9 5.8,9c0,0 7.3,11 7.3,11c0,0 16.9,17 16.9,17c0,0 14.1,13.3 14.1,13.3c0,0 25.3,25.6 25.3,25.6c0,0 20,21.5 20,21.5c0,0 14.1,16.9 14.1,16.9c0,0 11.3,15 11.3,15c0,0 10.2,15.4 10.2,15.4c0,0 11.2,25.9 11.2,25.9c0,0 9.4,19.6 9.4,19.6c0,0 5,6.1 5,6.1c0,0 6.7,5.5 6.7,5.5c0,0 7.3,4 7.3,4c0,0 18.1,3.7 18.1,3.7c0,0 18.2,3.8 18.2,3.8c0,0 23.1,6.1 23.1,6.1c0,0 28,9.7 28,9.7z" stroke-linecap="null" stroke-linejoin="null" stroke-dasharray="null" stroke-width="null" stroke="rgba(185, 215, 233, 0.6)" fill="rgba(185, 215, 233, 0.6)"/>
 </g>
</svg>