<svg xmlns="http://www.w3.org/2000/svg" width="435.64" height="394.188" viewBox="0 0 435.64 394.188"><defs><style>.a{fill:#b28b67;}.a,.b,.c,.d,.e,.f,.g,.h,.i,.j,.k,.l,.m,.o,.p,.q{fill-rule:evenodd;}.b{fill:#191847;}.c{fill:#997659;}.d{fill:#e4e4e4;}.e{fill:#97bf99;}.f{fill:#c1f5c3;}.g{fill:#b9d7e9;}.h{fill:rgba(0,0,0,0.2);}.i{fill:#facfa7;}.j,.n{fill:#0c2245;}.k{fill:#393939;}.l{fill:#696969;}.m{fill:#124057;}.o{fill:#ba94a1;}.p{fill:#e0e0e0;}.q{fill:#e9b9c9;}</style></defs><g transform="translate(-43.054 -1722)"><g transform="translate(43.054 1722)"><g transform="translate(32.609)"><g transform="translate(14.804 15.605)"><path class="a" d="M171.018,40.03c5.558,10.36,4.9,36.636-2.286,38.488-2.864.739-8.967-1.07-15.177-4.814l3.9,27.579H134.435l7.924-36.934c-4.419-5.188-7.41-11.546-6.91-18.669C136.888,25.156,165.461,29.671,171.018,40.03Z" transform="translate(-134.435 -31.27)"/></g><path class="b" d="M126.282,37.924a7.185,7.185,0,0,1-1.5-2.787,28.338,28.338,0,0,1-.961-3.165c-.482-2.157-.487-4.638,1.051-6.313a7.241,7.241,0,0,1,4.8-2.077,8.817,8.817,0,0,1,3.4.432c1.083.356,2.016,1.066,3.066,1.506a13.722,13.722,0,0,1,1.618-6.742,6.718,6.718,0,0,1,5-3.265,9.917,9.917,0,0,1,6.1,1.228c.474.256.944.525,1.394.829a3.9,3.9,0,0,0,1.208.666c.493.115.737-.169,1.056-.528a8.086,8.086,0,0,1,1.245-1.12,7.332,7.332,0,0,1,6.863-1.18,6.373,6.373,0,0,1,2.8,2.022c.639.837,1.094,2.166,1.975,2.75.374.247.638-.081.978-.323.511-.364,1-.766,1.516-1.121a6.969,6.969,0,0,1,2.356-1.066c1.234-.285,2.939-.219,3.292,1.4a6.7,6.7,0,0,1-.012,1.868c-.059.839-.12,1.678-.193,2.518a18.346,18.346,0,0,1-.246,1.876,2.748,2.748,0,0,0-.122,1.289c.178.417,1,.179,1.355.194a5.355,5.355,0,0,1,2.037.448,2.2,2.2,0,0,1,1.232,1.14,2.057,2.057,0,0,1,.035,1.073,3.163,3.163,0,0,0,.065,1.1c.934-.46,4.171-1.482,4.578.192a2.613,2.613,0,0,1-.409,1.657,14.379,14.379,0,0,1-1.509,2.3,20.56,20.56,0,0,1-4.019,3.9,2.634,2.634,0,0,1,.688,4.411,3.261,3.261,0,0,1-2.4.7,5.246,5.246,0,0,0-.991-.079,2.337,2.337,0,0,1-.449.151,13.333,13.333,0,0,1-3.676-.466,12.126,12.126,0,0,1-5.6-2.931,1.727,1.727,0,0,0-1.3-.6c-.481,0-.955.137-1.437.15a10.379,10.379,0,0,1-3.606-1.005,13.641,13.641,0,0,1-1.182,4.8c-.533,1.172-1.647,1.343-2.741,1.445-3.5.33-7.011-.037-10.515-.033,3.392.766,6.9,1.083,10.258,1.984,1.519.408.359,1.432-.291,2.142a12.351,12.351,0,0,0-2.417,4.144c-1.659-2.163-4.592-3.588-7.19-2.923-2.871.734-4.892,4.616-3.057,7.407,1.067,1.62,2.99,2.245,4.592,2.942-1.249,1.3-1.552,3.217-2.3,4.833a3.453,3.453,0,0,1-1.721,1.976,2,2,0,0,0-.908.362c-.3.31-.371.656-.755.923a4.253,4.253,0,0,1-5.269-.407,3.439,3.439,0,0,1,.117-4.509c-1.629-.679-4.6-1.552-3.948-4.089-3.529-.234-12.1-5.957-7.36-10.139-2.6-1.468-4.986-5.058-3.317-8.222" transform="translate(-119 -15)"/></g><g transform="translate(0 164.964)"><g transform="translate(41.241)"><path class="c" d="M128,187l36.092,117.992,17.483,100.344h13.708L176.809,187Z" transform="translate(-128 -187)"/></g><g transform="translate(1.5)"><path class="a" d="M113.394,187c2.451,64.784-.434,98.2-.982,104.087s-8.062,44.05-25.848,116.225l14.607-5.016C129.28,336.1,138.859,301.7,142.082,293s11.786-44.027,25.687-106Z" transform="translate(-86.564 -187)"/></g><g transform="translate(0 209.401)"><path class="d" d="M89.237,410.147a1.919,1.919,0,0,0-2.65.978A22.026,22.026,0,0,0,85,417.583a61.62,61.62,0,0,0,.864,7.571h54.095s2.109-6.971-2.434-7.527-7.548-1-7.548-1l-25.143-11.209a.959.959,0,0,0-1.278.51l-1.616,3.921s-4.206,1.962-6.834,1.962A15.793,15.793,0,0,1,89.237,410.147Z" transform="translate(-85 -405.332)"/></g><g transform="translate(90.155 209.401)"><path class="d" d="M183.237,410.147a1.919,1.919,0,0,0-2.65.978A22.026,22.026,0,0,0,179,417.583a61.621,61.621,0,0,0,.864,7.571h54.095s2.109-6.971-2.434-7.527-7.548-1-7.548-1l-25.143-11.209a.959.959,0,0,0-1.277.51l-1.616,3.921s-4.206,1.962-6.834,1.962A15.793,15.793,0,0,1,183.237,410.147Z" transform="translate(-179 -405.332)"/></g><g transform="translate(36.446)"><path class="e" d="M123,187l15.345,60.116h46.871L178.228,187Z" transform="translate(-123 -187)"/></g><g transform="translate(23.497)"><path class="f" d="M113.816,187c-7.574,22.7-2.877,60.116-2.877,60.116h47.83L171.922,187Z" transform="translate(-109.499 -187)"/></g></g><g transform="translate(18.981 64.259)"><path class="g" d="M199.682,195.426c-18.214,37.934-94.891,12.321-94.891,12.321,0-13.622,11.2-27.315,11.553-43.878.34-15.767,3.288-63.538,15.591-79.676q.337-1.093.682-2.193l.852.4c.133-.137.267-.27.4-.4l26.845,4.151c0,15.1,12.013,29.222,19.612,41.375,1.948,3.115,4.146,6.286,6.4,9.535C198.134,153.519,210.937,171.987,199.682,195.426Z" transform="translate(-104.791 -82)"/><g transform="translate(60.492 56.857)"><path class="a" d="M200.459,145.908c-2.192-3.093-4.184-4.626-7.891-4.626-2.107,0-1.678.573-.916,1.591a5.264,5.264,0,0,1,1.35,3.035c0,2.853-10.062,4.458-10.062,8.248s14.746,9.428,18.266,9.428,1.444-14.584-.747-17.676Zm-29.1,26.216-3.494,18.557q12.582,9.013,13.993,10.629c.314.36.687.806,1.106,1.307,2.772,3.316,7.575,9.061,10.83,8.409,7.848-1.571,11.954-12.374,10.5-16.69-.38-.45-1.171-.015-2.283.6a10.382,10.382,0,0,1-5.867,1.717q-3.333-.282-24.787-24.524Z" transform="translate(-167.863 -141.282)"/></g><g transform="translate(15.546 17.953)"><path class="h" d="M128.256,100.719c-9.415,39.258-5.58,72.367,30.2,102.4-.42,1.509-.672,2.41-.672,2.41C115.783,176.173,115.763,140.6,128.256,100.719Z" transform="translate(-121 -100.719)"/></g></g></g><g transform="matrix(0.999, 0.035, -0.035, 0.999, 230.599, 1790)"><g transform="translate(114.523 22.159)"><g transform="translate(0 0)"><path class="i" d="M6.266,6.2C-.2,15.3-2.709,40.145,3.839,42.743c2.612,1.037,8.577.058,14.874-2.73L11.759,65.537l21.69,2.739L30.377,32.531c4.781-4.362,8.357-10,8.733-16.769C40.2-3.75,12.736-2.9,6.266,6.2Z"/></g></g><g transform="translate(118.828 0)"><g transform="translate(0 0)"><path class="j" d="M11.87,18.814a28.556,28.556,0,0,1,9.2.143,15.731,15.731,0,0,1-.108-8.03c.652-2.56,2.093-4.627,3.461-6.811A9.846,9.846,0,0,1,26.692,1.4,6.527,6.527,0,0,1,29.963.146,8.272,8.272,0,0,1,33.492.59c.5.172.93.465,1.417.66s.789-.093,1.2-.37A6.5,6.5,0,0,1,39.64,0,8.733,8.733,0,0,1,43.41.942a7.546,7.546,0,0,1,2.929,2.445,5.411,5.411,0,0,1,.771,1.585c.064.234.063.367.274.476.2.1.435.134.639.232a8.332,8.332,0,0,1,4.208,4.908,13.774,13.774,0,0,1,.039,5.705c-.368,2.329-3.25,8.165-5.507,10.141a13.371,13.371,0,0,1-7.345,3.006,19.765,19.765,0,0,1,2.739,7.133,32.951,32.951,0,0,1,.615,8.321,26.716,26.716,0,0,1-1.417,7.948A8.739,8.739,0,0,1,36.765,58,18.611,18.611,0,0,1,33.6,59.022a19.893,19.893,0,0,1-3.2.6c-2.05.16-4.343-.2-5.681-1.986a11.054,11.054,0,0,1-1.317-2.193c-.114-.27-.18-.445.027-.67a4.775,4.775,0,0,1,.921-.647,7.849,7.849,0,0,0,3.405-4.81c.513-2.086.29-4.89-1.652-6.073-2.4-1.462-5.36-.506-7.772.429a12.519,12.519,0,0,0-5.01-8.75c-3.2-2.151-7.1-2.848-10.424-4.765A6.529,6.529,0,0,1,.584,28.234a3.281,3.281,0,0,1-.575-1.276C-.068,26.37.36,25.94.7,25.532,2.5,23.373,8.792,19.344,11.87,18.814Z" transform="translate(0 0)"/></g></g><g transform="translate(19.87 176.877)"><g transform="translate(0 0)"><path class="i" d="M30.782,56c1.7,18.529,0,58.357-.911,69.846-.573,7.221-10.414,5.331-11.332-.448S.026,28.092,0,8.813C-.01,1.469,16.338-4.4,22.879,4.468,28.256.69,35.888-.322,40.594,7.306c3.563,5.775,12.027,22.17,21.054,41.314C69.556,65.392,81.913,106.1,81.913,106.1L71.422,110.9S45.509,69.234,29.192,40.022C29.734,45.048,30.273,50.43,30.782,56Z" transform="translate(0 0)"/></g></g><g transform="translate(34.911 177.285)"><g transform="translate(0 0)"><path class="k" d="M66.121,90.623,30.116,5.326C21.489-8.549-2.695,8.15.246,16.2c6.678,18.27,40.642,77.421,42.633,82.865Z"/></g></g><g transform="translate(18.959 165.089)"><g transform="translate(0 0)"><path class="l" d="M0,27.26c0,24.177,10.6,81.007,10.6,86.331l25.672-.865S29.545,38.609,30.6,38.107c1.581-.753,64.809,8.751,83.772,9.469C141.715,48.61,153.027,31.835,153.945,0H100.977s-67.938,8.109-89.3,11.28C2.527,12.638,0,20.6,0,27.26Z" transform="translate(0 0)"/></g></g><g transform="translate(55.821 279.013)"><g transform="translate(0 0)"><path class="d" d="M44.728.97a1.822,1.822,0,0,1,2.667.291,20.908,20.908,0,0,1,2.947,5.588,58.369,58.369,0,0,1,.943,7.176L1.434,26.455s-3.545-5.94.514-7.5S8.673,16.3,8.673,16.3L29.268.193A.911.911,0,0,1,30.562.37l2.39,3.242s4.327.842,6.75.238A15.012,15.012,0,0,0,44.728.97Z"/></g></g><g transform="translate(0 283.582)"><g transform="translate(0 0)"><path class="d" d="M48.638,4.573a1.823,1.823,0,0,1,2.517.929,20.92,20.92,0,0,1,1.508,6.134,58.526,58.526,0,0,1-.821,7.191H.464s-2-6.621,2.312-7.149,7.169-.953,7.169-.953L33.825.079a.911.911,0,0,1,1.213.485l1.535,3.724s3.994,1.864,6.491,1.864A15,15,0,0,0,48.638,4.573Z"/></g></g><g transform="translate(69.059 170.326)"><g transform="translate(0 0)"><path class="m" d="M106.578,0H9.109A9.114,9.114,0,0,0,0,9.109V53.744H112.043a3.645,3.645,0,0,0,3.644-3.644V9.109A9.114,9.114,0,0,0,106.578,0Z"/></g></g><g transform="translate(47.197 170.326)"><g transform="translate(0 0)"><path class="m" d="M30.971,0h-2a9.11,9.11,0,0,0-8.989,7.634L0,129.351H9.734"/></g></g><g transform="translate(35.355 285.102)"><g transform="translate(0 0)"><ellipse class="n" cx="16.397" cy="16.397" rx="16.397" ry="16.397" transform="translate(0 0)"/></g></g><g transform="translate(102.763 175.029)"><g transform="translate(0 0)"><path class="j" d="M0,69.23a69.23,69.23,0,1,1,69.23,69.23A69.262,69.262,0,0,1,0,69.23Zm12.753,0A56.477,56.477,0,1,1,69.23,125.707,56.5,56.5,0,0,1,12.753,69.23Z" transform="translate(0 0)"/></g><g transform="translate(65.586 9.109)"><g transform="translate(0 0)"><rect class="n" width="7.287" height="120.241" transform="translate(0 0)"/></g></g><g transform="translate(24.897 24.897)"><g transform="translate(0)"><path class="j" d="M3.11.534.534,3.11a1.821,1.821,0,0,0,0,2.576L82.98,88.133a1.823,1.823,0,0,0,2.577,0l2.576-2.576a1.823,1.823,0,0,0,0-2.577L5.687.534A1.823,1.823,0,0,0,3.11.534Z"/></g></g><g transform="translate(9.109 65.586)"><g transform="translate(0 0)"><path class="j" d="M0,1.822V5.466A1.823,1.823,0,0,0,1.822,7.287h116.6a1.822,1.822,0,0,0,1.822-1.822V1.822A1.822,1.822,0,0,0,118.419,0H1.822A1.823,1.823,0,0,0,0,1.822Z" transform="translate(0 0)"/></g></g><g transform="translate(24.897 24.896)"><g transform="translate(0)"><path class="j" d="M.534,85.557,3.11,88.133a1.823,1.823,0,0,0,2.577,0L88.133,5.686a1.821,1.821,0,0,0,0-2.576L85.557.533a1.824,1.824,0,0,0-2.577,0L.534,82.98A1.823,1.823,0,0,0,.534,85.557Z" transform="translate(0 0)"/></g></g></g><g transform="translate(21.996 69.214)"><g transform="translate(0 42.813)"><path class="i" d="M52.529,27.89l-33.007-14.5L2.772.257C1.162-.256-1.589-.411,1.346,3.876S7.175,12.8,6,14.306c-.514.658-1.454.71-2.461.765-1.293.072-2.7.149-3.451,1.522q-1.343,2.443,17.179,5.845l24.72,18.953,10.539-13.5Zm126.825,5.25-18.286,5.27,34.8,52.87c2.991,3.851,1.8,11.017,1,15.876-.125.751-.24,1.447-.33,2.069,3.163.458,4.079-1.442,5.046-3.444,1.092-2.263,2.247-4.656,6.773-3.932,1.748.28,3.452.714,5.115,1.139,5.746,1.466,11.024,2.812,16.108-2.74.806-.88,1.232-3.453-1.858-4.493-7.7-2.589-19.186-7.685-21.163-9.873l-27.2-52.741Z" transform="translate(0 0)"/></g><g transform="translate(23.175 3.506)"><g transform="translate(0)"><path class="o" d="M93.4,1.351,85.519,0C68.363,16.643,61.361,56.626,49.928,61.918c-10.81,5-26.134.162-44.349-6.376L0,68.006c16.55,17.905,51.809,33.032,66.1,24.4C88.949,78.6,94.224,29.282,93.4,1.351Z" transform="translate(0 0)"/></g></g><g transform="translate(78.718 0)"><g transform="translate(0)"><path class="p" d="M72.19,103.845H2.495c-3.185,0-2.585-4.6-2.124-6.919C5.683,70.145,26.425,41.276,26.425,3.153L46.528,0C63.156,26.743,68.906,59.67,72.19,103.845Z" transform="translate(0 0)"/></g></g><g transform="translate(100.523 0)"><g transform="translate(0)"><path class="q" d="M107.773,129.222S95.091,77.456,79.541,55.339C62.227,24.58,26.02,0,26.02,0H18.06S-9.011,92.281,3.134,122.974H65.871C64.878,108,61.7,92.168,57.336,76.73c0,0,10.582,20.549,14.833,27.115s21,28.239,21,28.239Z"/></g></g></g></g></g></svg>