<svg width="220" height="340" xmlns="http://www.w3.org/2000/svg" xmlns:svg="http://www.w3.org/2000/svg">
 <g>
  <title>Layer 1</title>
  <path id="svg_3" d="m219.25078,287.94842l0.2,-278.5l-8.5,-1l-12.8,-0.7l-14.3,2.1l-16.6,5.2c0,0 -16.6,8.9 -16.6,8.9c0,0 -14.9,12.5 -14.9,12.5c0,0 -13,14.4 -13,14.4c0,0 -10.2,12 -10.2,12c0,0 -16.5,18.3 -16.5,18.3c0,0 -10.7,9.3 -10.7,9.3c0,0 -15.9,14.1 -15.9,14.1c0,0 -9.2,11.2 -9.1,11.2c0.1,0 -4.8,15.2 -4.8,15.2c0,0 -2.9,18.9 -2.9,18.9c0,0 -5.6,26.2 -5.5,26.2c0.1,0 -6.4,18.1 -6.4,18.1c0,0 -12.6,23.5 -12.6,23.5c0,0 -9.4,17.1 -9.4,17.1c0,0 -4.8,15.1 -4.8,15.2c0,0.1 -0.4,16.5 -0.4,16.5c0,0 4.5,16.6 4.5,16.6c0,0 9.1,14.8 9.1,14.8c0,0 9.9,9.4 9.9,9.4c0,0 18.2,8.7 18.2,8.7c0,0 20.4,2.4 20.4,2.4c0,0 18.6,-3.5 18.6,-3.5c0,0 18.5,-6.2 18.5,-6.1c0,0.1 20.7,-5.5 20.7,-5.5c0,0 22.1,-5.1 22.1,-5.1c0,0 15.2,-3.2 15.2,-3.2c0,0 25.6,-4.2 25.6,-4.2c0,0 22.9,-2.8 22.9,-2.8z" stroke="rgba(205, 249, 219, 0.6)" fill="rgba(205, 249, 219, 0.6)"/>
 </g>
</svg>