<svg xmlns="http://www.w3.org/2000/svg" width="160.777" height="262.446" viewBox="0 0 160.777 262.446"><defs><style>.a{fill:none;}.b{fill:#474749;}.c{fill:#fff;}</style></defs><path class="a" d="M1741.84-5754.121v19.976a10.018,10.018,0,0,0,9.987-9.873A10.007,10.007,0,0,0,1741.84-5754.121Z" transform="translate(-1615.13 5910.313)"/><path class="b" d="M1455.08-6036.158l-56.3-31.811v-142.238l39.39,22.324.029.022a3.031,3.031,0,0,0,2.575.542l16.437-4.158a2.992,2.992,0,0,0,2.26-2.9v-9.481a2.588,2.588,0,0,0-.024-.35,2.256,2.256,0,0,0-.034-.226,2.991,2.991,0,0,0-.237-.72l-.086-.184-.074-.1a3.12,3.12,0,0,0-.3-.4c-.046-.052-.093-.1-.145-.151a2.647,2.647,0,0,0-.256-.23l-.065-.048-.079-.069-47.03-26.552a2.976,2.976,0,0,0-2.2-.293l-7.942,2.009-2.217-1.243v-9.672c.086-2-1.091-3.866-3.243-5.142a13.807,13.807,0,0,0-5.937-1.72,15.471,15.471,0,0,0-3.095.081l-46.934-26.5a2.98,2.98,0,0,0-2.2-.294l-16.437,4.158-.346.1-.057.031a2.858,2.858,0,0,0-.353.173l-.231.132-.115.1a2.859,2.859,0,0,0-.353.321,2.651,2.651,0,0,0-.212.26,2.928,2.928,0,0,0-.261.417,2.9,2.9,0,0,0-.13.3q-.049.129-.086.26l-.059.163-.033.27c0,.021,0,.042-.007.064l-.016.092v9.552a3,3,0,0,0,1.518,2.6l46.41,26.3.029.022a3.032,3.032,0,0,0,2.575.542l7.915-2,2.549,1.429v162.144l-55.722,14.257a2.981,2.981,0,0,0-2.227,2.507,2.981,2.981,0,0,0,1.5,3l61.525,34.762a3,3,0,0,0,1.475.388,3,3,0,0,0,.743-.093l67.4-17.244a2.98,2.98,0,0,0,2.226-2.507A2.98,2.98,0,0,0,1455.08-6036.158ZM1393.832-6225.1l45.606,25.747v8.062l-45.606-25.847Zm46.8,25.863,15.24-3.855v8.246l-15.24,3.855Zm-46.8-27.66-4.227-2.369-.165-.1a2.362,2.362,0,0,1,.536-1.831c.659-.982,1.406-1.265,1.535-1.18a.505.505,0,0,0,.079.044l7.374,4.134Zm56.087,24.074-9.8,2.48-45.292-25.57,14.755-3.732,45.292,25.569Zm-54.74-39.351v10.483l-3.033-1.7-.022-.012c-.862-.515-2.2.136-3.142,1.542-.9,1.334-1.038,2.73-.348,3.395a.592.592,0,0,0,.112.084l.263.154,3.625,2.032c0,.008,0,.016,0,.024s-.006.029-.006.043v9.336a.6.6,0,0,0,.3.521l2.246,1.272v171.833l-.009.715c-.365,1.166-2.774,2.255-6.125,2.014a10.069,10.069,0,0,1-4.321-1.215c-.978-.58-1.514-1.275-1.468-1.906a.644.644,0,0,0-.005-.116V-6243.1c.117-1.3,2.578-2.52,6.084-2.269a10.171,10.171,0,0,1,4.362,1.227c.989.586,1.53,1.289,1.484,1.928C1395.184-6242.2,1395.184-6242.188,1395.184-6242.174Zm-16.831-3.127-9.8,2.48-45.292-25.57,14.755-3.732,45.292,25.569Zm-56.092-22.278,45.606,25.747v8.062l-45.606-25.847Zm46.8,25.864,14.432-3.65a2.943,2.943,0,0,0-1.435,2.2c0,.014,0,.028,0,.042v4.432l-4.585-2.571-.023-.012a1.641,1.641,0,0,0-1.686.124,4.552,4.552,0,0,0-1.456,1.417c-.895,1.335-1.037,2.73-.346,3.4a.592.592,0,0,0,.112.085l.263.154,1.6.895-6.87,1.738Zm5.868,4.574-.165-.1a2.362,2.362,0,0,1,.535-1.831,3.385,3.385,0,0,1,1.053-1.043c.283-.161.452-.156.482-.136a.708.708,0,0,0,.08.044l5.142,2.882v4.174Zm7.127,172.011v21.507a.522.522,0,0,0,0,.057c-.043,1.09.684,2.134,2.056,2.948a11.29,11.29,0,0,0,4.846,1.379q.517.037,1.016.037c3.309,0,5.918-1.2,6.375-3.014a.611.611,0,0,0,.018-.139l.01-.8V-6065.2l55.635,31.433-65.722,16.816-60.021-33.912Z" transform="translate(-1318.667 6275.758)"/><path class="b" d="M1733.924-5821.267a2.362,2.362,0,0,0,2.338,2.529,2.4,2.4,0,0,0,2.411-2.555q.017-5.383,0-10.767a2.411,2.411,0,0,0-2.36-2.536,2.385,2.385,0,0,0-2.386,2.562c-.01,1.808,0,3.614,0,5.421C1733.921-5824.831,1733.911-5823.049,1733.924-5821.267Z" transform="translate(-1609.58 5966.693)"/><path class="b" d="M1630.536-5728.67a2.383,2.383,0,0,0-2.54,2.335,2.418,2.418,0,0,0,2.561,2.411q5.383.023,10.767,0a2.392,2.392,0,0,0,2.53-2.359,2.364,2.364,0,0,0-2.552-2.39c-1.782-.012-3.564,0-5.346,0C1634.15-5728.673,1632.343-5728.681,1630.536-5728.67Z" transform="translate(-1535.374 5892.488)"/><path class="b" d="M1815.96-5728.671c-1.782-.006-3.564,0-5.347,0s-3.564-.005-5.347,0a2.4,2.4,0,0,0-2.609,2.341,2.413,2.413,0,0,0,2.567,2.408q5.384.025,10.768,0a2.373,2.373,0,0,0,2.522-2.436A2.372,2.372,0,0,0,1815.96-5728.671Z" transform="translate(-1657.738 5892.486)"/><path class="b" d="M1733.921-5646.575a2.363,2.363,0,0,0,2.3,2.5,2.352,2.352,0,0,0,2.448-2.432q.042-5.495,0-10.99a2.375,2.375,0,0,0-2.385-2.434,2.383,2.383,0,0,0-2.356,2.518c-.011,1.782,0,3.564,0,5.347C1733.919-5650.239,1733.911-5648.407,1733.921-5646.575Z" transform="translate(-1609.579 5844.329)"/><path class="b" d="M1782.513-5793.677a2.462,2.462,0,0,0,1.448,2.5,2.26,2.26,0,0,0,2.656-.535q3.894-3.877,7.768-7.773a2.362,2.362,0,0,0,.035-3.4,2.38,2.38,0,0,0-3.4.05c-2.6,2.577-5.2,5.159-7.758,7.783A4.879,4.879,0,0,0,1782.513-5793.677Z" transform="translate(-1643.625 5944.954)"/><path class="b" d="M1660.439-5667.658a2.238,2.238,0,0,0,2.6-.495q3.926-3.9,7.823-7.823a2.34,2.34,0,0,0,.02-3.392,2.384,2.384,0,0,0-3.4.061c-2.6,2.578-5.2,5.159-7.757,7.783a4.931,4.931,0,0,0-.753,1.375A2.474,2.474,0,0,0,1660.439-5667.658Z" transform="translate(-1557.076 5858.421)"/><path class="b" d="M1667.447-5791.792a2.346,2.346,0,0,0,3.443.113,2.349,2.349,0,0,0-.067-3.443c-1.037-1.062-2.1-2.1-3.146-3.155q-2.283-2.285-4.57-4.566a2.279,2.279,0,0,0-2.658-.546,2.473,2.473,0,0,0-1.46,2.51,5.4,5.4,0,0,0,.8,1.409C1662.315-5796.881,1664.883-5794.338,1667.447-5791.792Z" transform="translate(-1557.088 5944.979)"/><path class="b" d="M1786.577-5679.37a4.977,4.977,0,0,0-1.39-.755,2.479,2.479,0,0,0-2.472,1.476,2.25,2.25,0,0,0,.5,2.6q3.9,3.925,7.823,7.819a2.344,2.344,0,0,0,3.391,0,2.338,2.338,0,0,0-.024-3.337C1791.818-5674.183,1789.218-5676.8,1786.577-5679.37Z" transform="translate(-1643.62 5858.474)"/><path class="b" d="M1721.618-5756.037a15.085,15.085,0,0,0-15-15.066,15.108,15.108,0,0,0-15.122,15.038,15.1,15.1,0,0,0,14.834,15.09A15.05,15.05,0,0,0,1721.618-5756.037Zm-15.05,9.994v-19.975a10.006,10.006,0,0,1,9.986,10.1A10.016,10.016,0,0,1,1706.567-5746.043Z" transform="translate(-1579.858 5922.21)"/><path class="c" d="M1334-6259.887l45.292,25.57,9.8-2.48,4.953-1.253-45.292-25.569Z" transform="translate(-1329.409 6267.254)"/><path class="c" d="M1376.273-6222.7l-45.606-25.747v7.961l45.606,25.847Z" transform="translate(-1327.074 6256.622)"/><path class="c" d="M1492.249-6165l-.263-.154a.565.565,0,0,1-.112-.085c-.691-.664-.549-2.06.346-3.395a4.555,4.555,0,0,1,1.456-1.418,1.64,1.64,0,0,1,1.686-.123l.023.011,4.586,2.571v-4.431c0-.014,0-.028,0-.043a2.945,2.945,0,0,1,1.435-2.2l-14.431,3.65v8.247l6.87-1.739Z" transform="translate(-1436.58 6204.65)"/><path class="c" d="M1513.213-6150.089v-4.175l-5.142-2.882a.71.71,0,0,1-.08-.044c-.029-.02-.2-.025-.482.136a3.389,3.389,0,0,0-1.053,1.043,2.362,2.362,0,0,0-.536,1.831l.165.1Z" transform="translate(-1449.821 6192.7)"/><path class="c" d="M1469.813-5541.106l-55.635-31.433v22.038l-.01.8a.608.608,0,0,1-.018.139c-.457,1.813-3.066,3.014-6.375,3.014q-.5,0-1.015-.037a11.29,11.29,0,0,1-4.846-1.379c-1.372-.813-2.1-1.858-2.056-2.948a.5.5,0,0,1,0-.057v-21.507L1344.07-5558.2l60.021,33.912Z" transform="translate(-1336.464 5783.103)"/><path class="c" d="M1544.822-6173.128a10.171,10.171,0,0,0-4.362-1.226c-3.506-.252-5.967.966-6.084,2.268v199.432a.65.65,0,0,1,.005.116c-.046.631.49,1.326,1.468,1.906a10.082,10.082,0,0,0,4.321,1.215c3.351.24,5.76-.849,6.125-2.015l.009-.715v-171.833l-2.246-1.273a.6.6,0,0,1-.3-.521v-9.335c0-.016,0-.03.006-.045s0-.016,0-.024l-3.625-2.032-.263-.154a.576.576,0,0,1-.112-.084c-.69-.665-.547-2.061.347-3.395.942-1.406,2.28-2.056,3.142-1.542l.022.012,3.033,1.7v-10.483c0-.015,0-.029,0-.043C1546.351-6171.838,1545.81-6172.542,1544.822-6173.128Z" transform="translate(-1469.787 6204.741)"/><path class="c" d="M1557.093-6130.855a.547.547,0,0,1-.079-.044c-.129-.085-.876.2-1.535,1.18a2.359,2.359,0,0,0-.536,1.831l.165.1,4.227,2.369,5.132-1.3Z" transform="translate(-1484.164 6174.285)"/><path class="c" d="M1573.029-6118.023l45.292,25.57,9.8-2.479,4.953-1.253-45.292-25.57Z" transform="translate(-1496.866 6167.868)"/><path class="c" d="M1615.3-6072.77v-8.062l-45.606-25.747v7.961Z" transform="translate(-1494.531 6157.235)"/><path class="c" d="M1741.246-6033.077l-15.24,3.855v8.247l15.24-3.855Z" transform="translate(-1604.037 6105.742)"/></svg>