<svg xmlns="http://www.w3.org/2000/svg" width="251.853" height="114.934" viewBox="0 0 251.853 114.934"><defs><style>.a{fill:#474749;}.b{fill:#fff;}.c{fill:none;stroke:#fff;stroke-linecap:round;stroke-linejoin:round;}</style></defs><g transform="translate(-4556.983 688.638)"><path class="a" d="M4691.6-486l-107.308-60.628a2.993,2.993,0,0,0-2.209-.3l-22.824,5.7a2.991,2.991,0,0,0-2.251,2.512,2.992,2.992,0,0,0,1.5,3.023l107.308,60.628a3.009,3.009,0,0,0,1.48.39,3.014,3.014,0,0,0,.73-.09l22.824-5.7a2.991,2.991,0,0,0,2.25-2.512A2.99,2.99,0,0,0,4691.6-486Zm-3.087,2.4-21.129,5.281L4561.6-538.084l21.13-5.281Z" transform="translate(0 -99.038)"/><path class="a" d="M4914.194-625.378l-.021-.143a2.994,2.994,0,0,0-1.115-1.869,2.929,2.929,0,0,0-.577-.349l-107.1-60.511a3.008,3.008,0,0,0-2.221-.3L4733.1-670.7a2.989,2.989,0,0,0-1.169.388,3.008,3.008,0,0,0-1.4,1.892l-.037.1-.062.566.01.086v10.992l-20.479,5.119a2.989,2.989,0,0,0-2.25,2.512,2.991,2.991,0,0,0,1.5,3.023L4816.515-585.4a3.011,3.011,0,0,0,1.481.39,3.024,3.024,0,0,0,.729-.09l22.83-5.706a3,3,0,0,0,.4-.133l70-17.939a3.006,3.006,0,0,0,2.261-2.913v-13.231A2.663,2.663,0,0,0,4914.194-625.378ZM4840.22-606.7v11.825l-106.173-59.98v-11.825Zm10.5-2.883Zm51.644-13.783L4850.8-610.234,4745-670.007l58.814-14.982L4909.6-625.223Zm-159.047-46.208L4849.113-609.8l-8.228,2.1-105.8-59.771Zm-9.894,15.874,105.788,59.769-21.129,5.281-105.789-59.769Zm108,47.194,69.189-17.731v11.989l-69.189,17.731Z" transform="translate(-105.384 0)"/><path class="b" d="M4904.613-563.381l8.228-2.1L4807.046-625.25l-8.237,2.1Z" transform="translate(-169.11 -44.328)"/><path class="b" d="M4831.806-661.521,4937.6-601.748l51.567-13.136,7.234-1.854L4890.62-676.5Z" transform="translate(-192.185 -8.486)"/><path class="b" d="M4828.818-507.409l21.13-5.281L4744.16-572.459l-21.129,5.281Z" transform="translate(-116.118 -81.245)"/><path class="b" d="M4572.333-529.6l105.788,59.769,21.129-5.281-105.788-59.769Z" transform="translate(-10.734 -107.525)"/><path class="b" d="M4795.366-603.8l106.173,59.98v-11.825l-106.173-59.98Z" transform="translate(-166.703 -51.06)"/><path class="b" d="M5221.649-474.477l-69.188,17.731v11.989l69.188-17.731Z" transform="translate(-416.422 -149.765)"/><line class="c" transform="translate(4745.338 -609.587)"/></g></svg>