<svg xmlns="http://www.w3.org/2000/svg" width="229.905" height="210.632" viewBox="0 0 229.905 210.632"><defs><style>.a{fill:none;}.b{fill:#474749;}.c{fill:#fff;}</style></defs><path class="a" d="M2403.1-6039a15.236,15.236,0,0,0,15.018-15.254,15.136,15.136,0,0,0-15.175-15.11,15.2,15.2,0,0,0-15.126,15.347A15.168,15.168,0,0,0,2403.1-6039Zm-.21-23.727a8.542,8.542,0,0,1,8.573,8.409,8.5,8.5,0,0,1-8.5,8.574,8.505,8.505,0,0,1-8.491-8.473A8.539,8.539,0,0,1,2402.892-6062.726Z" transform="translate(-2290.45 6073.918)"/><path class="b" d="M2292.519-5765.228l-.016-.111a2.98,2.98,0,0,0-1.117-1.89,2.91,2.91,0,0,0-.569-.345l-101.1-57.121v-29.241a3.011,3.011,0,0,0-.5-1.656,2.978,2.978,0,0,0-1.1-1.069l-10.389-5.868a2.979,2.979,0,0,0-2.237-.288l-12.759,3.373a2.982,2.982,0,0,0-2.206,2.511,2.81,2.81,0,0,0-.022.391c0,.035,0,.071,0,.108v33.794l-95.214,24.361a2.962,2.962,0,0,0-1.161.385,3,3,0,0,0-1.4,1.878l-.037.1-.06.546.007.075v13.139a3,3,0,0,0,1.522,2.607l106.339,60.074q.105.1.221.189a3.006,3.006,0,0,0,1.837.63,2.957,2.957,0,0,0,.744-.095l116.984-30.039a2.993,2.993,0,0,0,2.251-2.9v-13.175A2.625,2.625,0,0,0,2292.519-5765.228Zm-3.568,13.074-115.788,29.732v-11.938l115.788-29.732Zm-112.771-107.126,8.895,5.024-11.1,2.934-8.895-5.024Zm9.945,77.939-11.746,2.995v-50.985l11.746-3.1Zm0-52.333-11.746,3.1v-1.7l11.746-3.1Zm0-19.491v16.556l-11.746,3.1v-16.667Zm-12.944,19.321-9.08-5.129v-16.432l9.08,5.143Zm-9.08-3.753,9.08,5.129v1.559l-9.08-5.129Zm-1.2,54.2a.6.6,0,0,0,.3.521l10.278,5.822c.022.012.046.018.069.028s.034.015.051.02a.6.6,0,0,0,.175.03.612.612,0,0,0,.148-.019l12.944-3.3a.6.6,0,0,0,.451-.58v-41.045l100.621,56.851-13.031,3.346-102.285,26.17-105.36-59.52,95.635-24.47Zm-96.664-10.883,105.726,59.727v11.775L2066.24-5782.5Zm106.942-35.255v50.932l-9.08-5.143v-50.918Z" transform="translate(-2062.64 5929.287)"/><path class="c" d="M2183.46-5639.635l102.285-26.17,13.031-3.346L2198.154-5726v41.045a.6.6,0,0,1-.451.58l-12.944,3.3a.6.6,0,0,1-.148.019.616.616,0,0,1-.175-.029c-.018-.006-.034-.014-.051-.021s-.047-.016-.069-.028l-10.277-5.822a.6.6,0,0,1-.3-.521v-36.146l-95.635,24.47Z" transform="translate(-2073.471 5833.368)"/><path class="c" d="M2180.389-5573.962l-105.726-59.728v11.775l105.726,59.727Z" transform="translate(-2071.063 5768.697)"/><path class="c" d="M2431.757-5503.139v11.938l115.788-29.731v-11.938Z" transform="translate(-2321.233 5698.066)"/><path class="c" d="M2413.651-5842.812l11.1-2.934-8.895-5.024-11.1,2.934Z" transform="translate(-2302.318 5920.778)"/><path class="c" d="M2410.572-5771.671v-1.559l-9.08-5.129v1.559Z" transform="translate(-2300.03 5870.048)"/><path class="c" d="M2401.492-5837.832v16.432l9.08,5.129v-16.419Z" transform="translate(-2300.03 5911.713)"/><path class="c" d="M2401.492-5717.643l9.08,5.144v-50.932l-9.08-5.129Z" transform="translate(-2300.03 5863.184)"/><path class="c" d="M2435.817-5810.687l11.746-3.1v-16.557l-11.746,2.995Z" transform="translate(-2324.078 5906.471)"/><path class="c" d="M2435.817-5767.812v1.7l11.746-3.1v-1.7Z" transform="translate(-2324.078 5864.834)"/><path class="c" d="M2447.563-5761.118l-11.746,3.1v50.986l11.746-3Z" transform="translate(-2324.078 5857.97)"/><path class="b" d="M2237.5-5965.283a2.388,2.388,0,0,0,1.694-.7,2.4,2.4,0,0,0,0-3.388A41.348,41.348,0,0,1,2227-5998.8a41.347,41.347,0,0,1,12.19-29.43,2.4,2.4,0,0,0,0-3.388,2.4,2.4,0,0,0-3.388,0,46.109,46.109,0,0,0-13.593,32.817,46.108,46.108,0,0,0,13.593,32.818A2.389,2.389,0,0,0,2237.5-5965.283Z" transform="translate(-2174.433 6047.967)"/><path class="b" d="M2269.563-5955.489a2.389,2.389,0,0,0,1.694.7,2.389,2.389,0,0,0,1.694-.7,2.4,2.4,0,0,0,0-3.388,30.341,30.341,0,0,1-8.946-21.6,30.341,30.341,0,0,1,8.946-21.6,2.4,2.4,0,0,0,0-3.388,2.4,2.4,0,0,0-3.388,0,35.1,35.1,0,0,0-10.349,24.983A35.1,35.1,0,0,0,2269.563-5955.489Z" transform="translate(-2200.354 6029.638)"/><path class="b" d="M2303.318-5944.995a2.386,2.386,0,0,0,1.694.7,2.386,2.386,0,0,0,1.694-.7,2.4,2.4,0,0,0,0-3.387,19.338,19.338,0,0,1-5.7-13.763,19.338,19.338,0,0,1,5.7-13.762,2.4,2.4,0,0,0,0-3.388,2.4,2.4,0,0,0-3.387,0,24.094,24.094,0,0,0-7.1,17.149A24.093,24.093,0,0,0,2303.318-5944.995Z" transform="translate(-2226.275 6011.309)"/><path class="b" d="M2337.073-5934.5a2.386,2.386,0,0,0,1.694.7,2.387,2.387,0,0,0,1.694-.7,2.4,2.4,0,0,0,0-3.388,8.325,8.325,0,0,1-2.456-5.928,8.329,8.329,0,0,1,2.456-5.928,2.4,2.4,0,0,0,0-3.388,2.4,2.4,0,0,0-3.388,0,13.09,13.09,0,0,0-3.859,9.316A13.089,13.089,0,0,0,2337.073-5934.5Z" transform="translate(-2252.197 5992.98)"/><path class="b" d="M2609.671-5998.8a41.347,41.347,0,0,1-12.19,29.43,2.4,2.4,0,0,0,0,3.388,2.4,2.4,0,0,0,3.388,0,46.108,46.108,0,0,0,13.593-32.818,46.109,46.109,0,0,0-13.593-32.818,2.389,2.389,0,0,0-1.694-.7,2.389,2.389,0,0,0-1.694.7,2.4,2.4,0,0,0,0,3.388A41.347,41.347,0,0,1,2609.671-5998.8Z" transform="translate(-2436.843 6047.966)"/><path class="b" d="M2580.261-5980.473a30.343,30.343,0,0,1-8.945,21.6,2.4,2.4,0,0,0,0,3.388,2.4,2.4,0,0,0,3.387,0,35.1,35.1,0,0,0,10.349-24.984,35.1,35.1,0,0,0-10.349-24.984,2.388,2.388,0,0,0-1.693-.7,2.388,2.388,0,0,0-1.694.7,2.394,2.394,0,0,0,0,3.387A30.343,30.343,0,0,1,2580.261-5980.473Z" transform="translate(-2418.513 6029.638)"/><path class="b" d="M2550.854-5962.144a19.335,19.335,0,0,1-5.7,13.763,2.4,2.4,0,0,0,0,3.387,2.394,2.394,0,0,0,3.388,0,24.094,24.094,0,0,0,7.1-17.149,24.1,24.1,0,0,0-7.1-17.15,2.389,2.389,0,0,0-1.694-.7,2.388,2.388,0,0,0-1.694.7,2.4,2.4,0,0,0,0,3.387A19.336,19.336,0,0,1,2550.854-5962.144Z" transform="translate(-2400.184 6011.309)"/><path class="b" d="M2518.991-5934.5a2.4,2.4,0,0,0,3.388,0,13.089,13.089,0,0,0,3.858-9.316,13.09,13.09,0,0,0-3.858-9.316,2.39,2.39,0,0,0-1.694-.7,2.39,2.39,0,0,0-1.694.7,2.4,2.4,0,0,0,0,3.388,8.327,8.327,0,0,1,2.455,5.928,8.326,8.326,0,0,1-2.455,5.928A2.4,2.4,0,0,0,2518.991-5934.5Z" transform="translate(-2381.855 5992.98)"/><path class="b" d="M2377.623-6051.245a170.511,170.511,0,0,0,13.412,20.288,1.511,1.511,0,0,0,2.634-.023c3.721-4.96,7.3-10.022,10.526-15.319a76.6,76.6,0,0,0,6.344-12.356,18.032,18.032,0,0,0,1.223-9.1,19.539,19.539,0,0,0-19.337-16.815c-.928.075-1.866.087-2.782.236a19.2,19.2,0,0,0-14.8,10.708,17.063,17.063,0,0,0-1.062,13.944A58.593,58.593,0,0,0,2377.623-6051.245Zm14.769-28.773a15.136,15.136,0,0,1,15.176,15.109,15.236,15.236,0,0,1-15.018,15.255,15.168,15.168,0,0,1-15.284-15.018A15.2,15.2,0,0,1,2392.392-6080.019Z" transform="translate(-2279.898 6084.574)"/><path class="b" d="M2418.542-6030.212a8.5,8.5,0,0,0,8.5-8.574,8.542,8.542,0,0,0-8.573-8.409,8.54,8.54,0,0,0-8.417,8.511A8.506,8.506,0,0,0,2418.542-6030.212Z" transform="translate(-2306.026 6058.389)"/></svg>