<svg width="555" height="82" xmlns="http://www.w3.org/2000/svg" 
                            xmlns:svg="http://www.w3.org/2000/svg"> <g>
                         <title>Figure 1</title>
                         <path id="svg_1" d="m555.9,0.5l-555.2,0.2l-0.2,74.6l6.4,2.15l8,
                         1.45l7.2,1.4l8.4,1l15.6,1l32,0l21.8,-0.8l13,-1l17.4,-1.2l11,-0.6l11.4,
                         -0.4l15.4,-1l16,-1.2l25.6,-1l21.6,-1l13.6,-0.2l93.8,-0.4l18.6,-1l16.4,
                         -1l13.6,-1l14.8,-0.8l10.8,-0.8l13.6,-1l12.8,-1.2l11,-1.4l11,-2l11.6,-2l10.4,
                         -2.4l8.2,-1.8l10,-3l10,-3.4l12.4,-5.2l11.6,-7.2l7.8,-7.2l4.6,-5l3.6,-6.4l3,
                         -7.2l0.4,-13z" stroke="#259649" fill="#259649"/>
                        </g>
                       </svg>