<svg width="250" height="540" xmlns="http://www.w3.org/2000/svg" xmlns:svg="http://www.w3.org/2000/svg">
 <g>
  <title>Layer 1</title>
  <path id="svg_2" d="m0.53809,12.12933c0,0 0.1,435.3 0.1,435.3c0,0 9.4,16.3 9.3,16.3c-0.1,0 20.4,36.7 20.4,36.7c0,0 6.6,8 6.6,8c0,0 9.6,7.8 9.6,7.8c0,0 12.7,5.8 12.7,5.8c0,0 13,2.5 13,2.5c0,0 12.7,-0.4 12.7,-0.4c0,0 10.6,-3.1 10.6,-3.1c0,0 10.3,-5.6 10.3,-5.6c0,0 8.3,-6.8 8.3,-6.8c0,0 10.5,-13.1 10.5,-13.1c0,0 3,-6.7 3,-6.7c0,0 3,-11.1 3,-11.1c0,0 2.9,-23.7 2.9,-23.7c0,0 2.2,-16 2.2,-16c0,0 4.9,-19 4.9,-19c0,0 4.7,-12.9 4.7,-12.9c0,0 9.1,-16.9 9.1,-16.9c0,0 8.1,-11.5 8.1,-11.5c0,0 10.2,-15 10.2,-15c0,0 15.1,-19.2 15.1,-19.2c0,0 15.7,-19.5 15.7,-19.6c0,-0.1 13,-17.3 13,-17.4c0,-0.1 5.5,-9.3 5.6,-9.6c0.1,-0.3 5.6,-14.5 5.6,-14.5c0,0 3.5,-12.1 3.5,-12.1c0,0 1.8,-12.3 1.8,-12.5c0,-0.2 0,-17.3 0,-17.3c0,0 -1.9,-14.8 -1.9,-14.8c0,0 -4.8,-15.5 -4.8,-15.5c0,0 -6.4,-13.9 -6.4,-13.9c0,0 -6.5,-10.8 -6.5,-10.8c0,0 -10.9,-12.5 -10.9,-12.5c0,0 -10.8,-9.8 -10.8,-9.8c0,0 -13.8,-9.5 -13.8,-9.5c0,0 -8.7,-4.8 -8.7,-4.8c0,0 -15,-5.7 -15.1,-5.7c-0.1,0 -18.5,-8 -18.5,-8c0,0 -22.5,-10.8 -22.5,-10.8c0,0 -22,-12 -22,-12c0,0 -7.4,-5.1 -7.4,-5.1c0,0 -16,-12.4 -16,-12.4c0,0 -12.4,-11.9 -12.4,-11.9c0,0 -11.1,-14.4 -11.1,-14.4c0,0 -9.7,-12.1 -9.5,-12.7c0.2,-0.6 -13.5,-18.3 -13.5,-18.3c0,0 -10.1,-14.4 -10.1,-14.4c0,0 -6,-7.2 -6,-7.2c0,0 -4.6,-3.9 -4.6,-3.9z" stroke-linecap="null" stroke-linejoin="null" stroke-dasharray="null" stroke-width="null" stroke="rgba(193, 245, 195, 0.6)" fill="rgba(193, 245, 195, 0.6)"/>
 </g>
</svg>