<svg width="250" height="400" xmlns="http://www.w3.org/2000/svg" xmlns:svg="http://www.w3.org/2000/svg">
 <g>
  <title>Layer 1</title>
  <path id="svg_2" d="m0.44813,15.56527l0.3,350.7l15.9,7.2l22.9,6.5l21.9,2.9l15.5,0.6c0,0 10.3,-0.9 10.3,-0.9c0,0 12.6,-1.8 12.6,-1.8c0,0 17.9,-3.8 17.9,-3.8c0,0 17.1,-6.1 17.1,-6.1c0,0 20.8,-10.5 20.8,-10.5c0,0 9.5,-6.1 9.5,-6.1c0,0 10.6,-7.9 10.6,-7.9c0,0 14.9,-13.8 14.9,-13.8c0,0 10.3,-12.4 10.3,-12.5c0,-0.1 8.7,-12.7 8.8,-12.8c0.1,-0.1 9.1,-16.6 9.1,-16.6c0,0 5.2,-11.7 5.2,-11.6c0,0.1 5,-14.7 5,-14.7c0,0 3.2,-15.8 3.2,-15.8c0,0 2.2,-14.7 2.2,-14.7c0,0 0.2,-21.3 0.2,-21.3c0,0 -2.1,-21.6 -2.1,-21.6c0,0 -4,-15.4 -4,-15.4c0,0 -16.9,-38.2 -16.9,-38.2c0,0 -10,-14.7 -10,-14.7c0,0 -15.3,-17.5 -15.3,-17.5c0,0 -9.6,-8.7 -9.6,-8.8c0,-0.1 -15.8,-11.7 -15.8,-11.7c0,0 -14.7,-9 -14.7,-9c0,0 -23.4,-9.5 -23.4,-9.5c0,0 -20.6,-7.4 -20.6,-7.4c0,0 -23.1,-8.6 -23.1,-8.6c0,0 -22.5,-9.9 -22.5,-9.9c0,0 -26.3,-11.2 -26.3,-11.2c0,0 -20.3,-9.6 -20.3,-9.6c0,0 -9.6,-3.9 -9.6,-3.9z" stroke="rgba(208,236,209, 0.6)" fill="rgba(208,236,209, 0.6)"/>
 </g>
</svg>