<svg width="302" height="510" xmlns="http://www.w3.org/2000/svg" xmlns:svg="http://www.w3.org/2000/svg">
 <g>
  <title>Layer 1</title>
  <path id="svg_2" d="m302.14536,497.20902c0,0 0.1,-319.7 0.1,-319.7c0,0 -9,-11.5 -9,-11.5c0,0 -11.8,-11.2 -11.8,-11.2c0,0 -12.6,-8.9 -12.6,-8.9c0,0 -16.2,-8.4 -16.2,-8.4c0,0 -18.3,-9.1 -18.3,-9.1c0,0 -17.4,-9.5 -17.4,-9.5c0,0 -12.2,-7.7 -12.2,-7.7c0,0 -12,-8.4 -12,-8.4c0,0 -11,-9.6 -11,-9.7c0,-0.1 -9.6,-11.3 -9.7,-11.3c-0.1,0 -8.3,-12.5 -8.3,-12.5c0,0 -15.3,-26.1 -15.3,-26.1c0,0 -6.3,-10.2 -6.3,-10.2c0,0 -5.9,-6.7 -5.9,-6.7c0,0 -8.5,-7.9 -8.5,-7.9c0,0 -10.3,-6.2 -10.3,-6.2c0,0 -11.1,-4.3 -11.1,-4.3c0,0 -14.3,-2.7 -14.3,-2.8c0,-0.1 -11.6,-0.1 -11.6,-0.1c0,0 -12.4,1.7 -12.4,1.7c0,0 -11.6,5 -11.6,5c0,0 -10.3,6 -10.3,6c0,0 -8.7,7 -8.7,7c0,0 -9.5,11.4 -9.5,11.4c0,0 -6.8,13.1 -6.8,13.1c0,0 -3.5,10.9 -3.5,10.9c0,0 -2,11.3 -2,11.3c0,0 0.6,14.8 0.6,14.8c0,0 11.2,42.8 11.2,42.8c0,0 3,19.1 3,19.1c0,0 0.4,12.9 0.4,12.9c0,0 -0.3,11.6 -0.3,11.6c0,0 -0.7,11.8 -0.7,11.8c0,0 -7.2,26.7 -7.2,26.7c0,0 -6,17.7 -6,17.7c0,0 -6.2,19 -6.2,19c0,0 -2.4,6.5 -2.4,6.5c0,0 -1.9,12.1 -1.9,12.1c0,0 -0.2,13.5 -0.2,13.5c0,0 2.8,11.2 2.8,11.2c0,0 4.9,13.6 4.9,13.6c0,0 8.6,12.3 8.6,12.3c0,0 12.1,12.4 12.1,12.4c0,0 9.9,6.7 9.9,6.7c0,0 18.7,7 18.7,6.9c0,-0.1 25.8,8.5 25.8,8.5c0,0 15.1,5.4 15.1,5.4c0,0 12,5.9 12,5.9c0,0 16.1,9.6 16.1,9.6c0,0 19.4,15.8 19.4,15.8c0,0 9.7,10.8 9.7,10.8c0,0 19.1,20.7 19.1,20.7c0,0 19.7,23.9 19.7,23.9c0,0 9.7,12.1 9.7,12.1c0,0 8.4,9.5 8.4,9.5c0,0 16.6,12.8 16.6,12.8c0,0 14.6,8 14.6,8c0,0 16.5,6.8 16.5,6.8c0,0 18.3,3.9 18.3,3.9c0,0 10.4,0.9 10.4,0.9c0,0 7.8,-0.4 7.8,-0.4z" stroke-linecap="null" stroke-linejoin="null" stroke-dasharray="null" stroke-width="null" stroke="rgba(233, 185, 201, 0.6)" fill="rgba(233, 185, 201, 0.6)"/>
 </g>
</svg>