<svg xmlns="http://www.w3.org/2000/svg" width="142.033" height="250.76" viewBox="0 0 142.033 250.76"><defs><style>.a{fill:#474749;}.b{fill:#fff;}</style></defs><path class="a" d="M7282.946-3760.032l-62.44-35.278V-3945.9l41.469,23.5.029.023a3.2,3.2,0,0,0,2.711.57l17.3-4.377a3.148,3.148,0,0,0,2.379-3.056v-9.982a2.715,2.715,0,0,0-.026-.381c-.008-.07-.018-.142-.034-.224a3.185,3.185,0,0,0-.237-.731l-.092-.206-.087-.122a3,3,0,0,0-.311-.417c-.051-.059-.106-.114-.158-.166a2.74,2.74,0,0,0-.269-.24l-.067-.051-.084-.074-49.509-27.951a3.134,3.134,0,0,0-2.322-.31l-8.36,2.115-2.334-1.309v-10.181c.091-2.1-1.149-4.07-3.414-5.414a14.522,14.522,0,0,0-6.25-1.811,13.642,13.642,0,0,0-6.646,1.02,5.989,5.989,0,0,0-3.807,4.916c0,.067-.006.134-.006.2v187.576l-55.495,14.2a3.138,3.138,0,0,0-2.345,2.64,3.136,3.136,0,0,0,1.575,3.159l64.771,36.6a3.16,3.16,0,0,0,1.553.409,3.137,3.137,0,0,0,.782-.1l70.952-18.154a3.139,3.139,0,0,0,2.345-2.64A3.138,3.138,0,0,0,7282.946-3760.032Zm-78.78-220.5c.122-1.371,2.713-2.655,6.4-2.389a10.722,10.722,0,0,1,4.592,1.292c1.042.618,1.609,1.358,1.562,2.03,0,.015,0,.031,0,.046v11.036l-3.193-1.79-.025-.013c-.909-.541-2.315.144-3.307,1.624-.943,1.405-1.091,2.875-.365,3.574a.663.663,0,0,0,.118.089l.276.163,3.816,2.138c0,.009,0,.017,0,.026s-.006.03-.006.046v9.829a.632.632,0,0,0,.319.548l2.366,1.34v180.9l-.009.753c-.385,1.228-2.919,2.374-6.45,2.12a10.6,10.6,0,0,1-4.547-1.279c-1.03-.611-1.593-1.342-1.546-2.007a.655.655,0,0,0,0-.122Zm76.451,42.121v8.681l-16.044,4.058v-8.681Zm-65.317-23.169,48.013,27.1v8.487L7215.3-3953.2Zm.006-1.891-4.451-2.494-.173-.1a2.481,2.481,0,0,1,.563-1.927c.694-1.035,1.483-1.333,1.616-1.242a.653.653,0,0,0,.085.047l7.761,4.351Zm48.727,27.955-47.682-26.918,15.534-3.929,47.682,26.918Zm-61.126,145.8v19.192a.558.558,0,0,0,0,.06c-.045,1.147.72,2.246,2.164,3.1a11.87,11.87,0,0,0,5.1,1.452q.544.04,1.068.04c3.484,0,6.23-1.263,6.712-3.173a.649.649,0,0,0,.02-.147l.009-.842v-22.352l61.737,34.881-69.189,17.7-63.187-35.7Z" transform="translate(-7142.517 3986.741)"/><path class="b" d="M7290.209-3335.313l-61.737-34.881v22.351l-.009.843a.642.642,0,0,1-.02.146c-.481,1.91-3.228,3.173-6.711,3.173q-.524,0-1.069-.039a11.867,11.867,0,0,1-5.1-1.452c-1.445-.857-2.21-1.956-2.166-3.1a.543.543,0,0,1,0-.06v-19.193l-55.562,14.216,63.188,35.7Z" transform="translate(-7153.003 3564.545)"/><path class="b" d="M7338.092-3762.362a.7.7,0,0,1,0,.122c-.048.665.516,1.4,1.546,2.007a10.6,10.6,0,0,0,4.547,1.279c3.53.253,6.064-.893,6.45-2.12l.009-.753v-180.9l-2.366-1.34a.634.634,0,0,1-.319-.549v-9.829c0-.016,0-.031.006-.047a.23.23,0,0,1,0-.026l-3.816-2.139-.276-.163a.62.62,0,0,1-.118-.089c-.727-.7-.577-2.168.365-3.574.992-1.479,2.4-2.165,3.307-1.624l.025.013,3.193,1.789v-11.036c0-.015,0-.03,0-.045.047-.672-.521-1.412-1.562-2.03a10.723,10.723,0,0,0-4.593-1.291c-3.69-.266-6.282,1.018-6.4,2.389Z" transform="translate(-7276.441 3978.522)"/><path class="b" d="M7360.925-3931.2a.564.564,0,0,1-.085-.047c-.133-.091-.922.207-1.616,1.242a2.486,2.486,0,0,0-.563,1.928l.173.1,4.449,2.494,5.4-1.367Z" transform="translate(-7290.495 3948.752)"/><path class="b" d="M7376.744-3918.176l47.682,26.919,15.534-3.93-47.682-26.919Z" transform="translate(-7302.91 3942.48)"/><path class="b" d="M7421.423-3871.337v-8.487l-48.012-27.1v8.381Z" transform="translate(-7300.627 3932.088)"/><path class="b" d="M7529.722-3829.369v8.682l16.044-4.059v-8.681Z" transform="translate(-7407.665 3881.756)"/></svg>