<svg width="755" height="1005" xmlns="http://www.w3.org/2000/svg" xmlns:svg="http://www.w3.org/2000/svg">
 <g>
  <title>Layer 1</title>
  <path id="svg_3" d="m754.32191,560.11613l0.2,-248.5l-11.3,-15.1l-17.2,-17.7c0,0 -15.4,-14 -15.4,-14c0,0 -17,-12.1 -17,-12.1c0,0 -31,-16.4 -31,-16.4c0,0 -23.8,-10.2 -23.8,-10.3c0,-0.1 -18.8,-7.7 -18.8,-7.8c0,-0.1 -49,-22.6 -49,-22.6c0,0 -24.4,-11.8 -24.4,-11.8c0,0 -25.6,-13.8 -25.6,-13.8c0,0 -25.3,-14.6 -25.3,-14.6c0,0 -19.3,-14.4 -19.3,-14.4c0,0 -13.4,-12 -13.4,-12c0,0 -18.6,-17.5 -18.6,-17.5c0,0 -12.9,-13.7 -12.9,-13.7c0,0 -16.8,-21.5 -16.8,-21.5c0,0 -16.4,-21.2 -16.6,-21c-0.2,0.2 -29.8,-43.2 -29.8,-43.2c0,0 -8.72222,-11.56296 -7.3,-10c1.42222,1.56296 -1.7,-0.3 -1.7,-0.3c0,0 -316.1,0.3 -316.1,0.3c0,0 -7.4,11.3 -7.4,11.3c0,0 -6.8,15.6 -6.8,15.6c0,0 -6.2,18.2 -6.2,18.2c0,0 -3.8,17.2 -3.8,17.2c0,0 -2.5,13.9 -2.5,13.9c0,0 -1.4,11.8 -1.4,11.8c0,0 0.3,18.5 0.3,18.5c0,0 1.1,18.3 1.1,18.4c0,0.1 2,11 2,11c0,0 5.7,22.4 5.7,22.4c0,0 6.7,15.5 6.7,15.5c0,0 7.4,20.7 7.5,20.7c0.1,0 12.1,35.8 12.1,35.8c0,0 11.5,35.3 11.4,35.4c-0.1,0.1 5.1,16.7 5,17.1c-0.1,0.4 7.4,28 7.4,28.1c0,0.1 5.9,25 6,25c0.1,0 4.7,33.9 4.7,33.9c0,0 2.1,19.3 2.1,19.3c0,0 0.2,22.2 0,22.4c-0.2,0.2 -1.8,12.2 -1.8,12.2c0,0 -3.7,26.4 -3.7,26.4c0,0 -4.2,16.3 -4.2,16.3c0,0 -3.2,18.2 -3.3,18.3c-0.1,0.1 -3.7,17.9 -3.7,18.1c0,0.2 -2.9,14.4 -2.9,14.4c0,0 -3,15.5 -3,15.5c0,0 -0.3,10.6 -0.3,10.8c0,0.2 0.6,12.8 0.6,12.8c0,0 3.9,14.8 3.9,14.7c0,-0.1 5.9,14.8 5.9,14.8c0,0 12.4,16 12.5,16c0.1,0 11.5,11.1 11.5,11.1c0,0 10.3,7.3 10.3,7.3c0,0 14.4,9.2 14.4,9.2c0,0 15.7,9.3 15.9,9.4c0.2,0.1 17.1,11.9 17.1,11.9c0,0 8.2,6 8.2,5.9c0,-0.1 7.4,5.8 7.4,5.8c0,0 12.5,8.4 12.5,8.4c0,0 15.8,11.8 15.8,11.8c0,0 8.8,7.5 8.8,7.5c0,0 8.1,7.6 8.3,7.9c0.2,0.3 15.6,13.3 15.6,13.3c0,0 14.2,14.7 14.2,14.7c0,0 6.3,6.2 6.3,6.2c0,0 7,7.9 7,7.9c0,0 9.1,9.9 9.1,9.9c0,0 8.4,9.8 8.4,9.8c0,0 6.5,8.1 6.5,8.1c0,0 8.3,12.1 8.5,12.1c0.2,0 10,13 10,13c0,0 7.3,10.8 7.5,11c0.2,0.2 10.6,15.3 10.6,15.5c0,0.2 6.5,10.9 6.6,11.1c0.1,0.2 9.9,16.6 9.9,16.6c0,0 7.9,14.6 7.9,14.6c0,0 8.8,16.5 8.8,16.5c0,0 10.7,18.5 10.7,18.6c0,0.1 8,15.4 8,15.6c0,0.2 10.5,20.9 10.5,20.9c0,0 8.6,11.5 8.6,11.5c0,0 10.9,11.6 11,11.6c0.1,0 8.3,7.2 8.4,7.2c0.1,0 10.3,6.7 10.3,6.7c0,0 13.2,6.6 13.2,6.6c0,0 12.1,3.9 12.2,4c0.1,0.1 11.7,2.7 11.9,2.7c0.2,0 16.9,1.2 16.9,1.2c0,0 16,-0.5 16,-0.5c0,0 11,-1.5 11.1,-1.5c0.1,0 16.3,-4.7 16.3,-4.8c0,-0.1 13.8,-7 13.9,-7c0.1,0 14.3,-9.8 14.2,-9.8c-0.1,0 9.3,-7.7 9.3,-7.7c0,0 9.8,-10.6 10.1,-10.6c0.3,0 8.5,-12.9 8.6,-12.9c0.1,0 7.3,-16.5 7.3,-16.5c0,0 3.88889,-10.3037 4.6,-14.6c0.71111,-4.2963 0.6,-4.5 0.6,-4.5c0,0 3.3,-17 3.3,-17c0,0 2.2,-23.2 2.3,-23.8c0.1,-0.6 2.2,-17.8 2.2,-17.8c0,0 3.9,-20.9 3.9,-21.6c0,-0.7 3.4,-17.2 3.6,-17.4c0.2,-0.2 4.8,-19.7 4.9,-19.3c0.1,0.4 6.4,-19.1 6.4,-19.1c0,0 6.9,-15.2 7,-15.2c0.1,0 10,-19.6 10.1,-19.6c0.1,0 7,-9.2 7.1,-9.1c0.1,0.1 8.9,-15.2 9.1,-15.2c0.2,0 8.8,-13.4 8.9,-13.4c0.1,0 10.5,-15.1 10.5,-15.2c0,-0.1 13.7,-19 13.7,-19c0,0 10.4,-13.1 10.4,-13.1c0,0 15.3,-19.6 15.3,-19.6c0,0 18.8,-22.9 18.8,-22.9c0,0 18,-21.8 18,-21.8c0,0 10.9,-16.4 10.9,-16.4z" stroke="rgba(213,231,242, 1)" fill="rgba(213,231,242, 1)"/>
 </g>
</svg>