<svg width="355" height="510" xmlns="http://www.w3.org/2000/svg" xmlns:svg="http://www.w3.org/2000/svg">
 <g>
  <title>Layer 1</title>
  <path id="svg_2" d="m135.74988,7.46341l-10.9,1.4l-11,4.1l-12,7.6l-6.5,6.8l-5.9,10.7c0,0 -3.6,10.7 -3.6,10.7c0,0 -3.4,10.7 -3.4,10.7c0,0 -5.3,16.1 -5.3,16.1c0,0 -5.7,12.2 -5.7,12.2c0,0 -7.7,11.9 -7.7,11.9c0,0 -8.7,12.1 -8.7,12.1c0,0 -8.3,10.5 -8.3,10.5c0,0 -13,14.9 -13,14.9c0,0 -9.4,10.3 -9.4,10.3c0,0 -8.4,11.5 -8.4,11.6c0,0.1 -6.3,15.5 -6.3,15.5c0,0 -2.6,15.9 -2.6,15.9c0,0 1.9,18 1.9,18c0,0 0.96461,5.35514 5.6,14.8c4.63539,9.44486 7.3,12.6 7.3,12.6c0,0 11.4,14.8 11.4,14.8c0,0 8,10.5 8,10.5c0,0 12.5,16 12.5,16c0,0 10.3,15.3 10.3,15.3c0,0 9.4,15.9 9.4,15.9c0,0 6.2,12.4 6.2,12.4c0,0 8.2,20.2 8.5,20.2c0.3,0 5.9,17.7 5.9,17.7c0,0 6.6,20.5 6.6,20.5c0,0 5.4,18.2 5.4,18.2c0,0 4.8,15.4 5.1,15.4c0.3,0 6.3,14.5 6.3,14.5c0,0 7.9,12.3 7.9,12.3c0,0 10.5,13 10.5,13c0,0 10.5,9.7 10.5,9.7c0,0 14.5,10.8 14.5,10.8c0,0 18.6,9.9 18.6,9.9c0,0 21,7.8 21,7.8c0,0 22.2,4.2 22.2,4.3c0,0.1 18.9,1.1 18.9,1.1c0,0 17.5,-1.8 17.5,-1.8c0,0 19.8,-4.5 19.8,-4.6c0,-0.1 17.6,-7.9 17.6,-7.9c0,0 16.8,-10.8 16.8,-10.8c0,0 11,-11.6 11,-11.5c0,0.1 8.8,-12.6 8.8,-12.6c0,0 7,-15.4 7,-15.2c0,0.2 3.9,-16.4 3.9,-16.4c0,0 0,-20 0,-20c0,0 -3,-17 -3,-17c0,0 -5.3,-13.5 -5.3,-13.5c0,0 -8,-15.1 -8,-15.1c0,0 -6.2,-9.1 -6.2,-9.1c0,0 -9.9,-16.1 -9.9,-16.1c0,0 -9.7,-14.7 -9.7,-14.7c0,0 -9.8,-17.5 -9.8,-17.5c0,0 -9.6,-15.1 -9.6,-15.1c0,0 -8.2,-16 -8.2,-16c0,0 -8.8,-16.3 -8.8,-16.3c0,0 -9.7,-19.2 -9.7,-19.2c0,0 -8,-17.2 -8,-17.2c0,0 -10,-23.4 -10,-23.4c0,0 -6.5,-16.9 -6.5,-16.9c0,0 -6.1,-18.4 -6.1,-18.4c0,0 -4.4,-18.2 -4.4,-18.2c0,0 -4.7,-19.8 -4.7,-19.8c0,0 -4.5,-21.3 -4.4,-21.3c0.1,0 -3.8,-21.7 -3.8,-21.7c0,0 -3.1,-15.6 -3.1,-16.3c0,-0.7 -6.5,-15.1 -6.5,-15.1c0,0 -10.3,-11.8 -10.3,-11.8c0,0 -12,-9 -12,-9c0,0 -17.5,-6.7 -17.5,-6.7c0,0 -12.6,-2.8 -12.6,-2.8c0,0 -10.1,0.3 -10.1,0.3z" stroke-linecap="null" stroke-linejoin="null" stroke-dasharray="null" stroke-width="null" stroke="rgba(233, 185, 201, 1)" fill="rgba(233, 185, 201, 1)"/>
 </g>
</svg>