<svg xmlns="http://www.w3.org/2000/svg" width="203.989" height="182.576" viewBox="0 0 203.989 182.576"><defs><style>.a{fill:none;}.b{fill:#474749;}.c{fill:#fff;}</style></defs><path class="a" d="M3224.339-3621.9l0,0h0Z" transform="translate(-3105.385 3669.996)"/><path class="b" d="M3050.971-3676.471a2.675,2.675,0,0,0-.024-.366l-.038-.25a3.149,3.149,0,0,0-.261-.771c-.038-.078-.08-.153-.126-.228a3.3,3.3,0,0,0-.345-.471c-.034-.039-.07-.076-.105-.113l-.1-.109-.141-.117c-.049-.041-.1-.077-.141-.11l-.09-.079-83.257-46.8a3.33,3.33,0,0,0-.247-.318c-.034-.04-.069-.077-.105-.114l-.1-.111-.143-.118c-.047-.039-.093-.074-.136-.105l-.09-.08-84.2-47.333a3.143,3.143,0,0,0-2.377-.289l-3.821,1.053-.3.086-.084.043a3.077,3.077,0,0,0-.4.195l-.213.126-.116.1-.026.021a3.145,3.145,0,0,0-.389.359,2.813,2.813,0,0,0-.2.247,3.123,3.123,0,0,0-.284.459,3.337,3.337,0,0,0-.138.323c-.034.093-.063.187-.088.278l-.056.165-.032.276c0,.014,0,.028,0,.042l-.017.095v31.983l-23.389,5.917-.3.075-.108.057a3.048,3.048,0,0,0-.363.172l-.229.123-.149.13a2.988,2.988,0,0,0-.377.337,2.847,2.847,0,0,0-.237.288,3.058,3.058,0,0,0-.265.42,2.82,2.82,0,0,0-.147.332c-.035.091-.065.183-.091.275l-.061.17-.034.272c0,.027-.007.054-.009.081l-.017.1v2.459a3.018,3.018,0,0,0-.016.3v36.353a3.169,3.169,0,0,0,1.524,2.7l4.238,2.556.051.041a3.066,3.066,0,0,0,.8.448,3.2,3.2,0,0,0,2.87-.118l28.57-7.227a3.15,3.15,0,0,0,2.379-3.056v-6.914l38.876,22.033v34.608a3.17,3.17,0,0,0,1.524,2.7l4.776,2.881a3.141,3.141,0,0,0,1.206.424l3.033,1.83.052.042a3.089,3.089,0,0,0,.791.444,3.2,3.2,0,0,0,2.871-.116l28.571-7.228a3.149,3.149,0,0,0,2.379-3.056v-6.914l38.877,22.033v34.608a3.169,3.169,0,0,0,1.524,2.7l4.776,2.881a3.153,3.153,0,0,0,1.628.453,3.159,3.159,0,0,0,1.387-.322l28.91-7.313a3.15,3.15,0,0,0,2.379-3.056v-36.786a3.065,3.065,0,0,0-.029-.423v-1.668l0-.015a3.057,3.057,0,0,0,.022-.556c0-.056.005-.115.005-.175Zm-33.307,80.309-3.515-2.12V-3633.2l3.515,1.985Zm-141.888-139.2,82.719,46.5-24.19,6.119-82.473-46.561Zm.779-1.009v-32.808l82.7,46.489v32.808Zm3.137-34.27,82.4,46.32-2.124.585-82.4-46.32Zm166.482,93.967-2.124.585-82.4-46.32,2.124-.585Zm-2.837,1.631v32.808l-82.7-46.488v-32.808Zm-107.426-6.615,23.945-6.057,82.719,46.5-24.19,6.119-75.922-42.862Zm111.276,38.969-2.589.707v-32.948l2.589-.714Zm.03,2.82L3018.9-3632.7v-1.251l28.322-7.164Zm-196.437-88.581,82.8,46.747v1.309l-82.8-46.928Zm-.016,2.568,3.515,1.992v35.01l-3.515-2.12Zm4.776,2.707,28.087,15.918v11.465l-28.087,7.1Zm74.529,42.328,3.515,1.985v35.052l-3.515-2.12Zm4.776,37.495v-34.882l3.514,1.992v35.01Zm4.775,2.312v-34.488l28.088,15.918v11.465Zm-4.759-38.635v-1.128l82.8,46.746v1.31Zm84.065,48.263,28.262-7.149v35.485l-28.262,7.15Zm-52.99-94.963h0Z" transform="translate(-2846.982 3774.469)"/><path class="c" d="M2902.219-3595.828l-28.087-15.918v34.488l28.087-7.1Z" transform="translate(-2865.574 3663.041)"/><path class="c" d="M2862.5-3583.33v-35.01l-3.515-1.992v34.882Z" transform="translate(-2855.199 3668.92)"/><path class="c" d="M2944.84-3597.79l24.19-6.119-82.718-46.5-23.946,6.057Z" transform="translate(-2857.517 3689.515)"/><path class="c" d="M2859.033-3627.352l82.8,46.928v-1.309l-82.8-46.746Z" transform="translate(-2855.234 3674.499)"/><path class="c" d="M3114.078-3475.482l-3.515-1.985v34.917l3.515,2.12Z" transform="translate(-3027.476 3571.089)"/><path class="c" d="M3023.5-3678.387V-3711.2l-82.7-46.489v32.808Z" transform="translate(-2911.227 3762.975)"/><path class="c" d="M3026.418-3715.416l2.124-.585-82.4-46.32-2.124.585Z" transform="translate(-2913.429 3766.151)"/><path class="c" d="M3140.863-3460.593v34.488l28.087-7.1v-11.465Z" transform="translate(-3048.225 3559.534)"/><path class="c" d="M3129.228-3432.177v-35.01l-3.514-1.992v34.882Z" transform="translate(-3037.85 3565.414)"/><path class="c" d="M3211.571-3446.636l24.19-6.119-82.719-46.5L3129.1-3493.2l6.551,3.7Z" transform="translate(-3040.168 3586.008)"/><path class="c" d="M3208.568-3429.271v-1.309l-82.8-46.747v1.128Z" transform="translate(-3037.885 3570.993)"/><path class="c" d="M3392.351-3344.277v1.252l28.322-7.165v-1.251Z" transform="translate(-3220.437 3484.79)"/><path class="c" d="M3420.708-3343.321l-28.263,7.15v35.486l28.263-7.149Z" transform="translate(-3220.502 3479.229)"/><path class="c" d="M3473.889-3460.248v32.948l2.59-.707v-32.955Z" transform="translate(-3276.272 3559.787)"/><path class="c" d="M3377.295-3326.313v34.917l3.515,2.12v-35.052Z" transform="translate(-3210.127 3467.583)"/><path class="c" d="M3207.532-3573.722l82.7,46.489v-32.808l-82.7-46.489Z" transform="translate(-3093.878 3659.469)"/><path class="c" d="M3212.872-3611.168l-2.124.585,82.4,46.32,2.124-.585Z" transform="translate(-3096.08 3662.645)"/></svg>