<svg width="494" height="415" xmlns="http://www.w3.org/2000/svg" xmlns:svg="http://www.w3.org/2000/svg">
 <g>
  <title>Layer 1</title>
  <path id="svg_2" d="m492.91353,377.68171c0,0 -0.2,-367.2 -0.2,-367.2c0,0 -8.1,-2 -8.1,-2c0,0 -18.1,-0.8 -18.1,-0.8c0,0 -13.9,2.1 -14,2.1c-0.1,0 -19,5.9 -19,5.9c0,0 -10.7,5.7 -10.7,5.7c0,0 -15.2,7.6 -15.2,7.6c0,0 -18.4,9.8 -18.4,9.8c0,0 -21.6,9.9 -21.7,9.9c-0.1,0 -12.5,4.1 -12.5,4.1c0,0 -10.2,3.3 -10.3,3.3c-0.1,0 -9.4,2.6 -9.4,2.6c0,0 -12.1,2.2 -12.1,2.2c0,0 -10.8,1.1 -10.8,1.1c0,0 -14.6,0.8 -14.6,0.8c0,0 -13.6,0.7 -13.6,0.7c0,0 -20.4,-1.5 -20.4,-1.5c0,0 -11.3,0 -11.3,0c0,0 -10.7,-1.1 -10.7,-1.1c0,0 -15.8,-1.6 -15.8,-1.6c0,0 -13.6,-1.2 -13.6,-1.2c0,0 -20.9,-2.1 -20.9,-2.1c0,0 -17.3,-1.8 -17.3,-1.8c0,0 -14.2,-0.6 -14.2,-0.6c0,0 -8.4,0.4 -8.4,0.4c0,0 -10.3,1.3 -10.3,1.3c0,0 -16,3.4 -16,3.4c0,0 -12.1,3.4 -12.1,3.4c0,0 -13.5,5 -13.5,5.1c0,0.1 -12.3,6.4 -12.3,6.4c0,0 -11.7,6.9 -11.7,6.9c0,0 -8.6,6.3 -8.6,6.3c0,0 -8.3,7.4 -8.3,7.4c0,0 -10,8 -10,8c0,0 -9.9,12.5 -9.9,12.5c0,0 -7.5,10 -7.5,10c0,0 -5.9,9.8 -5.9,9.8c0,0 -7.7,15.6 -7.7,15.6c0,0 -4.4,11.6 -4.4,11.6c0,0 -4.5,14.5 -4.5,14.5c0,0 -3.1,16.8 -2.9,17c0.2,0.2 -1.2,10.9 -1.2,10.9c0,0 -0.2,9.5 -0.2,9.5c0,0 0.4,15.7 0.4,15.7c0,0 2.4,13 2.4,13c0,0 4.7,17.1 4.7,17.2c0,0.1 5.7,16.2 5.7,16.2c0,0 6.2,13 6.2,13c0,0 8.8,15.4 8.8,15.4c0,0 9.3,11.5 9.3,11.5c0,0 13.6,14.3 13.6,14.3c0,0 12.8,10.7 12.8,10.7c0,0 14.9,10.5 14.9,10.5c0,0 17.7,8.1 17.7,8.1c0,0 15.1,5.5 15.1,5.5c0,0 22.4,5.9 22.4,5.9c0,0 19.5,1.8 19.5,1.8c0,0 35.9,0.5 35.9,0.5c0,0 29.9,1.4 29.9,1.4c0,0 16.9,1 16.9,1c0,0 17,2.3 17,2.3c0,0 19.1,4.5 19.1,4.5c0,0 18.3,5.3 18.3,5.3c0,0 16.1,5.1 16.1,5.1c0,0 22.8,7.8 22.8,7.8c0,0 16.6,4.3 16.6,4.3c0,0 15.3,2.2 15.3,2.2c0,0 17.3,0.2 17.3,0.2c0,0 21.6,-2.1 21.6,-2.1c0,0 20.7,-5.6 20.7,-5.6c0,0 20.4,-7.8 20.4,-7.8c0,0 18.1,-5.4 18.1,-5.4c0,0 16.8,-5.1 16.8,-5.1c0,0 12,-3.3 12,-3.3z" stroke="rgba(249, 236, 204, 0.6)" fill="rgba(249, 236, 204, 0.6)"/>
 </g>
</svg>