<svg xmlns="http://www.w3.org/2000/svg" width="227.951" height="141.965" viewBox="0 0 227.951 141.965"><defs><style>.a{fill:#474749;}.b{fill:#fff;}</style></defs><g transform="translate(-3002.195 797.17)"><path class="a" d="M3230.121-701.381l-.016-.11a2.959,2.959,0,0,0-1.106-1.873,2.881,2.881,0,0,0-.568-.344l-82.307-46.505v-38.052a2.98,2.98,0,0,0-.5-1.644,2.955,2.955,0,0,0-1.084-1.057l-10.3-5.819a2.943,2.943,0,0,0-2.217-.285l-12.652,3.344a2.955,2.955,0,0,0-2.186,2.49,2.727,2.727,0,0,0-.022.389c0,.034,0,.069,0,.107v27.85l-8.652,2.214v-16.608a2.978,2.978,0,0,0-.5-1.643,2.947,2.947,0,0,0-1.085-1.058l-10.3-5.818a2.942,2.942,0,0,0-2.22-.286l-12.652,3.344a2.956,2.956,0,0,0-2.186,2.489,2.805,2.805,0,0,0-.022.389c0,.034,0,.07,0,.107v26.495l-74.721,19.118a2.952,2.952,0,0,0-1.151.382,2.972,2.972,0,0,0-1.385,1.868l-.036.1-.062.558.01.084v12.995a2.973,2.973,0,0,0,1.509,2.585l105.436,59.563q.1.1.217.187a2.986,2.986,0,0,0,1.821.624,2.988,2.988,0,0,0,.738-.093l115.99-29.784a2.969,2.969,0,0,0,2.23-2.876V-701.02A2.584,2.584,0,0,0,3230.121-701.381Zm-135.033-81.2,8.818,4.981-11.007,2.909-8.818-4.982ZM3093.3-752.89l11.646-3.078v50.66l-11.646,2.969Zm-1.188-4.475-9-5.086v-16.292l9,5.1Zm1.188-16.188,11.646-2.969v16.416l-11.646,3.078Zm-10.19,12.465,9,5.086v1.545l-9-5.086Zm21.836,3.891-11.646,3.078V-755.8l11.646-3.078Zm-12.834,4.1v50.5l-9-5.1v-50.485Zm-10.19,45.745a.6.6,0,0,0,.3.517l10.19,5.772a.557.557,0,0,0,.068.028.523.523,0,0,0,.05.021.589.589,0,0,0,.174.029.585.585,0,0,0,.146-.018l12.834-3.272a.594.594,0,0,0,.447-.575v-51.545l13.4-3.429v41.5a.594.594,0,0,0,.3.516l10.191,5.772a.594.594,0,0,0,.068.028c.018.007.033.015.051.02a.585.585,0,0,0,.173.029.591.591,0,0,0,.147-.018l12.833-3.272a.594.594,0,0,0,.447-.575v-31.635l81.836,46.237-12.781,3.282L3111.25-671.959l-104.463-59.014,75.136-19.224Zm60.638-60.828-11.646,3.078v-1.681l11.646-3.078Zm0-19.325v16.416l-11.646,3.078v-16.524Zm-12.833,19.157-9-5.086v-16.292l9,5.1Zm-9-3.722,9,5.086v1.546l-9-5.086Zm21.836,55.778-11.646,2.969v-50.551l11.646-3.078Zm-12.048-69.385-8.819-4.982,11.007-2.909,8.819,4.982Zm-.785,21.6v50.5l-9-5.1v-50.485Zm96.855,75.653-114.8,29.479v-11.836l114.8-29.479Zm-220.816-41.768,104.826,59.219v11.675l-104.826-59.219Z" transform="translate(0)"/><path class="b" d="M3122.127-583.5l101.554-25.983,12.781-3.282-81.836-46.237v31.635a.594.594,0,0,1-.447.575l-12.833,3.272a.594.594,0,0,1-.147.018.586.586,0,0,1-.173-.029c-.018-.005-.034-.013-.051-.02a.557.557,0,0,1-.068-.028l-10.19-5.772a.594.594,0,0,1-.3-.517v-41.5l-13.4,3.429v51.545a.593.593,0,0,1-.447.575l-12.834,3.272a.587.587,0,0,1-.146.018.588.588,0,0,1-.173-.029c-.018-.005-.034-.013-.051-.02a.591.591,0,0,1-.068-.028l-10.19-5.772a.6.6,0,0,1-.3-.517v-42.85l-75.136,19.224Z" transform="translate(-10.877 -88.456)"/><path class="b" d="M3286.834-740.15l11.007-2.909-8.818-4.982-11.007,2.909Z" transform="translate(-193.935 -34.544)"/><path class="b" d="M3119.053-512.323l-104.826-59.219v11.675l104.826,59.219Z" transform="translate(-8.46 -158.644)"/><path class="b" d="M3283.754-669v-1.545l-9-5.086v1.545Z" transform="translate(-191.64 -85.457)"/><path class="b" d="M3274.751-735.1v16.292l9,5.086V-730Z" transform="translate(-191.64 -43.641)"/><path class="b" d="M3274.751-615.346l9,5.1v-50.5l-9-5.086Z" transform="translate(-191.64 -92.348)"/><path class="b" d="M3309.076-665.109v1.681l11.646-3.078v-1.681Z" transform="translate(-215.774 -90.69)"/><path class="b" d="M3320.722-711.2v-16.416l-11.646,2.969v16.524Z" transform="translate(-215.774 -48.903)"/><path class="b" d="M3320.722-658.388l-11.646,3.078v50.551l11.646-2.969Z" transform="translate(-215.774 -97.58)"/><path class="b" d="M3371.321-441.244v11.836l114.8-29.479v-11.836Z" transform="translate(-259.54 -229.531)"/><path class="b" d="M3404.713-782.112l8.819,4.982,11.007-2.909-8.819-4.982Z" transform="translate(-283.019 -8.542)"/><path class="b" d="M3410.451-705.979v-1.545l-9-5.086v1.546Z" transform="translate(-280.723 -59.456)"/><path class="b" d="M3401.448-772.082v16.292l9,5.086v-16.279Z" transform="translate(-280.723 -17.639)"/><path class="b" d="M3401.448-652.326l9,5.1v-50.5l-9-5.086Z" transform="translate(-280.723 -66.346)"/><path class="b" d="M3435.773-745.106l11.646-3.078V-764.6l-11.646,2.969Z" transform="translate(-304.858 -22.901)"/><path class="b" d="M3435.773-702.09v1.681l11.646-3.078v-1.681Z" transform="translate(-304.858 -64.688)"/><path class="b" d="M3447.419-695.368l-11.646,3.078v50.551l11.646-2.969Z" transform="translate(-304.858 -71.579)"/></g></svg>