<svg xmlns="http://www.w3.org/2000/svg" width="170.819" height="235.686" viewBox="0 0 170.819 235.686"><defs><style>.a{fill:none;}.b{fill:#474749;}.c{fill:#fff;}</style></defs><path class="a" d="M4339.426-5875.271a24.667,24.667,0,0,0-24.494,24.613,24.692,24.692,0,0,0,24.63,24.566,24.7,24.7,0,0,0,24.574-24.627A24.672,24.672,0,0,0,4339.426-5875.271Zm-.349,24.864q-8.291,4.75-16.56,9.543c-.063.036-.133.063-.341.161-3.577-6.93-3.7-13.8.362-20.452,3.816-6.242,9.611-9.275,17-9.542v1.377q0,8.966,0,17.932A.924.924,0,0,1,4339.077-5850.407Z" transform="translate(-4199.388 5968.429)"/><path class="b" d="M4062.442-5973.548l-56.3-31.811v-2.5l11.1-2.87a2.994,2.994,0,0,0,2.243-2.9v-43.533c0-.046,0-.093,0-.14a3,3,0,0,0-1.517-2.564L4011-6063.8a2.982,2.982,0,0,0-2.226-.292l-2.638.684V-6097l14.252-3.718a3,3,0,0,0,2.239-2.9V-6171.6a3.011,3.011,0,0,0-1.164-2.369,2.953,2.953,0,0,0-.852-.458l-10.562-5.968a2.972,2.972,0,0,0-2.226-.292l-1.714.445a6.084,6.084,0,0,0-3.214-4.383,13.8,13.8,0,0,0-5.937-1.72c-5.487-.394-9.665,1.967-9.929,5.64,0,.063-.006.126-.006.189v5.226l-3.233.839a2.981,2.981,0,0,0-2.217,2.5,2.635,2.635,0,0,0-.023.349c0,.042,0,.083,0,.125v67.974a3,3,0,0,0,1.521,2.607l3.954,2.234v93.043l-55.722,14.257a2.981,2.981,0,0,0-2.227,2.507,2.981,2.981,0,0,0,1.5,3l61.525,34.761a3,3,0,0,0,1.475.389,3,3,0,0,0,.742-.093l67.4-17.245a2.98,2.98,0,0,0,2.227-2.507A2.981,2.981,0,0,0,4062.442-5973.548Zm-71.824-206.945c.116-1.3,2.578-2.521,6.084-2.269a10.17,10.17,0,0,1,4.362,1.227c.989.586,1.53,1.289,1.484,1.928,0,.015,0,.029,0,.043v2.721l-11.928,3.095Zm11.928,199.938-.009.715c-.365,1.166-2.773,2.254-6.125,2.014a10.077,10.077,0,0,1-4.321-1.215c-.979-.581-1.513-1.275-1.468-1.906a.636.636,0,0,0-.005-.116v-118.32l4.364,2.465a.592.592,0,0,0,.09.088.6.6,0,0,0,.366.125.569.569,0,0,0,.151-.02l6.956-1.814V-6060l-7.583,1.967a.6.6,0,0,0-.444.5.6.6,0,0,0,0,.079c0,.016-.007.032-.007.049v43.526a.6.6,0,0,0,.3.521l6.853,3.871a.53.53,0,0,0,.052.05.6.6,0,0,0,.367.126.585.585,0,0,0,.15-.02l.307-.08Zm5.947-196.594,9.372,5.294-22.363,5.8-9.373-5.3Zm-23.35,6.7,9.7,5.479v66.6l-9.7-5.479Zm10.9,72.372v-66.747l23-6v66.747Zm-.326,41.7,5.779,3.265v42.15l-5.779-3.265Zm6.977,3.4,13.2-3.413v42.3l-13.2,3.413Zm-.529-1.183-5.462-3.086,12.747-3.307,5.462,3.085Zm-12.74,51.637v21.507a.442.442,0,0,0,0,.057c-.043,1.09.684,2.134,2.056,2.948a11.286,11.286,0,0,0,4.845,1.379q.517.037,1.015.037c3.309,0,5.918-1.2,6.375-3.014a.63.63,0,0,0,.018-.14l.01-.8v-22.038l55.634,31.433-65.722,16.816-60.021-33.912Z" transform="translate(-3929.049 6186.389)"/><path class="c" d="M4070.107-5541.106l-55.635-31.433v22.038l-.01.8a.615.615,0,0,1-.018.139c-.457,1.813-3.066,3.014-6.375,3.014q-.5,0-1.015-.037a11.288,11.288,0,0,1-4.845-1.379c-1.372-.813-2.1-1.858-2.056-2.947a.5.5,0,0,1,0-.057v-21.507l-55.785,14.273,60.021,33.912Z" transform="translate(-3939.778 5756.343)"/><path class="c" d="M4146.6-6168.436v-2.721c0-.015,0-.029,0-.043.046-.639-.5-1.342-1.483-1.928a10.172,10.172,0,0,0-4.362-1.226c-3.506-.252-5.967.967-6.084,2.269v6.745Z" transform="translate(-4073.101 6177.981)"/><path class="c" d="M4146.6-5805.836l-.307.08a.606.606,0,0,1-.15.019.6.6,0,0,1-.367-.125.72.72,0,0,1-.052-.05l-6.853-3.871a.6.6,0,0,1-.3-.521v-43.526c0-.017,0-.033.006-.049a.6.6,0,0,1,0-.079.6.6,0,0,1,.444-.5l7.583-1.968v-38.539l-6.957,1.815a.585.585,0,0,1-.15.019.6.6,0,0,1-.366-.125.6.6,0,0,1-.091-.088l-4.364-2.466v118.321a.593.593,0,0,1,.005.116c-.045.631.489,1.326,1.468,1.906a10.078,10.078,0,0,0,4.32,1.215c3.353.241,5.76-.849,6.126-2.014l.008-.715Z" transform="translate(-4073.101 5982.819)"/><path class="c" d="M4175.769-6067.663v-66.747l-23,6v66.747Zm-11.761-57.959c2.374-1.153,4.676-1.224,6.316-.2a5.268,5.268,0,0,1,2.259,4.706c0,4.461-3.613,9.844-8.053,12a8.414,8.414,0,0,1-3.632.919,5.007,5.007,0,0,1-2.685-.722,5.269,5.269,0,0,1-2.258-4.706C4155.956-6118.084,4159.568-6123.467,4164.008-6125.623Zm0,19.382c2.374-1.152,4.676-1.224,6.316-.2a5.269,5.269,0,0,1,2.259,4.707c0,4.46-3.613,9.844-8.053,12a8.414,8.414,0,0,1-3.632.919,5,5,0,0,1-2.685-.722,5.269,5.269,0,0,1-2.258-4.706C4155.956-6098.7,4159.568-6104.085,4164.008-6106.241Zm-8.053,31.382c0-4.461,3.612-9.844,8.053-12,2.374-1.152,4.676-1.224,6.316-.2a5.27,5.27,0,0,1,2.259,4.706c0,4.461-3.613,9.844-8.053,12a8.406,8.406,0,0,1-3.632.919,5,5,0,0,1-2.685-.722A5.271,5.271,0,0,1,4155.956-6074.858Z" transform="translate(-4085.782 6149.974)"/><path class="c" d="M4126.079-6061.08v-66.6l-9.7-5.479v66.6Z" transform="translate(-4060.289 6149.096)"/><path class="c" d="M4188.185-5709.929v-42.3l-13.2,3.413v42.3Zm-8.546-14.744a2.486,2.486,0,0,1,2.257-.96,3.171,3.171,0,0,1,2.293,2.021,6.4,6.4,0,0,1-.662,6.337,2.568,2.568,0,0,1-1.938.982,2.217,2.217,0,0,1-.32-.023,3.175,3.175,0,0,1-2.293-2.02A6.4,6.4,0,0,1,4179.639-5724.673Z" transform="translate(-4101.342 5882.226)"/><path class="c" d="M4157.459-5706.768v-42.151l-5.779-3.265v42.15Z" transform="translate(-4085.018 5882.197)"/><path class="c" d="M4154.974-5762.823l5.462,3.086,12.747-3.308-5.461-3.086Z" transform="translate(-4087.326 5891.967)"/><path class="c" d="M4190.973-5653.863a2.037,2.037,0,0,0,1.373,1.328,1.358,1.358,0,0,0,1.178-.556,5.272,5.272,0,0,0,.479-5.063,2.038,2.038,0,0,0-1.373-1.327,1.054,1.054,0,0,0-.145-.01,1.433,1.433,0,0,0-1.034.566A5.27,5.27,0,0,0,4190.973-5653.863Z" transform="translate(-4112.247 5817.26)"/><path class="b" d="M4189.356-5654.153a2.366,2.366,0,0,0,.32.022,2.565,2.565,0,0,0,1.938-.983,6.394,6.394,0,0,0,.662-6.336,3.173,3.173,0,0,0-2.292-2.021,2.486,2.486,0,0,0-2.257.96,6.4,6.4,0,0,0-.663,6.336A3.173,3.173,0,0,0,4189.356-5654.153Zm.311-8.143a1.049,1.049,0,0,1,.145.01,2.037,2.037,0,0,1,1.373,1.328,5.27,5.27,0,0,1-.479,5.063,1.356,1.356,0,0,1-1.177.556,2.037,2.037,0,0,1-1.373-1.327,5.274,5.274,0,0,1,.478-5.063A1.432,1.432,0,0,1,4189.667-5662.3Z" transform="translate(-4109.43 5820.063)"/><path class="c" d="M4119.674-6149.729l9.373,5.3,22.363-5.8-9.371-5.294Z" transform="translate(-4062.596 6164.771)"/><path class="c" d="M4167.407-6092.417a4.125,4.125,0,0,0,1.7,3.69c1.284.8,3.164.709,5.159-.259,4.068-1.976,7.378-6.875,7.378-10.922a4.123,4.123,0,0,0-1.7-3.69,3.816,3.816,0,0,0-2.051-.542,7.222,7.222,0,0,0-3.107.8C4170.717-6101.364,4167.407-6096.464,4167.407-6092.417Z" transform="translate(-4096.036 6128.768)"/><path class="b" d="M4165.666-6090.508a5,5,0,0,0,2.685.722,8.412,8.412,0,0,0,3.632-.919c4.44-2.155,8.053-7.538,8.053-12a5.266,5.266,0,0,0-2.259-4.706c-1.641-1.028-3.943-.956-6.317.2-4.44,2.155-8.053,7.538-8.053,12A5.268,5.268,0,0,0,4165.666-6090.508Zm11.475-15.887a4.125,4.125,0,0,1,1.7,3.691c0,4.048-3.31,8.947-7.378,10.922-1.994.969-3.875,1.063-5.159.259a4.125,4.125,0,0,1-1.7-3.69c0-4.048,3.31-8.948,7.378-10.922a7.224,7.224,0,0,1,3.106-.8A3.822,3.822,0,0,1,4177.141-6106.4Z" transform="translate(-4093.234 6131.565)"/><path class="c" d="M4167.407-6027.685a4.125,4.125,0,0,0,1.7,3.69c1.284.8,3.164.709,5.159-.259,4.068-1.975,7.378-6.875,7.378-10.922a4.125,4.125,0,0,0-1.7-3.691,3.825,3.825,0,0,0-2.051-.541,7.241,7.241,0,0,0-3.107.8C4170.717-6036.632,4167.407-6031.732,4167.407-6027.685Z" transform="translate(-4096.036 6083.418)"/><path class="b" d="M4165.666-6025.776a5.006,5.006,0,0,0,2.685.722,8.411,8.411,0,0,0,3.632-.919c4.44-2.156,8.053-7.539,8.053-12a5.268,5.268,0,0,0-2.259-4.706c-1.641-1.027-3.943-.956-6.317.2-4.44,2.156-8.053,7.539-8.053,12A5.269,5.269,0,0,0,4165.666-6025.776Zm11.475-15.888a4.125,4.125,0,0,1,1.7,3.691c0,4.047-3.31,8.947-7.378,10.922-1.994.968-3.875,1.063-5.159.259a4.127,4.127,0,0,1-1.7-3.691c0-4.047,3.31-8.947,7.378-10.922a7.238,7.238,0,0,1,3.106-.8A3.822,3.822,0,0,1,4177.141-6041.664Z" transform="translate(-4093.234 6086.216)"/><path class="c" d="M4167.407-5962.953a4.125,4.125,0,0,0,1.7,3.69c1.284.8,3.164.709,5.159-.259,4.068-1.975,7.378-6.875,7.378-10.922a4.124,4.124,0,0,0-1.7-3.691,3.812,3.812,0,0,0-2.051-.541,7.24,7.24,0,0,0-3.107.8C4170.717-5971.9,4167.407-5967,4167.407-5962.953Z" transform="translate(-4096.036 6038.068)"/><path class="b" d="M4168.351-5960.323a8.418,8.418,0,0,0,3.632-.919c4.44-2.155,8.053-7.539,8.053-12a5.269,5.269,0,0,0-2.259-4.706c-1.641-1.027-3.943-.956-6.317.2-4.44,2.155-8.053,7.538-8.053,12a5.27,5.27,0,0,0,2.259,4.706A5,5,0,0,0,4168.351-5960.323Zm8.79-16.609a4.123,4.123,0,0,1,1.7,3.69c0,4.048-3.31,8.947-7.378,10.922-1.994.968-3.875,1.063-5.159.259a4.125,4.125,0,0,1-1.7-3.69c0-4.048,3.31-8.947,7.378-10.922a7.236,7.236,0,0,1,3.106-.8A3.814,3.814,0,0,1,4177.141-5976.932Z" transform="translate(-4093.234 6040.866)"/><path class="b" d="M4347.65-5902.363a26.7,26.7,0,0,0-11.661-4.446c-.221-.031-.589-.232-.6-.371-.053-.959-.028-1.923-.028-2.945h4.54v-6.081h-15.255v6.088h4.563c0,.628,0,1.151,0,1.674,0,1.538,0,1.538-1.527,1.786a27.7,27.7,0,0,0-22.519,32.86,27.686,27.686,0,0,0,34.086,21.212,27.58,27.58,0,0,0,20.519-29.713A27.081,27.081,0,0,0,4347.65-5902.363Zm-15.337,47.593a24.691,24.691,0,0,1-24.63-24.566,24.667,24.667,0,0,1,24.494-24.613,24.673,24.673,0,0,1,24.71,24.552A24.7,24.7,0,0,1,4332.313-5854.77Z" transform="translate(-4192.14 5997.106)"/><path class="b" d="M4459.5-5880.986c.156-.127.278-.209.381-.312,1.361-1.353,2.719-2.708,4.1-4.089a35.416,35.416,0,0,0-10.762-10.79l-4.432,4.455A30.821,30.821,0,0,1,4459.5-5880.986Z" transform="translate(-4293.167 5983.074)"/><path class="b" d="M4350.2-5860c-7.387.268-13.182,3.3-17,9.543-4.065,6.648-3.937,13.522-.361,20.452.208-.1.277-.124.341-.16q8.276-4.777,16.56-9.543a.925.925,0,0,0,.462-.981q-.01-8.966,0-17.933Z" transform="translate(-4210.053 5957.728)"/></svg>