<svg width="350" height="440" xmlns="http://www.w3.org/2000/svg" xmlns:svg="http://www.w3.org/2000/svg">
 <g>
  <title>Layer 1</title>
  <path id="svg_4" d="m309.47268,207.55865c0,0 11.9,-43.8 11.9,-43.8c0,0 9.6,-30.7 9.6,-30.7c0,0 2.3,-11.4 2.3,-11.6c0,-0.2 1.1,-12.3 1.1,-12.3c0,0 -0.7,-12.2 -0.7,-12.2c0,0 -1.8,-12.3 -1.8,-12.3c0,0 -3.2,-11.6 -3.2,-11.6c0,0 -4.4,-10.4 -4.4,-10.4c0,0 -8.7,-14.2 -8.7,-14.2c0,0 -8.7,-10.6 -8.7,-10.6c0,0 -10.3,-9.4 -10.3,-9.4c0,0 -10.9,-7.1 -10.9,-7.1c0,0 -14.2,-7.3 -14.2,-7c0,0.3 -14.1,-4.1 -14.1,-4.1c0,0 -15.5,-2.7 -15.5,-2.7c0,0 -15.9,-0.1 -15.9,-0.1c0,0 -15.6,2 -15.6,2c0,0 -15.4,4 -15.4,4c0,0 -16.6,7.3 -16.6,7.2c0,-0.1 -14.8,8.9 -14.8,8.9c0,0 -7.6,4.4 -7.6,4.4c0,0 -6.9,6.1 -6.9,6.1c0,0 -10.1,9.1 -10.1,9.2c0,0.1 -9.4,11.4 -9.4,11.4c0,0 -8.4,12.4 -8.4,12.4c0,0 -9.4,18.2 -9.4,18.2c0,0 -9.1,17.5 -9.1,17.5c0,0 -9.5,17.3 -9.3,17.3c0.2,0 -10.8,18.3 -10.8,18.3c0,0 -8.3,12.8 -8.3,12.8c0,0 -9.7,13.2 -9.7,13.2c0,0 -10.1,11.1 -10.1,11.1c0,0 -9.8,9.3 -9.8,9.3c0,0 -12.4,11 -12.4,11c0,0 -10.7,9.9 -10.7,9.9c0,0 -5.5,6.6 -5.5,6.6c0,0 -6.6,13.9 -6.6,13.9c0,0 -2.6,7.6 -2.5,7.6c0.1,0 -1.1,5.7 -1.1,5.7c0,0 -0.2,8.2 -0.2,8.2c0,0 2.4,12 2.4,12.2c0,0.2 4.2,9.7 4.2,9.7c0,0 9.6,12.7 9.6,12.7c0,0 6.7,7.5 6.7,7.5c0,0 7,9 7,9c0,0 12.4,15.7 12.6,15.7c0.2,0 9.8,13.6 9.8,13.6c0,0 7.2,12.4 7.2,12.4c0,0 8,19.3 8,19.3c0,0 5.7,21.9 5.7,21.9c0,0 3.9,14.7 3.9,14.7c0,0 4.5,6.8 4.6,6.8c0.1,0 3.2,3.7 3.1,3.7c-0.1,0 5.1,3.1 5,3.1c-0.1,0 5.9,2.2 5.9,2.3c0,0.1 5.7,1.6 5.7,1.6c0,0 6.8,-0.4 6.8,-0.4c0,0 7.2,-1.6 7.2,-1.6c0,0 12,-5.6 12,-5.6c0,0 25.7,-13.6 25.7,-13.6c0,0 19.8,-7.3 19.8,-7.3c0,0 20.4,-3.5 20.4,-3.5c0,0 33.4,-4.7 33.4,-4.7c0,0 20.9,-2.9 20.9,-2.8c0,0.1 12.8,-4.4 12.8,-4.4c0,0 10.8,-6 10.8,-6c0,0 10.3,-9.2 10.3,-9.2c0,0 8.8,-11.5 8.8,-11.5c0,0 5.3,-11.1 5.3,-11.2c0,-0.1 2.7,-12.5 2.9,-12.5c0.2,0 1.3,-8 1.3,-8c0,0 -1.9,-12.9 -1.8,-12.9c0.1,0 -1.5,-16.9 -1.5,-16.9c0,0 -1.2,15.8 -1.2,-9.3c0,-25.1 0,-20.1 0,-20.1c0,0 0.3,-12.7 0.4,-12.7c0.1,0 3.6,-18 3.6,-18c0,0 2.7,-12.5 2.7,-12.5c0,0 1.8,-7.6 1.8,-7.6z" stroke-linecap="null" stroke-linejoin="null" stroke-dasharray="null" stroke-width="null" stroke="rgba(185, 215, 233, 1)" fill="rgba(185, 215, 233, 1)"/>
 </g>
</svg>