<svg width="487" height="192" xmlns="http://www.w3.org/2000/svg" xmlns:svg="http://www.w3.org/2000/svg">
 <g>
  <title>Layer 1</title>
  <path id="svg_8" d="m4.46708,190.89609l481.25,0l0,-188c0,0 -5.85,-0.15 -6.05,-0.05c-0.2,0.1 -11.3,0.6 -11.3,0.6c0,0 -16.9,2.9 -16.9,2.9c0,0 -18.1,5.3 -18.1,5.3c0,0 -19.8,8.8 -19.8,8.8c0,0 -12.6,7.2 -12.6,7.2c0,0 -15.7,9.7 -15.7,9.7c0,0 -19.4,11.6 -19.4,11.6c0,0 -20.3,10.9 -20.3,10.9c0,0 -21.6,11.7 -21.6,11.7c0,0 -17.8,9 -17.8,9c0,0 -16.2,5.1 -16.2,5.1c0,0 -22.5,7.3 -22.5,7.3c0,0 -14.6,3.8 -14.6,3.8c0,0 -13.2,2.2 -13.2,2.2c0,0 -15.4,1.1 -15.4,1.1c0,0 -22.9,1.4 -22.9,1.4c0,0 -36.1,0.5 -36.1,0.5c0,0 -22.9,-0.4 -23,-0.4c-0.1,0 -18,-0.4 -18,-0.4c0,0 -17.9,2.4 -17.9,2.4c0,0 -11.2,2.4 -11.2,2.4c0,0 -14.7,4.9 -14.7,4.9c0,0 -14.8,6.5 -14.8,6.5c0,0 -8.4,4.95 -16,10.9c-7.6,5.95 -10.7,9.5 -10.7,9.5c0,0 -18.5,20.5 -18.5,20.5c0,0 -7.1,11.6 -7.1,11.6c0,0 -5.2,11.2 -5.2,11.2c0,0 -3.7,9.85 -3.7,9.85z" stroke-linecap="null" stroke-linejoin="null" stroke-dasharray="null" stroke-width="null" stroke="rgba(249, 218, 242, 0.6)" fill="rgba(249, 218, 242, 0.6)"/>
 </g>
</svg>