<svg xmlns="http://www.w3.org/2000/svg" width="200.734" height="153.076" viewBox="0 0 200.734 153.076"><defs><style>.a{fill:none;}.b{fill:#474749;}.c{fill:#fff;}</style></defs><path class="a" d="M1459.7-3530.226v-34.206l-19.087,8.492v34.223Z" transform="translate(-1377.104 3601.142)"/><path class="a" d="M1347.14-3483.442v-34.235l-22.53,10.025v34.254Z" transform="translate(-1297.67 3569.125)"/><path class="a" d="M1545.691-3567.435l17.984-8.018v-34.179l-17.984,8Z" transform="translate(-1449.06 3632.093)"/><path class="b" d="M1438.441-3588.559a3.133,3.133,0,0,0-.412-.225l-70.234-39.594v-36.293l4.473-1.99a3.156,3.156,0,0,0,1.87-2.88v-5.234a3.139,3.139,0,0,0-1.438-2.645,3.126,3.126,0,0,0-.938-.407l-4.682-2.651a3.166,3.166,0,0,0-2.84-.138l-123.227,54.937-.062.029-.279.148a2.671,2.671,0,0,0-.309.217c-.058.045-.128.1-.2.169a3.122,3.122,0,0,0-.326.351,3.246,3.246,0,0,0-.212.3,3.066,3.066,0,0,0-.211.405,2.782,2.782,0,0,0-.129.341,2.894,2.894,0,0,0-.091.393c-.013.067-.023.134-.031.2l-.018.1v5.332a3.167,3.167,0,0,0,1.807,2.851l5.915,2.79a2.675,2.675,0,0,0,.33.128c.071.025.141.047.208.064a3.085,3.085,0,0,0,1.593,0c.061-.016.119-.033.177-.052a2.791,2.791,0,0,0,.314-.117l2.559-1.139v34.267l-11.035,4.92a3.137,3.137,0,0,0-1.866,2.732,3.138,3.138,0,0,0,1.6,2.893l71.2,40.14a3.17,3.17,0,0,0,1.287.4l.332.011.123,0h.017a3.112,3.112,0,0,0,.644-.1l123.157-31.625a3.15,3.15,0,0,0,2.369-3.053v-23.326A3.141,3.141,0,0,0,1438.441-3588.559Zm-2.346,25.482-115.445,29.644,115.445-51.51Zm-122.563,31.408-69.835-39.369,10.872-4.847v2.9a.631.631,0,0,0,.32.549l3.422,1.938a.607.607,0,0,0,.09.037.5.5,0,0,0,.054.022.632.632,0,0,0,.167.024.645.645,0,0,0,.151-.02c.016,0,.031-.011.046-.016a.606.606,0,0,0,.073-.026l4.311-2.044a.631.631,0,0,0,.36-.57v-6.807l27.573-12.293v3.1a.63.63,0,0,0,.32.549l3.422,1.938a.707.707,0,0,0,.09.037c.018.007.035.016.054.022a.63.63,0,0,0,.166.023.621.621,0,0,0,.151-.02c.016,0,.031-.011.047-.016a.567.567,0,0,0,.073-.025l4.31-2.045a.631.631,0,0,0,.36-.57v-7l24.13-10.757v3.359a.631.631,0,0,0,.32.549l3.422,1.938a.664.664,0,0,0,.09.037c.018.007.035.017.054.022a.633.633,0,0,0,.167.023.649.649,0,0,0,.151-.02c.016,0,.031-.011.046-.016s.049-.014.073-.025l4.31-2.045a.63.63,0,0,0,.36-.57v-7.263l23.027-10.266v3.384a.63.63,0,0,0,.32.548l3.422,1.939a.617.617,0,0,0,.09.036.52.52,0,0,0,.054.022.642.642,0,0,0,.167.023.661.661,0,0,0,.151-.02c.016,0,.031-.011.046-.016a.626.626,0,0,0,.073-.025l4.31-2.045a.63.63,0,0,0,.36-.569v-7.288l.216-.1,69.821,39.362L1398-3569.325Zm56.057-143.042-121.565,54.2-4.28-2.24,121.747-54.277Zm-126.662,52.952,4.65,2.434v3.421l-4.65-2.193Zm5.911,2.46,73.75-33.078,47.768-21.3v3.721l-121.518,54.07Zm108.7-43.571,2.162-.961v46.842l-2.162-1.224Zm-32.021,14.248,2.162-.962v46.845l-2.162-1.224Zm-33.123,14.739,2.161-.962v46.615l-2.161-1.224Zm-33.144,14.748,3.049-1.357v47.006l-3.049,1.447Zm29.361-10.3v34.235l-22.53,10.044v-34.254Zm7.205-5.967,3.049-1.356v47.171l-3.049,1.447Zm25.918-8.772v34.206l-19.087,8.509v-34.223Zm7.205-5.966,3.049-1.357v47.4l-3.049,1.447Zm24.816,25.9-17.984,8.017v-34.194l17.984-8Zm7.205-40.146,3.049-1.356v47.4l-3.049,1.447Zm-102.972,45.818v46.45l-2.162-1.225v-44.264Z" transform="translate(-1239.144 3680.887)"/><path class="c" d="M1445.2-3465.3l-69.821-39.361-.216.1v7.288a.631.631,0,0,1-.36.57l-4.31,2.044a.585.585,0,0,1-.073.025.423.423,0,0,1-.046.016.622.622,0,0,1-.151.02.63.63,0,0,1-.167-.023c-.019-.005-.036-.015-.054-.022a.635.635,0,0,1-.09-.036l-3.422-1.939a.63.63,0,0,1-.32-.548v-3.384l-23.028,10.266v7.263a.63.63,0,0,1-.36.57l-4.31,2.045a.572.572,0,0,1-.073.024.4.4,0,0,1-.046.016.623.623,0,0,1-.151.02.622.622,0,0,1-.167-.023.57.57,0,0,1-.054-.022.681.681,0,0,1-.09-.037l-3.422-1.938a.631.631,0,0,1-.32-.549v-3.36l-24.13,10.758v7a.63.63,0,0,1-.36.57l-4.31,2.045a.659.659,0,0,1-.073.025l-.046.016a.636.636,0,0,1-.151.02.631.631,0,0,1-.166-.023c-.019-.005-.036-.015-.054-.022a.789.789,0,0,1-.09-.036l-3.422-1.938a.631.631,0,0,1-.32-.549v-3.1l-27.573,12.292v6.807a.63.63,0,0,1-.36.57l-4.31,2.045a.626.626,0,0,1-.073.025c-.016,0-.03.011-.046.016a.622.622,0,0,1-.151.02.634.634,0,0,1-.167-.023c-.019-.005-.036-.015-.054-.022a.677.677,0,0,1-.09-.037l-3.422-1.938a.631.631,0,0,1-.32-.549v-2.9l-10.872,4.847,69.835,39.369,84.466-37.656Z" transform="translate(-1249.035 3560.209)"/><path class="c" d="M1292.079-3437.982l2.161,1.224v-46.45l-2.161.962Z" transform="translate(-1275.393 3545.522)"/><path class="c" d="M1305.986-3489.292l-3.049,1.357v47.1l3.049-1.446Z" transform="translate(-1282.828 3549.688)"/><path class="c" d="M1410.244-3534.824l-2.162.962v44.428l2.162,1.224Z" transform="translate(-1354.829 3580.866)"/><path class="c" d="M1421.989-3540.908l-3.049,1.356v47.261l3.049-1.447Z" transform="translate(-1362.264 3585.033)"/><path class="c" d="M1616.9-3626.778l-2.161.962v44.656l2.161,1.225Z" transform="translate(-1496.344 3643.835)"/><path class="c" d="M1628.649-3632.862l-3.049,1.357v47.488l3.049-1.447Z" transform="translate(-1503.779 3648.001)"/><path class="c" d="M1515.322-3581.579l-2.162.962v44.659l2.162,1.224Z" transform="translate(-1426.783 3612.884)"/><path class="c" d="M1527.067-3587.663l-3.049,1.358v47.491l3.049-1.447Z" transform="translate(-1434.218 3617.05)"/><path class="c" d="M1497.708-3325.008l115.446-29.644v-21.866Z" transform="translate(-1416.202 3472.463)"/><path class="c" d="M1391.414-3654.277V-3658l-47.768,21.3-73.75,33.078v3.417Z" transform="translate(-1260.203 3665.213)"/><path class="c" d="M1253.734-3614.379l4.28,2.24,121.565-54.2-4.1-2.321Z" transform="translate(-1249.135 3672.511)"/><path class="c" d="M1255.795-3490.877l-4.65-2.434v3.661l4.65,2.193Z" transform="translate(-1247.362 3552.44)"/></svg>