<svg xmlns="http://www.w3.org/2000/svg" width="215.315" height="225.738" viewBox="0 0 215.315 225.738"><defs><style>.a{fill:#474749;}.b{fill:#fff;}</style></defs><path class="a" d="M3198.531-6087.5a2.98,2.98,0,0,0-1.52-2.728l-80.979-45.753a2.973,2.973,0,0,0-2.23-.294l-105.94,27.491a2.984,2.984,0,0,0-2.216,2.513,2.922,2.922,0,0,0,0,.761v112.016l-19.61,5.025a2.97,2.97,0,0,0-1.333.4,3,3,0,0,0-1.487,2.587v7.947a3,3,0,0,0,1.516,2.6l20.914,11.867v3.579a2.957,2.957,0,0,0,1.5,2.571l80.375,45.406a2.952,2.952,0,0,0,.279.246,3.01,3.01,0,0,0,1.834.626,3.013,3.013,0,0,0,.752-.1l105.9-27.474a3,3,0,0,0,2.243-2.9V-6087.39C3198.533-6087.426,3198.532-6087.464,3198.531-6087.5Zm-189.371,123.675,11.668,6.621a.541.541,0,0,0,.069.028c.018.007.034.016.051.021a.6.6,0,0,0,.175.029.591.591,0,0,0,.149-.019l23.488-6.02a.592.592,0,0,0,.124.016.634.634,0,0,0,.148-.018l18.523-4.719a.6.6,0,0,0,.446-.5.536.536,0,0,0,0-.093.524.524,0,0,0,.007-.081v-7.947a.6.6,0,0,0-.008-.069c0-.012,0-.023,0-.034a.6.6,0,0,0-.22-.37.583.583,0,0,0-.141-.079l-21.689-12.254c.515-.909,1.062-1.811,1.636-2.686a.435.435,0,0,0-.125-.6.436.436,0,0,0-.6.125c-.584.891-1.142,1.809-1.666,2.735l-12.435-7.026a.6.6,0,0,0-.443-.059l-19.149,4.907V-6104.8l79.879,45.125v144.986l-79.879-45.125Zm80.524-96.946L3010.2-6105.68l104.27-27.057,79.484,44.908Zm.552,1.319,104.7-27.163v145.049l-104.7,27.163Zm-61.864,63.844,33.441,18.895-25.514,6.5c.009-.376.021-.757.044-1.141a.435.435,0,0,0-.409-.46.431.431,0,0,0-.46.408c-.028.477-.042.949-.049,1.416l-14.258,3.631-33.3-18.87Zm-6.65,30.4,36.623-9.386,4.462-1.137v6.7l-41.085,10.529Zm-34.911-19.247,33.675,19.085.033,6.613-33.708-19.126Z" transform="translate(-2983.218 6136.373)"/><path class="b" d="M3073.33-6097.173l79.484,44.909,104.27-27.058L3177.6-6124.23Z" transform="translate(-3046.348 6127.866)"/><path class="b" d="M3149.735-5985.793l-79.879-45.125v112.875L3089-5922.95a.6.6,0,0,1,.443.059l12.435,7.026c.524-.926,1.082-1.845,1.666-2.735a.436.436,0,0,1,.6-.125.435.435,0,0,1,.125.6c-.574.875-1.122,1.777-1.636,2.686l21.689,12.254a.614.614,0,0,1,.141.079.6.6,0,0,1,.22.37c0,.011,0,.023,0,.034a.6.6,0,0,1,.008.069v7.947a.556.556,0,0,1-.007.081.566.566,0,0,1,0,.093.6.6,0,0,1-.446.5l-18.523,4.719a.636.636,0,0,1-.148.018.592.592,0,0,1-.124-.016l-23.488,6.02a.587.587,0,0,1-.148.019.58.58,0,0,1-.175-.029.514.514,0,0,1-.051-.021.457.457,0,0,1-.069-.028l-11.668-6.621v4.016l79.879,45.125Zm-75.51,41.911c-.82.908-1.615,1.861-2.365,2.832a.435.435,0,0,1-.345.169.433.433,0,0,1-.266-.091.436.436,0,0,1-.079-.61c.763-.988,1.573-1.958,2.408-2.883a.436.436,0,0,1,.615-.031A.435.435,0,0,1,3074.225-5943.882Zm5.346-5.078c-.951.773-1.883,1.593-2.771,2.436a.434.434,0,0,1-.3.12.434.434,0,0,1-.316-.135.435.435,0,0,1,.016-.615c.9-.859,1.853-1.693,2.821-2.48a.435.435,0,0,1,.612.063A.435.435,0,0,1,3079.572-5948.959Zm6.057-4.2c-1.06.624-2.106,1.292-3.109,1.988a.433.433,0,0,1-.248.077.434.434,0,0,1-.358-.187.434.434,0,0,1,.109-.6c1.021-.708,2.085-1.389,3.164-2.023a.435.435,0,0,1,.6.155A.434.434,0,0,1,3085.629-5953.164Zm4.869-2.512c-.54.243-1.083.5-1.612.758a.429.429,0,0,1-.192.045.434.434,0,0,1-.391-.243.435.435,0,0,1,.2-.583c.539-.265,1.09-.524,1.64-.771a.434.434,0,0,1,.575.218A.435.435,0,0,1,3090.5-5955.676Zm18.284,31.716c-.82.909-1.615,1.861-2.365,2.832a.435.435,0,0,1-.344.169.434.434,0,0,1-.266-.09.435.435,0,0,1-.079-.61c.763-.989,1.573-1.958,2.408-2.883a.435.435,0,0,1,.615-.031A.434.434,0,0,1,3108.782-5923.96Zm5.346-5.077c-.95.773-1.883,1.592-2.77,2.436a.435.435,0,0,1-.3.12.431.431,0,0,1-.315-.136.435.435,0,0,1,.016-.615c.9-.858,1.853-1.693,2.821-2.48a.435.435,0,0,1,.612.063A.435.435,0,0,1,3114.128-5929.037Zm6.057-4.2c-1.06.623-2.106,1.292-3.108,1.987a.437.437,0,0,1-.248.077.433.433,0,0,1-.358-.187.435.435,0,0,1,.11-.605c1.021-.708,2.085-1.388,3.164-2.022a.434.434,0,0,1,.6.155A.434.434,0,0,1,3120.186-5933.241Zm3.257-1.754a.432.432,0,0,1-.191.045.435.435,0,0,1-.391-.244.435.435,0,0,1,.2-.583c.538-.265,1.089-.523,1.64-.771a.436.436,0,0,1,.576.219.435.435,0,0,1-.219.575C3124.513-5935.511,3123.971-5935.255,3123.443-5935Z" transform="translate(-3043.914 6062.495)"/><path class="b" d="M3445.331-5970.2l-104.7,27.163v145.049l104.7-27.163Zm-71.2,71.683c0-.017,0-.033.006-.049a.6.6,0,0,1,0-.079.6.6,0,0,1,.444-.5l38.844-10.078a.6.6,0,0,1,.445.059l6.959,3.933a.594.594,0,0,1,.3.552.5.5,0,0,1,.006.054v43.533a.6.6,0,0,1-.449.58l-38.829,10.073a.6.6,0,0,1-.15.019.6.6,0,0,1-.366-.125c-.019-.015-.035-.034-.052-.05l-6.853-3.872a.6.6,0,0,1-.3-.522Z" transform="translate(-3233.609 6019.956)"/><path class="b" d="M3479.814-5696.56l37.631-9.763v-42.3l-37.631,9.763Z" transform="translate(-3331.12 5864.723)"/><path class="b" d="M3152.9-5593.172v-6.7l-4.462,1.137-36.624,9.386v6.711Z" transform="translate(-3073.306 5760.519)"/><path class="b" d="M3032.061-5637.013l14.258-3.631c.007-.466.021-.938.049-1.415a.432.432,0,0,1,.46-.409.436.436,0,0,1,.409.46c-.023.383-.036.764-.044,1.141l25.514-6.5-33.441-18.895-40.5,10.378Zm16.651-16.058c.418-1.165.893-2.337,1.411-3.483a.434.434,0,0,1,.575-.217.435.435,0,0,1,.218.576c-.509,1.125-.975,2.275-1.385,3.418a.436.436,0,0,1-.41.289.431.431,0,0,1-.147-.026A.435.435,0,0,1,3048.711-5653.071Zm-1.916,7.268c.2-1.21.471-2.447.8-3.679a.434.434,0,0,1,.532-.309.435.435,0,0,1,.31.532c-.32,1.2-.582,2.416-.78,3.6a.434.434,0,0,1-.429.363.456.456,0,0,1-.073-.006A.435.435,0,0,1,3046.8-5645.8Z" transform="translate(-2994.109 5807.026)"/><path class="b" d="M3028.926-5603.314l-.033-6.613-33.675-19.084v6.571Z" transform="translate(-2991.625 5780.93)"/><path class="b" d="M3459.807-5752.837l5.462,3.086,37.173-9.646-5.459-3.085Z" transform="translate(-3317.103 5874.436)"/><path class="b" d="M3462.293-5724.105l-5.779-3.265v42.151l5.779,3.265Z" transform="translate(-3314.797 5849.837)"/><path class="a" d="M3452.819-5711.846l6.854,3.872a.66.66,0,0,0,.051.05.6.6,0,0,0,.366.125.6.6,0,0,0,.15-.02l38.829-10.073a.6.6,0,0,0,.448-.58V-5762a.539.539,0,0,0-.006-.054.6.6,0,0,0-.3-.553l-6.96-3.933a.6.6,0,0,0-.445-.059l-38.845,10.078a.6.6,0,0,0-.444.5.569.569,0,0,0,0,.079.491.491,0,0,0-.007.049v43.526A.6.6,0,0,0,3452.819-5711.846Zm.893-43.022,5.779,3.265v42.15l-5.779-3.264Zm44.607,35.933-37.631,9.763v-42.3l37.631-9.762Zm-38.159-33.716-5.462-3.086,37.176-9.645,5.459,3.085Z" transform="translate(-3311.995 5877.335)"/><path d="M3050.365-5696.937a.431.431,0,0,0,.147.026.436.436,0,0,0,.41-.289c.41-1.144.876-2.293,1.385-3.418a.435.435,0,0,0-.217-.576.435.435,0,0,0-.576.217c-.518,1.146-.993,2.317-1.412,3.483A.435.435,0,0,0,3050.365-5696.937Z" transform="translate(-3030.057 5831.525)"/><path d="M3044.107-5673.333a.456.456,0,0,0,.073.006.436.436,0,0,0,.429-.364c.2-1.183.461-2.394.78-3.6a.436.436,0,0,0-.309-.533.436.436,0,0,0-.532.31c-.326,1.23-.594,2.468-.8,3.679A.435.435,0,0,0,3044.107-5673.333Z" transform="translate(-3025.621 5815.135)"/><path d="M3093.552-5759.683c-.968.788-1.917,1.622-2.821,2.48a.435.435,0,0,0-.016.615.433.433,0,0,0,.315.135.435.435,0,0,0,.3-.119c.888-.843,1.82-1.663,2.771-2.437a.435.435,0,0,0,.063-.612A.435.435,0,0,0,3093.552-5759.683Z" transform="translate(-3058.444 5872.543)"/><path d="M3076.445-5742.525c-.835.924-1.645,1.895-2.408,2.882a.436.436,0,0,0,.079.611.433.433,0,0,0,.266.09.433.433,0,0,0,.345-.169c.75-.971,1.545-1.923,2.365-2.832a.435.435,0,0,0-.031-.615A.435.435,0,0,0,3076.445-5742.525Z" transform="translate(-3046.78 5860.555)"/><path d="M3113.219-5773.886c-1.079.634-2.144,1.315-3.164,2.023a.435.435,0,0,0-.109.605.435.435,0,0,0,.358.187.431.431,0,0,0,.248-.078c1-.695,2.048-1.364,3.109-1.987a.435.435,0,0,0,.155-.6A.436.436,0,0,0,3113.219-5773.886Z" transform="translate(-3071.946 5882.467)"/><path d="M3133.2-5782.37c-.549.246-1.1.506-1.64.771a.435.435,0,0,0-.2.583.434.434,0,0,0,.391.243.433.433,0,0,0,.192-.044c.53-.26,1.072-.516,1.612-.758a.435.435,0,0,0,.219-.575A.435.435,0,0,0,3133.2-5782.37Z" transform="translate(-3086.97 5888.395)"/><path d="M3191.854-5675.991c-.835.925-1.645,1.894-2.408,2.883a.435.435,0,0,0,.078.61.437.437,0,0,0,.266.09.434.434,0,0,0,.345-.169c.749-.971,1.545-1.923,2.365-2.832a.436.436,0,0,0-.031-.615A.435.435,0,0,0,3191.854-5675.991Z" transform="translate(-3127.633 5813.943)"/><path d="M3228.63-5707.351c-1.079.633-2.143,1.314-3.164,2.022a.435.435,0,0,0-.109.605.433.433,0,0,0,.358.187.431.431,0,0,0,.248-.078c1-.7,2.048-1.364,3.108-1.987a.435.435,0,0,0,.155-.6A.434.434,0,0,0,3228.63-5707.351Z" transform="translate(-3152.799 5835.854)"/><path d="M3208.962-5693.148c-.968.787-1.917,1.622-2.821,2.48a.435.435,0,0,0-.016.615.433.433,0,0,0,.316.136.436.436,0,0,0,.3-.12c.888-.843,1.82-1.663,2.771-2.436a.435.435,0,0,0,.063-.612A.435.435,0,0,0,3208.962-5693.148Z" transform="translate(-3139.297 5825.931)"/><path d="M3159.516-5606.8a.455.455,0,0,0,.072.006.435.435,0,0,0,.429-.363c.2-1.183.46-2.395.78-3.6a.436.436,0,0,0-.31-.532.435.435,0,0,0-.532.309c-.326,1.231-.594,2.468-.8,3.679A.435.435,0,0,0,3159.516-5606.8Z" transform="translate(-3106.473 5768.522)"/><path d="M3165.774-5630.4a.433.433,0,0,0,.147.026.436.436,0,0,0,.41-.288c.41-1.143.875-2.293,1.385-3.419a.435.435,0,0,0-.218-.575.435.435,0,0,0-.576.217c-.519,1.146-.994,2.318-1.411,3.483A.435.435,0,0,0,3165.774-5630.4Z" transform="translate(-3110.91 5784.913)"/><path d="M3249.183-5715.618a.436.436,0,0,0-.576-.218c-.55.247-1.1.507-1.64.771a.434.434,0,0,0-.2.582.434.434,0,0,0,.391.244.433.433,0,0,0,.192-.044c.528-.261,1.071-.516,1.612-.759A.436.436,0,0,0,3249.183-5715.618Z" transform="translate(-3167.824 5841.784)"/></svg>