<svg xmlns="http://www.w3.org/2000/svg" width="183.744" height="241.225" viewBox="0 0 183.744 241.225"><defs><style>.a{fill:none;}.b{fill:#474749;}.c{fill:#fff;}</style></defs><g transform="translate(0 0)"><path class="a" d="M2401.779-3543.143l5.793-1.49-5.787-3.253Z" transform="translate(-2287.028 3677.96)"/><path class="a" d="M2401.7-3512.312l-.019,14.236,59.221,33.46v-28.713l-41.752-23.471Z" transform="translate(-2286.958 3656.674)"/><path class="b" d="M2221.493-3797.059v-103.6a3.156,3.156,0,0,0-1.606-2.747l-70.662-39.722v-9.106a2.72,2.72,0,0,0-.025-.367l-.035-.226a3.082,3.082,0,0,0-.258-.764l-.124-.234-.044-.06a3.172,3.172,0,0,0-.287-.378c-.05-.056-.1-.109-.145-.151a2.855,2.855,0,0,0-.283-.25l-.029-.021-.088-.077-9.493-5.363a3.039,3.039,0,0,0-2.27-.3l-79.806,20.682a3.046,3.046,0,0,0-2.263,2.565c-.011.088-.018.171-.021.248l0,.025v160.784l-15.069,10.7a2.912,2.912,0,0,0-1.228,2.536,2.911,2.911,0,0,0,1.483,2.4l72.239,40.81a2.63,2.63,0,0,0,.348.164l.125.055.187.051a2.922,2.922,0,0,0,.774.1,2.9,2.9,0,0,0,.719-.09l26.362-6.675a2.922,2.922,0,0,0,.687-.271l78.393-20.129a2.927,2.927,0,0,0,2.2-2.835v-12.057a2.928,2.928,0,0,0-.02-.323l-.03-.2c-.007-.039-.015-.078-.024-.117l.046-33.836A3.124,3.124,0,0,0,2221.493-3797.059Zm-180.064,33.986,25.441-18.068,3.05,1.487c.02.01.042.014.062.022l65.224,36.851a.621.621,0,0,0,.287.3l1.723.84,1.117.631a.626.626,0,0,0,.088.168l-25.538,18.139Zm95.407-193.826,7.921,4.474-78.318,20.3-7.92-4.475Zm79.689,120.071-77.5,19.929-1.68-1.007,77.5-19.929Zm-64.025,11.119.007-4.743,5.786,3.253Zm64.912,62.923-1.94-1.163v-71.306l2.039-.524Zm-77.858,20.752v-57.814l6.461-1.635,2.975,1.783a.636.636,0,0,0,.324.09.624.624,0,0,0,.31-.082c.006,0,.01-.007.015-.01l65.056,36.756,2.227,1.335Zm5.93-131.6v52.337l-9.915,2.549h0l-.01,0a.62.62,0,0,0-.144.058l-.008.006c-.019.011-.034.026-.051.039a.638.638,0,0,0-.086.071c-.016.017-.028.036-.042.054a.628.628,0,0,0-.058.088.554.554,0,0,0-.028.065.642.642,0,0,0-.03.1c0,.012-.009.022-.01.033s0,.027,0,.042-.007.032-.007.05l.01,18.117-64.278,16.264v-70.682Zm-77.857,17.9,1.5.9.439.263v73.343l-1.894-.923Zm77.857,53.085-5.93,1.5v-14.3l5.93-1.525Zm66.206,34.179-59.221-33.46.019-14.236,17.45-4.488,41.752,23.471Zm-39.634-55.331,42.156-10.841v34.538Zm-23.371,22.449-1.94-1.163v-15.067l1.962-.5Zm-10.392-14.513v73.342l-1.894-.923-.043-73.581,1.888,1.131Zm-3.188,17.143.033,54.817-64.311-36.332v-2.22Zm13.608-23.409-1.968.506v-52.337l2.039-.524Zm-1.636-53.218-76.783,19.744-1.679-1.007,77.5-19.929,1.679,1.007Zm-1.441-66.091a.62.62,0,0,0-.05.233v63.5l-78.746,20.25c-.014,0-.026.009-.039.013v-73.66l78.835-20.445Zm72.074,103.854-2.443-1.464a.627.627,0,0,0-.481-.07l-48.018,12.347-16.776-9.43.053-39.095a.623.623,0,0,0-.007-.063.468.468,0,0,0-.006-.052.617.617,0,0,0-.043-.14c0-.006,0-.012-.006-.018a.6.6,0,0,0-.092-.138c-.01-.012-.023-.022-.034-.034a.6.6,0,0,0-.055-.054c-.013-.01-.028-.016-.04-.024s-.014-.014-.023-.019l-2.893-1.734v-62.555l70.864,39.836Zm-151.978-93.6v149.859l-8.093,5.748v-160.191Zm73.132,191.018v10.949l-23.956,6.066Zm.809-.574,6.087-1.562,72.176-18.263v10.951l-78.263,20.1Z" transform="translate(-2037.749 3960.526)"/><path class="c" d="M2111.558-3924.247l78.317-20.3-7.921-4.474-78.317,20.3Z" transform="translate(-2082.868 3952.645)"/><path class="c" d="M2108.941-3727.544V-3877.4l-8.093-4.584V-3721.8Z" transform="translate(-2080.958 3906.745)"/><path class="c" d="M2206.96-3611.271l-.01-18.118a.487.487,0,0,1,.006-.049c0-.014,0-.028,0-.041s.008-.022.01-.034a.653.653,0,0,1,.03-.1.538.538,0,0,1,.028-.066.618.618,0,0,1,.058-.088.621.621,0,0,1,.042-.054.656.656,0,0,1,.085-.071c.017-.013.032-.028.051-.039l.009-.006a.61.61,0,0,1,.144-.058l.01,0h0l9.915-2.549v-52.337l-74.658,19.2v70.682Z" transform="translate(-2109.605 3771.774)"/><path class="c" d="M2129.909-3911.6v73.661a.4.4,0,0,1,.039-.014l78.747-20.249v-63.5a.628.628,0,0,1,.05-.233v-10.109Z" transform="translate(-2100.858 3941.025)"/><path class="c" d="M2360.709-3489.292l5.93-1.5v-14.32l-5.93,1.525Z" transform="translate(-2258.904 3648.67)"/><path class="c" d="M2505.973-3561.177l-42.156,10.84,42.156,23.7Z" transform="translate(-2329.51 3687.062)"/><path class="c" d="M2383.844-3833.268l2.893,1.734c.009.005.014.013.023.019s.027.014.04.024a.706.706,0,0,1,.054.054c.012.012.024.022.034.034a.588.588,0,0,1,.092.138.117.117,0,0,1,.007.018.619.619,0,0,1,.043.14c0,.017,0,.035.006.052a.614.614,0,0,1,.007.063l-.053,39.095,16.776,9.43,48.018-12.347a.629.629,0,0,1,.481.07l2.443,1.465v-62.707l-70.864-39.836Z" transform="translate(-2274.746 3916.219)"/><path class="c" d="M2435.849-3417.448l-65.056-36.757c-.005,0-.009.008-.014.01a.628.628,0,0,1-.31.082.633.633,0,0,1-.324-.09l-2.975-1.783-6.461,1.634v57.814l77.367-19.576Z" transform="translate(-2258.904 3615.029)"/><path class="c" d="M2206.994-3392.411l-.033-54.816-64.279,16.264v2.221Z" transform="translate(-2109.604 3609.032)"/><path class="c" d="M2439.35-3326.186l-72.177,18.263-6.086,1.563v11.221l78.263-20.1Z" transform="translate(-2259.162 3526.146)"/><path class="c" d="M2306.479-3250.521v-10.949l-23.956,17.015Z" transform="translate(-2205.364 3481.83)"/><path class="c" d="M2146.416-3351.159a.63.63,0,0,1-.088-.168l-1.117-.632-1.723-.84a.625.625,0,0,1-.287-.3l-65.224-36.851c-.021-.008-.042-.012-.062-.022l-3.049-1.487-25.441,18.068,71.454,40.366Z" transform="translate(-2045.744 3570.84)"/><path class="c" d="M2134.472-3553.584v-73.343l-.439-.263-1.5-.9.044,73.581Z" transform="translate(-2102.656 3732.88)"/><path class="c" d="M2213.168-3694.1l-77.5,19.929,1.679,1.007,76.783-19.744.721-.186Z" transform="translate(-2104.799 3778.083)"/><path class="c" d="M2350.605-3431.717l1.894.923v-73.343l-.05-.03-1.888-1.132Z" transform="translate(-2251.956 3648.797)"/><path class="c" d="M2385.56-3687.579l-2.039.524v52.337l1.969-.506Z" transform="translate(-2274.524 3773.619)"/><path class="c" d="M2383.521-3508.156v15.067l1.94,1.164.023-16.735Z" transform="translate(-2274.524 3651.1)"/><path class="c" d="M2601.548-3564.263v71.306l1.94,1.163.1-72.993Z" transform="translate(-2423.824 3689.534)"/><path class="c" d="M2353.692-3551.378l1.68,1.007,77.5-19.929-1.68-1.007Z" transform="translate(-2254.099 3693.999)"/></g></svg>