<svg xmlns="http://www.w3.org/2000/svg" width="759.442" height="394.67" viewBox="0 0 759.442 394.67"><defs><style>.a{fill:#facfa7;}.a,.b,.c,.d,.e,.f,.g,.h,.i,.j,.k,.l,.m,.n,.o,.p,.q,.r,.s,.t,.u{fill-rule:evenodd;}.b{fill:#0c2245;}.c{fill:#124057;}.d{fill:#7d2735;}.e{fill:#a93548;}.f{fill:#b28b67;}.g{fill:#bababa;}.h{fill:#2a36a3;}.i{fill:rgba(0,0,0,0.2);}.j{fill:#c5cfd6;}.k{fill:rgba(0,0,0,0.1);}.l{fill:#1f28cf;}.m{fill:#e4e4e4;}.n{fill:#2b85ff;}.o{fill:#ab9949;}.p{fill:#cbb657;}.q{fill:#191847;}.r{fill:#2b44ff;}.s{fill:#dde3e9;}.t{fill:#2f3676;}.u{fill:rgba(255,255,255,0.2);}</style></defs><g transform="translate(-1142.373 -1722)"><g transform="translate(1142.373 1722)"><g transform="translate(85.558 0)"><g transform="translate(0 1.823)"><path class="a" d="M177.853,39.822c4,11.4-.844,37.96-8.428,38.7-3.025.295-8.931-2.509-14.64-7.295l-.42,28.61L131,96.183l13.9-36.228c-3.662-5.967-5.689-12.894-4.05-20.043C145.575,19.309,173.857,28.426,177.853,39.822Z" transform="translate(-131.004 -27.638)"/></g><g transform="translate(7.144)"><path class="b" d="M159.639,44.906c2.491-2.693,4.79-4.685,7.522-5.623,10.244,1.768,11.735.115,12.705-6.091-1.473-1.446-7.014-4.36-13.481-5.947a17.151,17.151,0,0,0-11.248-.92c-4.92.6-9.359,2.854-11.963,7.968-8.095,10-5.047,22.211.861,27.142,2.057-1.784,3.883-3.541,5.533-5.236a5.911,5.911,0,0,1,5.647-9.38,6.1,6.1,0,0,1,.694.151c-.485,4.056-2.022,17.793-1.193,22.777.975,5.877,11.555,8.937,15.319,9.525,3.252.509,3.623-2.587,3.889-4.807.037-.319.074-.621.116-.891.088-.564-.645-.677-1.474-.8-1.076-.166-2.313-.357-2.12-1.591.342-2.184,5.457-2.776,6.685-4.028,1.487-1.517,2.258-3.757.417-4.045-2.525-.394-7.979,2.5-13.735,1.6C158.094,63.807,159.62,45.139,159.639,44.906Z" transform="translate(-138.255 -25.788)"/></g></g><g transform="translate(27.426 158.831)"><g transform="translate(55.173)"><path class="b" d="M128,187l35.719,125.347,26.061,92.388h19.008L181.095,187Z" transform="translate(-128 -187)"/></g><g transform="translate(1.76)"><path class="c" d="M117.646,187c-.826,64.605-3.643,99.843-4.51,105.713s-13.984,43.21-39.35,112.022H93.478q48.438-99.02,54.079-112.022c3.76-8.668,15.366-43.906,32.844-105.713Z" transform="translate(-73.786 -187)"/></g><g transform="translate(0 214.779)"><path class="b" d="M72,425.69,72.985,405h20.69c14.715,10.345,38.424,16.749,38.424,16.749v3.941H94.66l-12.808-1.97v1.97Z" transform="translate(-72 -405)"/></g><g transform="translate(114.286 214.779)"><path class="b" d="M188,425.69l.985-20.69h20.69c14.715,10.345,38.424,16.749,38.424,16.749v3.941H210.66l-12.808-1.97v1.97Z" transform="translate(-188 -405)"/></g></g><g transform="translate(0 50.721)"><g transform="translate(0 71.114)"><path class="a" d="M45.978,247.224c7.248-4.97,17.695-13.67,19.106-16.534,2.887-5.857,17.312-81.24,17.312-81.24l21.573.081S79.324,229.384,77.8,233.151c-1.974,4.893,1.379,12,3.653,16.822.352.746.678,1.436.955,2.056-3.156,1.412-4.672-.295-6.269-2.094-1.8-2.033-3.715-4.182-8.211-2.091-1.737.808-3.38,1.763-4.986,2.7-5.547,3.224-10.642,6.186-17.574,1.908-1.1-.678-2.3-3.231.607-5.226Zm172.9-73.133,27.91,27.227a84.58,84.58,0,0,1,19.961,11.475c1.167,1.407,2.436,4.1-3.051,2.9s-11.314-2.229-12.346-.444c-.452.782-.123,1.746.23,2.778.452,1.325.943,2.765-.128,4.077q-1.906,2.336-12.822-14.858L209.6,190.13l9.27-16.039Z" transform="translate(-44.163 -149.45)"/></g><g transform="translate(103.973 8.453)"><path class="d" d="M149.7,87.31l8.519-1.461c13.421,47.441,82.376,79.778,86.608,97.512,1.553,6.5-3.128,9.792-.71,11.772l-11.074,8.106c-1.875-2.188-5.877,1.814-14.234-.985S149.7,143.484,149.7,87.31Z" transform="translate(-149.695 -85.849)"/></g><g transform="translate(17.771)"><path class="e" d="M159.787,79.134l-26.536-1.855a3.943,3.943,0,0,0-4.207,3.656l-.4,5.771C112.607,99.044,72.87,135.914,62.514,204.548a20.634,20.634,0,0,0,2.451,14.157c1.075,2.11,1.966,3.858,1.566,6.066l14.492,4c0-4,11-5.651,13.837-16.036,1.594-5.832,3.927-13.116,6.715-21.22.263,10.732,2.3,20.6,6.732,28.777,11.061,20.4,74.985-1.971,81.662-22.778,3.564-11.1-1.493-20.424-8.18-32.751-8.49-15.649-19.607-36.142-19.057-71.273l.709-10.15A3.943,3.943,0,0,0,159.787,79.134Z" transform="translate(-62.201 -77.269)"/></g></g></g><g transform="translate(1661.074 1770.749)"><g transform="translate(126.572 21.251) rotate(11)"><g transform="translate(0 1.922)"><path class="f" d="M47.374,38.464c-5.459,10.166-4.8,35.956,2.259,37.745,2.824.753,8.754-1.035,14.872-4.706L60.645,98.611h22.59L75.423,62.372c4.33-5.083,7.248-11.3,6.777-18.355C80.883,23.874,52.833,28.3,47.374,38.464Z" transform="translate(-43.745 -29.871)"/></g><g transform="translate(2.593)"><g transform="translate(0 2.138)"><path class="g" d="M51.489,31.983c.471-.282,1.6-.941,2.165-1.224.094-.094,1.035-.659,1.035-.659.659.188,2.636,1.13,2.824,1.788,0,.094.094.094.094.188a8.344,8.344,0,0,1,.753,1.6,23.548,23.548,0,0,1,1.412,3.577c.847,2.353,1.6,4.8,2.353,7.154.753,2.447,1.318,4.989,1.977,7.436.941,3.577,2.165,7.06,3.2,10.636a19.07,19.07,0,0,1,.753,6.871v.094h0c0,.377-.094.753-.094,1.035s-.094.659-.094.941c-.847-1.788-1.506-3.671-2.259-5.553-.094-.188-.094-.377-.188-.565-.188-.377-.471-.753-.659-1.13-1.506-2.353-3.012-4.612-4.424-6.965a108.874,108.874,0,0,0-8.189-12.425c-.941-1.13-1.788-2.259-2.73-3.483a7.78,7.78,0,0,1-1.506-1.883c-.377-.471-1.788-2.165-1.318-3.2A35.122,35.122,0,0,1,51.489,31.983Z" transform="translate(-46.499 -30.1)"/></g><g transform="translate(6.694)"><path class="h" d="M53.883,30.72c-.471.188-.282-.847.188-1.224C56.33,27.8,64.99,27.143,72.52,28.743a36.643,36.643,0,0,1,14.872,6.965c3.577,3.012,6.118,7.813,7.436,12.519a38.6,38.6,0,0,1,.847,15.06c-.188,1.13-.565,2.165-.753,3.2a24.209,24.209,0,0,1-.753,3.577,20.565,20.565,0,0,0-.847,2.165,4.339,4.339,0,0,0,.094,2.447,28.524,28.524,0,0,0,1.13,4.047c.753,1.977,1.6,3.859,2.165,5.836.753,2.73,3.859,11.578,1.6,14.025l-36.9-.6c1.13-3.012-2.445-5.991-1.787-9.191.377-1.883.565-6.024.659-6.212.941-6.777,2.918-10.072,4.142-11.2,1.224-1.224,2.824-1.506,2.918-2.541.377-4.236-1.318-8.283-2.541-12.236C63.3,51.9,62.26,47.1,60.754,42.391,59.907,40.415,56.519,29.872,53.883,30.72Z" transform="translate(-53.61 -27.829)"/></g><g transform="translate(19.768 7.88)"><path class="i" d="M71.642,51.354c.377-7.154,0-9.977-1.694-15.154h1.035c1.6,2.071,2.918,8.471,1.412,15.154h-.753Zm7.907-9.319c-1.412,10.636-1.788,16.66-9.13,28.238l.753.282C78.7,60.485,79.831,52.2,80.207,42.13l-.659-.094Zm-.471,25.508C87.643,61.52,89.055,57.1,92.161,49.66l.659.282C90.749,57.379,88.3,63.214,79.737,68.015l-.659-.471Zm7.813,5.177.659.847c-6.871,1.412-9.13,10.26-19.108,14.4l-.941-.565c11.389-6.024,10.354-11.86,19.39-14.684Z" transform="translate(-67.5 -36.2)"/></g></g></g><g transform="translate(-0.714 177.652)"><g transform="translate(128.64 39.533)"><path class="j" d="M247.267,0h-72.76L165,116.717H273.246Z" transform="translate(-165)"/><g transform="translate(46.499)"><path class="k" d="M250.168,0h-22.4L214.4,116.717h61.747Z" transform="translate(-214.4)"/></g></g><g transform="translate(19.498 14.023)"><path class="f" d="M83.724,63.564c8.189,17.319,20.9,59.394,20.9,59.394L93.8,127.946S66.31,83.707,49.462,53.492c.753,6.777,1.6,14.5,2.353,22.5,1.788,19.108,0,60.335-.941,72.2-.565,7.53-10.73,5.93-11.672,0S20,48.315,20,28.36c0-6.683,12.99-12.613,20.708-8,5.365-5.648,15.437-8.942,21.179.471C65.652,26.854,74.405,43.7,83.724,63.564Z" transform="translate(-20 -14.898)"/></g><g transform="matrix(0.94, 0.342, -0.342, 0.94, 42.377, 6.983)"><path class="l" d="M91.385,72.622,26.249,2.5C12.977-7.857-4.624,16.9,1.117,23.676c12.9,15.343,66.83,60.806,70.689,65.418Z"/></g><g transform="translate(88.44 106.673) rotate(30)"><path class="m" d="M17.519,1.8A1.94,1.94,0,0,1,19.684.008,23.559,23.559,0,0,1,25.99,1.8c2.165,1.318,6.024,4.424,6.024,4.424C30.508,8.762,5.471,52.154,5.471,52.154s-6.965-1.6-5.177-5.742,2.824-6.871,2.824-6.871L5.941,12.715a.935.935,0,0,1,1.035-.847l4.142.565s3.765-2.636,4.989-4.8A17.087,17.087,0,0,0,17.519,1.8Z"/></g><g transform="translate(0 136.883)"><g transform="translate(0 0)"><path class="m" d="M-192.531,24.108a1.951,1.951,0,0,1,2.636.941,20.893,20.893,0,0,1,1.6,6.307,60.809,60.809,0,0,1-.847,7.436H-242.23s-2.071-6.871,2.353-7.342c4.424-.565,7.436-.941,7.436-.941L-207.78,19.5a.934.934,0,0,1,1.224.471l1.6,3.859s4.142,1.883,6.683,1.883A15.865,15.865,0,0,0-192.531,24.108Z" transform="translate(242.714 -19.423)"/></g></g><g transform="translate(16.862)"><path class="n" d="M17.2,34.262c0,25.038,11.86,83.3,11.86,88.856H54.568S48.921,45.087,50.615,44.24c1.6-.847,66.924,6.495,86.409,6.495,28.332,0,40-17.79,40.945-50.734H122.057C110.668,1.224,51.368,13.178,29.248,17.319,19.836,19.108,17.2,27.391,17.2,34.262Z" transform="translate(-17.2)"/></g></g><g transform="translate(27.117 74.379)"><g transform="translate(0 67.881)"><path class="f" d="M218.777,160.868c-6.965-4.706-16.943-13.084-18.261-15.813C197.787,139.5,183.95,67.4,183.95,67.4l-20.614.094s23.532,76.337,25.038,79.914c1.883,4.706-1.318,11.483-3.483,16.1-.376.753-.659,1.412-.941,1.977,3.012,1.318,4.424-.282,6.024-1.977,1.694-1.977,3.577-3.953,7.813-1.977,1.694.753,3.2,1.694,4.8,2.541,5.271,3.106,10.166,5.93,16.755,1.788,1.035-.659,2.165-3.106-.565-4.989ZM53.584,91.026,26.946,117A83.764,83.764,0,0,0,7.839,127.924c-1.13,1.318-2.353,3.953,2.918,2.73s10.825-2.165,11.766-.471c.471.753.094,1.694-.188,2.636-.471,1.224-.941,2.636.094,3.859,1.224,1.506,5.271-3.2,12.236-14.213l27.767-16.378-8.848-15.06Z" transform="translate(-6.853 -67.4)"/></g><g transform="translate(32.129 1.643) rotate(5)"><path class="o" d="M82.581.659,74.392,0C65.544,46.31,2.668,82.832.126,100.057c-.941,6.307,3.765,9.036,1.694,11.107l11.2,6.777c1.6-2.259,5.742,1.224,13.46-2.165C34.106,112.388,87.193,54.123,82.581.659Z"/></g><g transform="translate(73.568 0)"><path class="p" d="M114.933-2.913,140.253-4.7A3.783,3.783,0,0,1,144.3-1.218l.376,5.553C160.02,16.1,197.953,51.3,207.836,116.911a19.9,19.9,0,0,1-2.353,13.554c-1.035,1.977-1.883,3.671-1.506,5.836L190.14,140.16c0-3.859-10.542-5.365-13.178-15.343-1.506-5.553-3.765-12.519-6.4-20.237-.282,10.26-2.165,19.673-6.4,27.485-10.542,19.484-71.631-1.883-78.031-21.743-3.389-10.636,1.412-19.484,7.813-31.25,8.095-14.966,18.731-34.545,18.166-68.054l-.753-9.977A3.719,3.719,0,0,1,114.933-2.913Z" transform="translate(-85.011 4.716)"/></g></g></g><g transform="translate(1417.286 1818)"><g transform="translate(51.077 0)"><g transform="translate(21.643 15.261)"><path class="f" d="M154.021,39.535c5.017,9.351,4.421,33.069-2.063,34.74-2.585.667-8.094-.966-13.7-4.345l3.519,24.894H121l7.152-33.338c-3.989-4.683-6.688-10.421-6.237-16.851C123.214,26.109,149,30.185,154.021,39.535Z" transform="translate(-121 -31.628)"/></g><path class="q" d="M178,23.661a4.494,4.494,0,0,0-3.148-3.191,4.133,4.133,0,0,0-1.157-.115c-.139.005-.179.046-.244-.052a1.273,1.273,0,0,1-.069-.334,6.006,6.006,0,0,0-1.771-3.063,7.726,7.726,0,0,0-4.643-2.2,6.765,6.765,0,0,0-2.792.381,10.987,10.987,0,0,0-1.355.579c-.132.067-.561.391-.693.37s-.441-.387-.561-.479A8.209,8.209,0,0,0,156.443,14c-2.071.016-4.064.119-5.792,1.382a11.386,11.386,0,0,0-1.046.867c-.175.163-.344.331-.5.506q-.147.158-.283.325c-.155.189-.13.25-.347.119a4.3,4.3,0,0,0-2.764-.622,6.2,6.2,0,0,0-1.669.471c-.181.078-.6.387-.793.39s-.605-.283-.8-.356a6.578,6.578,0,0,0-3.336-.309,8.614,8.614,0,0,0-3.27,1.286,4.413,4.413,0,0,0-1.212,1.1c-.143.2-.271.405-.433.588-.094.106-.281.216-.332.351a7.167,7.167,0,0,0-1.386-.612,3.418,3.418,0,0,0-1.95.074,7.75,7.75,0,0,0-3.075,2.185,8.726,8.726,0,0,0-1.138,1.529q-.232.393-.426.809a3.12,3.12,0,0,1-.187.421c-.107.156-.178.158-.371.226a6.009,6.009,0,0,0-2.556,1.711,5.887,5.887,0,0,0-1.322,2.8,1.439,1.439,0,0,1-.054.345c-.048.046-.246.026-.32.035a6.785,6.785,0,0,0-.768.135,6.281,6.281,0,0,0-1.35.486,7.053,7.053,0,0,0-3.458,4.129,8.374,8.374,0,0,0,.131,5.735,5.623,5.623,0,0,0,.426.84c.1.164.134.164.068.336-.074.191-.209.377-.3.564a8.116,8.116,0,0,0-.611,1.918,8.991,8.991,0,0,0-.106,3.315,4.793,4.793,0,0,0,.512,1.454,4.205,4.205,0,0,0,.449.651,3.985,3.985,0,0,0,.28.3,1.864,1.864,0,0,1,.177.164c.116.15.14.027.081.246-.084.306-.274.609-.39.907s-.229.619-.327.933a13.785,13.785,0,0,0-.477,1.946,6.111,6.111,0,0,0,.431,3.779,3.784,3.784,0,0,0,1.07,1.273,3.979,3.979,0,0,0,.7.427c.127.061.29.087.348.21s-.03.4-.051.544a9.049,9.049,0,0,0,.106,3.9,5.388,5.388,0,0,0,2.137,2.87,6.653,6.653,0,0,0,6.649.189,6.983,6.983,0,0,0,1.484-1.02c1.139,1.532,3.482,1.484,5.146,1.048a7.393,7.393,0,0,0,4.7-3.88,3.128,3.128,0,0,0,4.97-.653,4.145,4.145,0,0,0,.419-1.363c.035-.248.013-.5.038-.745a3.829,3.829,0,0,1,.364-.923,5.115,5.115,0,0,0,.387-1.84,9.4,9.4,0,0,0-.071-.988,3.359,3.359,0,0,1,.1-.868,3.974,3.974,0,0,1-1.681-.209,3.321,3.321,0,0,1-1.3-.914,7.58,7.58,0,0,1-1.634-3.055c-.739-2.42-.436-5.323,2-6.651,1.134-.619,4.53-.616,5.881-.311,1.421.321,3.03,3.454,3.11,3.749.048.182.024.408.191.529.368.267.975-.2,1.247-.425a4.914,4.914,0,0,0,1.092-1.453,17.971,17.971,0,0,0,1.5-3.673c.277-.978.454-1.988.816-2.942a4.5,4.5,0,0,1,1.81-2.336,15.868,15.868,0,0,1,3.113-1.26,7.727,7.727,0,0,0,2.881-1.583,4.026,4.026,0,0,0,.494-.551c.113-.158.225-.461.4-.561.268-.156.659.249.891.4a10.292,10.292,0,0,1,2.865,2.845,17.678,17.678,0,0,1,1.9,3.387,9.8,9.8,0,0,0,1.28,2.825,5.4,5.4,0,0,0,3.22.244,4.066,4.066,0,0,0,1.757-1.52,2.365,2.365,0,0,0,.2-1.549c-.062-.312-.188-.6-.257-.91a2.833,2.833,0,0,0-.236-.738,1.816,1.816,0,0,0-1.133-.9,5.332,5.332,0,0,0,1.224-1.66,7.132,7.132,0,0,0,.634-2.163,2.629,2.629,0,0,0-.351-1.685,4.434,4.434,0,0,0-1.439-1.194,9.335,9.335,0,0,0,2-2.181A6.806,6.806,0,0,0,178,23.661Z" transform="translate(-115 -14)"/></g><g transform="translate(0 149.768)"><g transform="translate(0 36.36)"><path class="j" d="M213.408,229H113.851A13.858,13.858,0,0,0,100,242.851V322.5a13.858,13.858,0,0,0,13.851,13.851h99.557A13.858,13.858,0,0,0,227.259,322.5V242.851A13.858,13.858,0,0,0,213.408,229Zm-13.851,24.24H127.7a3.464,3.464,0,0,0-3.463,3.463v51.943a3.464,3.464,0,0,0,3.463,3.463h71.854a3.464,3.464,0,0,0,3.463-3.463V256.7a3.464,3.464,0,0,0-3.463-3.463Z" transform="translate(-100 -229)"/></g><g transform="translate(57.257 27.847)"><path class="f" d="M125.89,274.93c3.22,11.279,11.241,32.656,22.334,57.206l10.541-3.076c-9.222-56.491-16.9-93.891-21.292-105.275-2.9-7.521-24.878-6.64-22.35,8.493,1.06,6.346,5.255,23.34,10.768,42.651ZM82.567,234.918c-17.189,3.562-52.828,16.151-63.006,20.174-6.4,2.528-2.272,11.1,3.184,10.352,3.893-.536,49.385-5.305,81.475-9.923,12.885-1.855,5.953-25.99-7.425-23.437-4.5.86-9.288,1.81-14.228,2.833Z" transform="translate(-16.315 -219.166)"/></g><g transform="translate(90.9)"><path class="l" d="M18.111,187h6.547s79.885,20.356,81.643,26.091c.012.041.023.081.033.121.028.036.055.072.081.108,10.554,14.515,16.875,85.38,18.95,90.686l-20.224,3.017C102.08,295.68,96.362,285.7,90.6,275.65c-8.8-15.365-17.694-30.885-17.3-51.66a11.28,11.28,0,0,1-.149-2.868L18.111,193.1Z" transform="translate(-18.111 -187)"/></g><g transform="translate(51.943)"><path class="r" d="M85,237.765c-5.037-1.008-9.675-1.908-13.644-2.6-25.637-4.5-33.113-18.22-28.692-48.161H89.9c7.716,2.216,47.815,19.033,68.621,27.976,13.77,5.92,9.429,27.26,1.631,32.813a.762.762,0,0,1-.433.676c-29.565,12.253-54.776,11.339-70.966,10.752-6.781-.246-11.979-.435-15.251.426l-5.128-16.175Z" transform="translate(-41.472 -187)"/></g><g transform="translate(52.33 61.167)"><path class="m" d="M169.185,259.422a1.731,1.731,0,0,0-1.841-1.763,19.868,19.868,0,0,0-5.868,1.267,55.641,55.641,0,0,0-5.8,3.7l21.4,43.885s6.49-1.048,5.143-4.953-2.172-6.521-2.172-6.521L179.2,270.2a.866.866,0,0,0-.919-.835l-3.82.24s-3.256-2.635-4.3-4.768A14.273,14.273,0,0,1,169.185,259.422Z" transform="translate(-155.675 -257.656)"/></g><g transform="translate(182.665 131.009)"><path class="m" d="M-17.988,342.678a1.732,1.732,0,0,0-2.392.883,19.882,19.882,0,0,0-1.433,5.83,55.62,55.62,0,0,0,.78,6.834H27.8s1.9-6.292-2.2-6.794-6.813-.906-6.813-.906L-3.91,338.407a.865.865,0,0,0-1.153.461l-1.459,3.539s-3.8,1.771-6.169,1.771A14.255,14.255,0,0,1-17.988,342.678Z" transform="translate(21.813 -338.332)"/></g></g><g transform="translate(2.738 58.869)"><g transform="translate(0 77.155)"><path class="f" d="M172.746,171.123l24.524,23.924a74.327,74.327,0,0,1,17.54,10.082c1.025,1.236,2.14,3.6-2.682,2.545s-9.942-1.958-10.848-.39a3.02,3.02,0,0,0,.2,2.44c.4,1.164.829,2.429-.113,3.583q-1.675,2.052-11.266-13.057l-25.5-15.036,8.145-14.093ZM35.93,244.334c6.369-4.368,15.548-12.012,16.789-14.528C55.255,224.659,63.9,174.5,63.9,174.5l18.091.071s-16.755,54.09-18.091,57.4c-1.735,4.3,1.212,10.545,3.21,14.781.309.655.6,1.262.839,1.807-2.773,1.241-4.105-.259-5.509-1.84-1.585-1.786-3.264-3.675-7.214-1.838-1.526.711-2.97,1.55-4.381,2.37-4.874,2.833-9.351,5.436-15.443,1.677-.965-.6-2.024-2.839.533-4.592Z" transform="translate(-34.335 -171.123)"/></g><g transform="translate(80.922 3.332)"><path class="q" d="M63.732,87.133l7.486-1.284q19.333,48.294,67.5,87.762l-24.268,29.483C82.344,165.629,62.55,126.975,63.732,87.133Z" transform="translate(-63.682 -85.849)"/></g><g transform="translate(48.339)"><path class="s" d="M111,180.691h66.66S154.494,124.366,154.494,85l-20.108-3C118.584,107.416,114.121,138.708,111,180.691Z" transform="translate(-111 -82)"/></g><g transform="translate(18.039)"><path class="t" d="M135.649,209.259C142.939,127.013,188.894,82,188.894,82l.016.014.009-.014h1.312c2.356.081,7.177.293,7.177.293l4.858,13.885c.771,25.394,9,102.352,9,102.352H167.637q.112,5.293.5,10.73Z" transform="translate(-135.649 -82)"/></g><g transform="translate(49.981 74.02)"><g transform="translate(0)"><path class="k" d="M172.054,210.353a220.729,220.729,0,0,1,3.289-42.851c1.189,15.494,3.675,34.136,8.867,42.851Z" transform="translate(-172 -167.502)"/></g></g><g transform="translate(59.689 80.017)"><g transform="translate(0)"><path class="u" d="M150,184.446l21.547-10.017v10.017Z" transform="translate(-150 -174.429)"/></g></g></g></g></g></svg>