<svg xmlns="http://www.w3.org/2000/svg" width="525.126" height="400.921" viewBox="0 0 525.126 400.921"><defs><style>.a{fill:#dd8b67;}.a,.b,.c,.d,.e,.f,.g,.h,.i,.j,.k,.l,.m,.n,.o,.q,.r,.s{fill-rule:evenodd;}.b{fill:#b28b67;}.c{fill:#bdbdbd;}.d{fill:#998675;}.e{fill:#c7b299;}.f{fill:#191847;}.g{fill:#dde3e9;}.h{fill:#2f3676;}.i{fill:rgba(0,0,0,0.1);}.j{fill:rgba(255,255,255,0.2);}.k,.p{fill:#0c2245;}.l{fill:#297499;}.m{fill:#3aa2d6;}.n{fill:#e4e4e4;}.o{fill:#124057;}.q{fill:#8ecf84;}.r{fill:#e8c010;}.s{fill:#a3ed98;}</style></defs><g transform="translate(-566.8 -1716)"><g transform="translate(880 1716)"><path class="a" d="M268.118,222.8s-3.9-14.1-19.1-10.7-14.1,10.1-14.1,10.1V424.8h6.1V222.2s0-5.1,8.4-6.2,14.6,7.9,14.6,7.9Z" transform="translate(-234.9 -25.079)"/><g transform="translate(2.471 0)"><g transform="translate(132.629 73.478) rotate(167)"><g transform="translate(0.356 0)"><path class="b" d="M38.1,63.9c5.8-10.8,5.1-38.2-2.4-40.1-3-.8-9.3,1.1-15.8,5L24,0H0L8.3,38.5C3.7,43.9.6,50.5,1.1,58,2.5,79.4,32.3,74.7,38.1,63.9Z"/></g><g transform="translate(0 23.3)"><g transform="translate(0 0)"><path class="c" d="M21.156,32.7c2.1,3.1,4.1,5.4,6.7,6.8,10.6-.2,11.8,1.7,11.8,8.1-1.7,1.2-7.7,3.3-14.5,3.9a17.462,17.462,0,0,1-11.4-.8c-4.8-1.4-8.9-4.3-10.7-9.9-6.5-11.3-1.6-23.1,5.1-27.1,1.8,2.1,3.3,4.2,4.7,6.1a6.011,6.011,0,0,0,4.2,10.3h.7c.1-4.1.8-18.2,2.4-23,1.9-5.7,13-7.1,16.9-7.1,3.3,0,3.2,3.2,3.1,5.4v.9c0,.6-.8.6-1.6.6-1.1,0-2.4,0-2.4,1.3,0,2.2,5,3.6,6.1,5.1,1.3,1.8,1.7,4.1-.2,4.1-2.6,0-7.6-3.8-13.5-3.8C22.556,13.5,21.256,32.5,21.156,32.7Z" transform="translate(0 0)"/></g></g></g><g transform="translate(16.647 161.921)"><g transform="translate(39)"><g transform="translate(0)"><path class="d" d="M210,0,173.7,127.2,147.2,221H128L156.1,0Z" transform="translate(-128)"/></g></g><g transform="translate(67)"><g transform="translate(0)"><path class="e" d="M137.5,0c.8,65.6,3.7,101.3,4.6,107.3S156.3,151.2,182,221H162q-49.2-100.5-54.9-113.7C103.3,98.5,91.5,62.7,73.8,0Z" transform="translate(-73.8)"/></g></g><g transform="translate(116 218)"><g transform="translate(0 0)"><path class="f" d="M61,40,60,19H39C24.1,29.5,0,36,0,36v4H38l13-2v2Z" transform="translate(0 -19)"/></g></g><g transform="translate(0 218)"><g transform="translate(0 0)"><path class="f" d="M61,40,60,19H39C24.1,29.5,0,36,0,36v4H38l13-2v2Z" transform="translate(0 -19)"/></g></g></g><g transform="translate(0 56.921)"><g transform="translate(0 89.1)"><path class="b" d="M83.839,89.1l-28.3,27.6a88.991,88.991,0,0,0-20.3,11.6c-1.2,1.4-2.5,4.2,3.1,2.9,5.6-1.2,11.5-2.3,12.5-.5.5.8.1,1.8-.2,2.8-.5,1.3-1,2.8.1,4.1,1.3,1.6,5.6-3.4,13-15.1l29.5-17.4-9.4-16Zm158,84.6c-7.4-5-18-13.9-19.4-16.8-2.9-5.9-12.9-63.9-12.9-63.9l-20.9.1s19.4,62.5,20.9,66.3c2,5-1.4,12.2-3.7,17.1-.4.8-.7,1.5-1,2.1,3.2,1.4,4.7-.3,6.4-2.1,1.8-2.1,3.8-4.2,8.3-2.1,1.8.8,3.4,1.8,5.1,2.7,5.6,3.3,10.8,6.3,17.8,1.9,1.1-.7,2.3-3.3-.6-5.3Z" transform="translate(-34.192 -89.1)"/></g><g transform="translate(127.16 133.21) rotate(175)"><path class="f" d="M0,128.4l8.5,2.2Q35.65,76.9,95,36.4L70,0C29.3,39.9,2.7,82.4,0,128.4Z"/></g><g transform="translate(76.647)"><g transform="translate(0)"><path class="g" d="M167,114H90S116.8,48.9,116.8,3.5L140,0C158.2,29.4,163.4,65.5,167,114Z" transform="translate(-90)"/></g></g><g transform="translate(101.347)"><path class="h" d="M142.3,147C133.9,52,80.8,0,80.8,0H79.3C76.6.1,71,.3,71,.3l-5.6,16C64.5,45.6,55,134.5,55,134.5h50.4c-.1,4.1-.3,8.2-.6,12.4h37.5Z" transform="translate(-55)"/></g><g transform="translate(137.647 85.5)"><g transform="translate(0)"><path class="i" d="M105.939,135a257.8,257.8,0,0,0-3.8-49.5c-1.4,17.9-4.2,39.4-10.2,49.5Z" transform="translate(-91.939 -85.5)"/></g></g><g transform="translate(115.647 92.4)"><g transform="translate(0)"><path class="j" d="M128,104,103.1,92.4V104Z" transform="translate(-103.1 -92.4)"/></g></g></g></g></g><g transform="translate(829.386 2103.459) rotate(177)"><g transform="translate(114.523 227.46)"><g transform="translate(0 0)"><path class="b" d="M6.266,62.072c-6.469-9.1-8.974-33.94-2.427-36.539,2.612-1.037,8.577-.058,14.874,2.73L11.759,2.739,33.449,0,30.377,35.745c4.781,4.362,8.357,10,8.733,16.769C40.2,72.026,12.736,71.172,6.266,62.072Z"/></g></g><g transform="translate(118.828 258.241)"><g transform="translate(0 0)"><path class="k" d="M11.87,40.84a28.556,28.556,0,0,0,9.2-.143,15.731,15.731,0,0,0-.108,8.03c.652,2.56,2.093,4.627,3.461,6.811a9.846,9.846,0,0,0,2.266,2.712,6.527,6.527,0,0,0,3.271,1.259,8.272,8.272,0,0,0,3.529-.444c.5-.172.93-.465,1.417-.66s.789.093,1.2.37a6.5,6.5,0,0,0,3.528.879,8.733,8.733,0,0,0,3.769-.942,7.546,7.546,0,0,0,2.929-2.445,5.411,5.411,0,0,0,.771-1.585c.064-.234.063-.367.274-.476.2-.1.435-.134.639-.232a8.332,8.332,0,0,0,4.208-4.908,13.774,13.774,0,0,0,.039-5.705c-.368-2.329-3.25-8.165-5.507-10.141a13.371,13.371,0,0,0-7.345-3.006,19.765,19.765,0,0,0,2.739-7.133,32.951,32.951,0,0,0,.615-8.321,26.716,26.716,0,0,0-1.417-7.948,8.739,8.739,0,0,0-4.589-5.155A18.611,18.611,0,0,0,33.6.632a19.893,19.893,0,0,0-3.2-.6c-2.05-.16-4.343.2-5.681,1.986a11.054,11.054,0,0,0-1.317,2.193c-.114.27-.18.445.027.67a4.775,4.775,0,0,0,.921.647,7.849,7.849,0,0,1,3.405,4.81c.513,2.086.29,4.89-1.652,6.073-2.4,1.462-5.36.506-7.772-.429a12.519,12.519,0,0,1-5.01,8.75c-3.2,2.151-7.1,2.848-10.424,4.765A6.529,6.529,0,0,0,.584,31.42,3.281,3.281,0,0,0,.009,32.7c-.077.588.351,1.018.69,1.426C2.5,36.282,8.792,40.311,11.87,40.84Z" transform="translate(0 0)"/></g></g><g transform="translate(19.87 10.479)"><path class="b" d="M30.782,74.536c1.7-18.529,0-58.357-.911-69.846C29.3-2.531,19.457-.641,18.539,5.138S.026,102.447,0,121.727c-.01,7.344,16.338,13.216,22.879,4.345,5.377,3.778,13.01,4.79,17.716-2.838,3.563-5.775,12.027-22.17,21.054-41.314,7.908-16.772,20.264-57.485,20.264-57.485l-10.49-4.793S45.509,61.305,29.192,90.518C29.734,85.491,30.273,80.109,30.782,74.536Z" transform="translate(0 0)"/></g><g transform="translate(34.911 41.547)"><path class="l" d="M66.121,8.44l-36.006,85.3C21.489,107.612-2.695,90.913.246,82.865,6.924,64.594,40.889,5.444,42.879,0Z"/></g><g transform="translate(18.959 39.215)"><path class="m" d="M0,86.331C0,62.154,10.6,5.323,10.6,0L36.276.865S29.545,74.982,30.6,75.484c1.581.753,64.809-8.751,83.772-9.469,27.345-1.035,38.657,15.741,39.575,47.576H100.977s-67.938-8.109-89.3-11.28C2.527,100.953,0,92.991,0,86.331Z" transform="translate(0 0)"/></g><g transform="translate(55.821 12.427)"><path class="n" d="M44.728,25.485a1.822,1.822,0,0,0,2.667-.291,20.908,20.908,0,0,0,2.947-5.588,58.369,58.369,0,0,0,.943-7.176L1.434,0s-3.545,5.94.514,7.5,6.725,2.66,6.725,2.66L29.268,26.262a.911.911,0,0,0,1.294-.177l2.39-3.242s4.327-.842,6.75-.238A15.012,15.012,0,0,1,44.728,25.485Z" transform="translate(0 0)"/></g><g transform="translate(0 15.486)"><g transform="translate(0 0)"><path class="n" d="M48.638,14.254a1.823,1.823,0,0,0,2.517-.929,20.92,20.92,0,0,0,1.508-6.134A58.526,58.526,0,0,0,51.842,0H.464s-2,6.621,2.312,7.149S9.945,8.1,9.945,8.1l23.88,10.646a.911.911,0,0,0,1.213-.485l1.535-3.724s3.994-1.864,6.491-1.864A15,15,0,0,1,48.638,14.254Z"/></g></g><g transform="translate(69.059 93.825)"><g transform="translate(0 0)"><path class="o" d="M106.578,53.744H9.109A9.114,9.114,0,0,1,0,44.635V0H112.043a3.645,3.645,0,0,1,3.644,3.644V44.635A9.114,9.114,0,0,1,106.578,53.744Z"/></g></g><g transform="translate(47.197 18.218)"><path class="o" d="M30.971,129.351h-2a9.11,9.11,0,0,1-8.989-7.634L0,0H9.734"/></g><g transform="translate(35.355 0)"><ellipse class="p" cx="16.397" cy="16.397" rx="16.397" ry="16.397" transform="translate(0 0)"/></g><g transform="translate(102.763 4.406)"><path class="k" d="M0,69.23A69.23,69.23,0,1,0,69.23,0,69.262,69.262,0,0,0,0,69.23Zm12.753,0A56.477,56.477,0,1,0,69.23,12.753,56.5,56.5,0,0,0,12.753,69.23Z" transform="translate(0 0)"/><g transform="translate(65.586 9.109)"><rect class="p" width="7.287" height="120.241" transform="translate(0 0)"/></g><g transform="translate(24.897 24.897)"><path class="k" d="M3.11,88.133.534,85.557a1.821,1.821,0,0,1,0-2.576L82.98.534a1.823,1.823,0,0,1,2.577,0L88.133,3.11a1.823,1.823,0,0,1,0,2.577L5.687,88.133A1.823,1.823,0,0,1,3.11,88.133Z"/></g><g transform="translate(9.109 65.586)"><g transform="translate(0 0)"><path class="k" d="M0,5.466V1.822A1.823,1.823,0,0,1,1.822,0h116.6a1.822,1.822,0,0,1,1.822,1.822V5.466a1.822,1.822,0,0,1-1.822,1.822H1.822A1.823,1.823,0,0,1,0,5.466Z" transform="translate(0 0)"/></g></g><g transform="translate(24.897 24.897)"><path class="k" d="M.534,3.11,3.11.534a1.823,1.823,0,0,1,2.577,0L88.133,82.981a1.821,1.821,0,0,1,0,2.576l-2.576,2.577a1.824,1.824,0,0,1-2.577,0L.534,5.687A1.823,1.823,0,0,1,.534,3.11Z" transform="translate(0 0)"/></g></g><g transform="translate(21.996 96.575)"><g transform="translate(0 0)"><path class="b" d="M52.529,81.4,19.522,95.9,2.772,109.036c-1.61.513-4.361.668-1.426-3.619S7.175,96.489,6,94.987c-.514-.658-1.454-.71-2.461-.765C2.249,94.15.845,94.072.091,92.7q-1.343-2.443,17.179-5.845L41.989,67.9,52.529,81.4Zm126.825-5.25-18.286-5.27,34.8-52.87c2.991-3.851,1.8-11.017,1-15.876-.125-.751-.24-1.447-.33-2.069,3.163-.458,4.079,1.442,5.046,3.444,1.092,2.263,2.247,4.656,6.773,3.932,1.748-.28,3.452-.714,5.115-1.139,5.746-1.466,11.024-2.812,16.108,2.74.806.88,1.232,3.453-1.858,4.493-7.7,2.589-19.186,7.685-21.163,9.873l-27.2,52.741Z" transform="translate(0 0)"/></g><g transform="translate(23.175 53.7)"><path class="q" d="M93.4,93.549,85.519,94.9C68.363,78.257,61.361,38.274,49.928,32.982c-10.81-5-26.134-.162-44.349,6.376L0,26.894C16.55,8.989,51.809-6.138,66.1,2.5,88.949,16.3,94.224,65.618,93.4,93.549Z" transform="translate(0 0)"/></g><g transform="translate(78.718 48.261)"><path class="r" d="M72.19,0H2.495C-.691,0-.09,4.6.37,6.919,5.683,33.7,26.425,62.569,26.425,100.692l20.1,3.153C63.156,77.1,68.906,44.175,72.19,0Z" transform="translate(0 0)"/></g><g transform="translate(100.523 20.023)"><path class="s" d="M107.773,2.861S95.091,54.628,79.541,76.744C62.227,107.5,26.02,132.083,26.02,132.083H18.06S-9.011,39.8,3.134,9.109H65.871c-.993,14.973-4.175,30.806-8.534,46.245,0,0,10.582-20.549,14.833-27.115S93.165,0,93.165,0Z"/></g></g></g></g></svg>