<svg width="330" height="490" xmlns="http://www.w3.org/2000/svg" xmlns:svg="http://www.w3.org/2000/svg">
 <g>
  <title>Layer 1</title>
  <path id="svg_6" d="m212.9817,411.1817c0,0 6.6,-20.8 6.6,-20.8c0,0 4.6,-17.2 4.6,-17.2c0,0 5.9,-19.2 6.5,-20c0.6,-0.8 6.1,-15.3 6.1,-15.3c0,0 5.6,-11.1 5.6,-11.1c0,0 13.8,-21.3 13.8,-21.3c0,0 6.5,-8.8 6.5,-8.8c0,0 5.2,-8.6 5.2,-8.6c0,0 5.7,-10.4 5.7,-10.4c0,0 4.2,-14.8 4.2,-14.8c0,0 1.9,-12.1 1.9,-12.1c0,0 0.4,-10.9 0.4,-10.9c0,0 -1.1,-16.2 -1.1,-16.2c0,0 -0.9,-22.3 -0.9,-22.3c0,0 0,-17.5 0,-17.5c0,0 1.1,-17 1.1,-17c0,0 2.2,-12.9 2.2,-12.9c0,0 5.6,-15.5 5.6,-15.5c0,0 6.4,-13 6.7,-13.4c0.3,-0.4 8.6,-15.4 8.6,-15.4c0,0 8.2,-15.1 8.2,-15.1c0,0 4.2,-11.3 4.2,-11.3c0,0 1.5,-13.4 1.5,-13.4c0,0 -1.1,-12.5 -1.1,-12.5c0,0 -3.7,-12.8 -3.7,-12.8c0,0 -4.5,-6.7 -4.5,-6.7c0,0 -5.1,-7.6 -5.1,-7.6c0,0 -8.5,-8.7 -8.5,-8.7c0,0 -9.3,-6.3 -9.3,-6.3c0,0 -11.8,-5.3 -11.8,-5.3c0,0 -12.4,-2.7 -12.4,-2.7c0,0 -12.3,0.4 -12.3,0.4c0,0 -11.8,1.7 -11.8,1.7c0,0 -13.5,6 -13.5,6c0,0 -8.8,7.2 -8.8,7.2c0,0 -9,8.3 -9,8.3c0,0 -13.4,11.3 -13.4,11.3c0,0 -12.8,12.4 -12.8,12.4c0,0 -10.6,7.8 -10.6,7.8c0,0 -14.6,8.9 -14.5,9c0.1,0.1 -15.6,5.7 -15.5,5.8c0.1,0.1 -26.7,6.3 -26.3,6.2c0.4,-0.1 -22.5,4.5 -22.1,4.5c0.4,0 -16.7,4.4 -16.6,4.4c0.1,0 -13.6,8 -13.6,8c0,0 -10.4,10.9 -10.4,10.9c0,0 -8.6,12.3 -8.6,12.3c0,0 -4.7,11.7 -4.7,11.7c0,0 -1.9,10.2 -1.9,10.2c0,0 0,11.5 0.1,11.7c0.1,0.2 3.1,17.4 3.1,17.4c0,0 5,25 5,25c0,0 2.2,14.4 2.2,14.4c0,0 0.4,15.3 0.4,15.3c0,0 -0.4,13.5 -0.4,13.5c0,0 -5.3,23.9 -5.3,23.9c0,0 -9.8,29.3 -9.8,29.3c0,0 -10.1,28.1 -10.1,28.1c0,0 -6.7,15.4 -6.5,15.5c0.2,0.1 -2.9,14.2 -2.9,14.2c0,0 -1,11.4 -1,11.4c0,0 0.1,10.5 0.1,10.5c0,0 1.1,10.4 1.1,10.4c0,0 1.9,10.4 1.9,10.4c0,0 3.6,10.5 3.6,10.7c0,0.2 7.7,17 7.8,17.1c0.1,0.1 9.9,14.5 9.9,14.5c0,0 11.3,11.1 11.3,11.1c0,0 16.2,12.2 16.2,12.2c0,0 14.6,7 14.6,7c0,0 19,5.6 19,5.6c0,0 21,2 21,2c0,0 19.4,-1.4 19.4,-1.4c0,0 19.3,-5.5 19.3,-5.5c0,0 14.9,-7.6 14.9,-7.6c0,0 13.3,-8.9 13.2,-8.9c-0.1,0 12.7,-11.6 12.7,-11.6c0,0 8.6,-11.9 8.6,-11.8c0,0.1 6.2,-10.4 6.2,-10.4c0,0 4,-8.2 4,-8.2z" stroke-linecap="null" stroke-linejoin="null" stroke-dasharray="null" stroke-width="null" stroke="#f9eccc" fill="#f9eccc"/>
 </g>
</svg>