<svg width="220" height="380" xmlns="http://www.w3.org/2000/svg" xmlns:svg="http://www.w3.org/2000/svg">
 <g>
  <title>Layer 1</title>
  <path id="svg_5" d="m219.47353,361.16213l-0.3,-314.5l-52.1,-9.9c0,0 -19.3,-4.6 -19.4,-4.5c-0.1,0.1 -27.4,-6 -27.4,-6c0,0 -22.5,-5.5 -22.5,-5.5c0,0 -33.7,-10.1 -33.7,-10.1c0,0 -13.9,-4.4 -13.9,-4.4c0,0 -9.8,-0.1 -9.8,-0.1c0,0 -8.1,2.2 -8.1,2.2c0,0 -8.9,6.1 -8.9,6.1c0,0 -5.1,4.5 -5.1,4.5c0,0 -2.9,5.4 -2.9,5.4c0,0 -2.1,5.4 -2.1,5.4c0,0 -1.8,7.4 -1.8,7.4c0,0 -0.4,6.1 -0.4,6.1c0,0 1.7,8.4 1.7,8.4c0,0 12.2,33.6 12.2,33.6c0,0 3.2,11.1 3.2,11.1c0,0 6.1,22 6.1,22c0,0 3.4,25.5 3.4,25.5c0,0 1.9,16.1 1.9,16.1c0,0 3.1,31.2 3.1,31.2c0,0 0.7,18 0.7,18c0,0 1.8,25 1.8,25c0,0 2.6,16.9 2.6,16.9c0,0 6.5,16.4 6.5,16.3c0,-0.1 8,13.4 8,13.4c0,0 7.9,10.3 8,10.3c0.1,0 13.4,11 13.4,11c0,0 16.9,8.8 16.9,8.8c0,0 13.8,4.2 13.9,4.2c0.1,0 26.8,9 26.8,8.9c0,-0.1 23.6,9 23.6,9c0,0 17.1,7.2 17.1,7.2c0,0 16.3,8.2 16.3,8.2c0,0 21.2,12.8 21.2,12.8z" stroke-linecap="null" stroke-linejoin="null" stroke-dasharray="null" stroke-width="null" stroke="rgba(220,176,190, 0.6)" fill="rgba(220,176,190, 0.6)"/>
 </g>
</svg>