<svg width="370" height="500" xmlns="http://www.w3.org/2000/svg" xmlns:svg="http://www.w3.org/2000/svg">
 <g>
  <title>Layer 1</title>
  <path id="svg_3" d="m36.38134,188.28557l3.4,18.4l1.9,14.3c0,0 -1,14.5 -1,14.5c0,0 -2.4,15.1 -2.4,15.1c0,0 -3.4,14.8 -3.4,14.8c0,0 -3.6,15.1 -3.6,15.1c0,0 0,8.4 0,8.6c0,0.2 0.6,8.6 0.7,8.7c0.1,0.1 4.7,10.4 4.7,10.4c0,0 5.4,6.2 5.4,6.1c0,-0.1 6.9,6.9 6.9,6.9c0,0 15,9.1 14.9,9.2c-0.1,0.1 13,8.8 13.1,8.8c0.1,0 13.6,10 13.6,10.2c0,0.2 11.6,9.4 11.7,9.6c0.1,0.2 13.5,14 13.5,14c0,0 13.5,15.2 13.5,15.2c0,0 10,13.4 10.3,13.7c0.3,0.3 8.2,12.8 8.2,12.8c0,0 7,11.1 6.9,10.9c-0.1,-0.2 8.6,15.9 8.6,15.9c0,0 6.7,13.1 6.9,13.1c0.2,0 5.5,10.1 5.7,10.3c0.2,0.2 9.1,9.9 9.2,9.9c0.1,0 9.2,5.5 9.2,5.6c0,0.1 12.1,4.5 12.1,4.5c0,0 13.1,0.3 13.1,0.3c0,0 13.6,-2.5 13.6,-2.5c0,0 10.7,-5.9 10.8,-6c0.1,-0.1 9,-7.9 9,-7.9c0,0 7.3,-9.6 7.3,-9.6c0,0 3.6,-9.4 3.6,-9.4c0,0 2.7,-14.8 2.7,-14.8c0,0 2.2,-17.2 2.2,-17.2c0,0 1.6,-10.8 1.6,-10.8c0,0 4.2,-16.9 4.2,-16.9c0,0 4.8,-12 4.8,-12c0,0 8.7,-16.8 8.7,-16.7c0,0.1 9.8,-13 9.9,-13c0.1,0 6.5,-9 6.5,-8.9c0,0.1 14.4,-19.4 14.4,-19.3c0,0.1 10.7,-13.1 10.6,-13.1c-0.1,0 16.1,-22.5 16.1,-22.5c0,0 5.7,-12.4 5.6,-12.4c-0.1,0 4.3,-16.1 4.3,-16.2c0,-0.1 1.2,-13.9 1.2,-14c0,-0.1 -0.1,-14.8 -0.2,-14.8c-0.1,0 -2.5,-11.1 -2.4,-11c0.1,0.1 -4.9,-16.1 -5.2,-16.1c-0.3,0 -6.4,-11.3 -6.4,-11.3c0,0 -7.6,-11.1 -7.6,-11.1c0,0 -10.3,-11.3 -10.3,-11.2c0,0.1 -16,-11.2 -16.1,-11.2c-0.1,0 -15.5,-7.7 -15.5,-7.7c0,0 -13.5,-5.5 -13.5,-5.5c0,0 -12.7,-6 -12.7,-6c0,0 -18.9,-8.9 -18.8,-8.9c0.1,0 -15.8,-8.3 -15.8,-8.3c0,0 -13.8,-9.5 -13.8,-9.3c0,0.2 -12.9,-11.1 -12.9,-11.1c0,0 -13.7,-14.6 -13.7,-14.6c0,0 -8.9,-11.3 -9.2,-11c-0.3,0.3 -7.4,-11.2 -7.4,-11.2c0,0 -10.6,-15.1 -10.6,-14.7c0,0.4 0.45,0.95 -5.3,-7.8c-5.75,-8.75 -15.3,-15 -14.8,-15.3c0.5,-0.3 -10.6,-6.8 -10.6,-6.8c0,0 -11.4,-5.2 -11.4,-5.2c0,0 -14.9,-4.8 -14.9,-4.8c0,0 -17.6,-1.4 -17.6,-1.4c0,0 -16.6,2 -16.6,2c0,0 -13.4,4.6 -13.4,4.6c0,0 -12.7,7.3 -12.7,7.3c0,0 -13.9,11.6 -13.9,11.6c0,0 -8.4,8.9 -8.4,8.9c0,0 -8.2,13.8 -8.2,13.8c0,0 -5.7,15.5 -5.7,15.5c0,0 -1.6,21.9 -1.7,21.9c-0.1,0 1.1,14.7 1.3,14.8c0.2,0.1 5.3,17.2 5.3,17.2c0,0 3.3,8.8 3.3,8.8c0,0 6,16.1 6,16.2c0,0.1 5.2,17.1 5.2,17.1c0,0 4.2,16.5 4.2,16.5c0,0 1.8,6.4 1.8,6.4z" stroke-linecap="null" stroke-linejoin="null" stroke-dasharray="null" stroke-width="null" stroke="rgba(193, 245, 195, 0.6)" fill="rgba(193, 245, 195, 0.6)"/>
 </g>
</svg>