<svg xmlns="http://www.w3.org/2000/svg" width="176.722" height="208.693" viewBox="0 0 176.722 208.693"><defs><style>.a{fill:#474749;}.b{fill:#fff;}</style></defs><g transform="translate(-3848.157 1015.473)"><path class="a" d="M4091.05-979.621a2.948,2.948,0,0,0-1.23-.565l-61.892-34.906a2.944,2.944,0,0,0-2.188-.286l-10.36,2.664a2.947,2.947,0,0,0-2.2,2.482,2.553,2.553,0,0,0-.022.327c0,.041,0,.085,0,.131v126.079a2.966,2.966,0,0,0,1.5,2.576l19.812,11.221v23.376l-6.545-3.691a2.951,2.951,0,0,0-2.185-.285l-10.36,2.664a2.945,2.945,0,0,0-2.2,2.478,2.947,2.947,0,0,0,1.48,2.967l30.794,17.368,7.83,4.523a2.962,2.962,0,0,0,.712.3l23.126,13.043a2.971,2.971,0,0,0,1.45.379,2.927,2.927,0,0,0,.737-.093l10.36-2.664a2.946,2.946,0,0,0,2.2-2.478,2.947,2.947,0,0,0-1.48-2.968l-22.175-12.506v-23.295l9.072,5.138a2.964,2.964,0,0,0,1.457.384h.064a2.912,2.912,0,0,0,.8-.093l10.359-2.664a2.959,2.959,0,0,0,2.225-2.867v-126.4A2.979,2.979,0,0,0,4091.05-979.621Zm-11.29,6.052,9.177-2.36v125.177l-9.177,2.36Zm-.8-1.092-60.97-34.386,8.705-2.238L4087.66-976.9Zm-61.951-33.5,61.444,34.8v124.719L4017-883.447Zm20.129,174.8-19.149-10.8,8.705-2.238,10.444,5.89Zm1.184.542v-37.19l16.153,9.149v37.371Zm27.193,8.314,22.15,12.492-8.705,2.238-22.15-12.492Zm-9.728,1.279v-36.891l9.177,5.2v29.333Z" transform="translate(-116.156)"/><path class="b" d="M4191.467-357.877l-22.149-12.492-8.705,2.238,22.15,12.492Z" transform="translate(-219.963 -454.142)"/><path class="b" d="M4029.469-442.093l19.149,10.8v-7.148l-10.444-5.89Z" transform="translate(-127.64 -402.074)"/><path class="b" d="M4114.311-514.939l-16.153-9.149v37.19l16.153,9.331Z" transform="translate(-175.996 -345.927)"/><path class="b" d="M4166.333-485.473l-9.176-5.2v36.89l9.176-2.36Z" transform="translate(-217.531 -369.452)"/><path class="b" d="M4087.753-749.8a17.745,17.745,0,0,0,8.96,2.82l-24.906-39.494c-1.365,1.183-2.654,3.362-2.654,7.368,0,4.839,1.927,10.56,5.426,16.108A40.242,40.242,0,0,0,4087.753-749.8Z" transform="translate(-155.578 -161.21)"/><path class="b" d="M4118.528-752.4c1.364-1.183,2.653-3.362,2.653-7.368,0-4.839-1.927-10.56-5.426-16.108a40.239,40.239,0,0,0-13.173-13.2,18.024,18.024,0,0,0-8.773-2.828c-.064,0-.127,0-.19.005Z" transform="translate(-172.801 -157.386)"/><path class="b" d="M4087.6-831.268V-955.987l-61.444-34.8v124.719Zm-47.466-103.827c4.519-2.59,10.842-1.89,17.348,1.921a45.044,45.044,0,0,1,14.786,14.758c3.969,6.294,6.156,12.912,6.156,18.634,0,5.625-2.126,9.942-5.987,12.155a12.233,12.233,0,0,1-6.15,1.54,22.626,22.626,0,0,1-11.2-3.461,45.051,45.051,0,0,1-14.786-14.759c-3.97-6.294-6.156-12.912-6.156-18.634C4034.148-928.565,4036.275-932.882,4040.135-935.095Z" transform="translate(-125.309 -17.377)"/><path class="b" d="M4029.469-999.093l60.971,34.386,8.705-2.239-60.971-34.386Z" transform="translate(-127.64 -9.955)"/><path class="b" d="M4247.334-881.889l-9.177,2.36v125.176l9.177-2.36Z" transform="translate(-274.554 -94.041)"/><path class="a" d="M3852.893-838.275a40.876,40.876,0,0,1,12.052-29.095,2.368,2.368,0,0,0,0-3.349,2.369,2.369,0,0,0-3.349,0,45.584,45.584,0,0,0-13.438,32.444,45.583,45.583,0,0,0,13.438,32.444,2.362,2.362,0,0,0,1.675.694,2.361,2.361,0,0,0,1.675-.694,2.368,2.368,0,0,0,0-3.349A40.875,40.875,0,0,1,3852.893-838.275Z" transform="translate(0 -101.416)"/><path class="a" d="M3889.893-819.857a29.994,29.994,0,0,1,8.844-21.35,2.368,2.368,0,0,0,0-3.349,2.369,2.369,0,0,0-3.349,0,34.7,34.7,0,0,0-10.231,24.7,34.7,34.7,0,0,0,10.231,24.7,2.361,2.361,0,0,0,1.675.694,2.359,2.359,0,0,0,1.674-.694,2.368,2.368,0,0,0,0-3.349A30,30,0,0,1,3889.893-819.857Z" transform="translate(-26.047 -119.834)"/><path class="a" d="M3926.893-801.439a19.116,19.116,0,0,1,5.636-13.606,2.368,2.368,0,0,0,0-3.349,2.368,2.368,0,0,0-3.349,0,23.821,23.821,0,0,0-7.023,16.955,23.821,23.821,0,0,0,7.023,16.954,2.361,2.361,0,0,0,1.674.694,2.361,2.361,0,0,0,1.674-.694,2.368,2.368,0,0,0,0-3.349A19.116,19.116,0,0,1,3926.893-801.439Z" transform="translate(-52.095 -138.252)"/><path class="a" d="M3966.321-792.231a2.369,2.369,0,0,0-3.349,0,12.941,12.941,0,0,0-3.815,9.21,12.94,12.94,0,0,0,3.815,9.21,2.362,2.362,0,0,0,1.675.694,2.362,2.362,0,0,0,1.675-.694,2.369,2.369,0,0,0,0-3.349,8.233,8.233,0,0,1-2.427-5.861,8.232,8.232,0,0,1,2.427-5.861A2.369,2.369,0,0,0,3966.321-792.231Z" transform="translate(-78.142 -156.67)"/><path class="a" d="M4390.145-720.719a2.369,2.369,0,0,0-3.35,0,2.369,2.369,0,0,0,0,3.349,40.875,40.875,0,0,1,12.052,29.095,40.875,40.875,0,0,1-12.052,29.095,2.369,2.369,0,0,0,0,3.349,2.363,2.363,0,0,0,1.675.694,2.36,2.36,0,0,0,1.674-.694,45.582,45.582,0,0,0,13.438-32.444A45.582,45.582,0,0,0,4390.145-720.719Z" transform="translate(-378.704 -207.014)"/><path class="a" d="M4363.981-694.556a2.369,2.369,0,0,0-3.349,0,2.368,2.368,0,0,0,0,3.349,30,30,0,0,1,8.843,21.35,30,30,0,0,1-8.843,21.35,2.367,2.367,0,0,0,0,3.349,2.361,2.361,0,0,0,1.675.694,2.36,2.36,0,0,0,1.674-.694,34.7,34.7,0,0,0,10.231-24.7A34.7,34.7,0,0,0,4363.981-694.556Z" transform="translate(-360.286 -225.432)"/><path class="a" d="M4337.819-668.394a2.368,2.368,0,0,0-3.349,0,2.369,2.369,0,0,0,0,3.349,19.116,19.116,0,0,1,5.636,13.606,19.116,19.116,0,0,1-5.636,13.606,2.369,2.369,0,0,0,0,3.349,2.362,2.362,0,0,0,1.674.694,2.362,2.362,0,0,0,1.675-.694,23.822,23.822,0,0,0,7.022-16.954A23.822,23.822,0,0,0,4337.819-668.394Z" transform="translate(-341.868 -243.849)"/><path class="a" d="M4311.656-642.231a2.369,2.369,0,0,0-3.35,0,2.369,2.369,0,0,0,0,3.349,8.232,8.232,0,0,1,2.428,5.861,8.232,8.232,0,0,1-2.428,5.861,2.369,2.369,0,0,0,0,3.349,2.363,2.363,0,0,0,1.675.694,2.363,2.363,0,0,0,1.675-.694,12.942,12.942,0,0,0,3.814-9.21A12.942,12.942,0,0,0,4311.656-642.231Z" transform="translate(-323.45 -262.268)"/><path class="a" d="M4074.1-760.762a22.623,22.623,0,0,0,11.2,3.461,12.232,12.232,0,0,0,6.15-1.54c3.86-2.213,5.987-6.53,5.987-12.155,0-5.722-2.186-12.34-6.156-18.634a45.046,45.046,0,0,0-14.786-14.759c-6.507-3.811-12.83-4.511-17.349-1.921-3.86,2.213-5.986,6.53-5.986,12.155,0,5.722,2.186,12.34,6.156,18.634A45.045,45.045,0,0,0,4074.1-760.762Zm0-39.54a40.241,40.241,0,0,1,13.173,13.2c3.5,5.548,5.426,11.268,5.426,16.108,0,4.006-1.289,6.185-2.653,7.368l-24.909-39.5c.064,0,.126-.005.19-.005A18.024,18.024,0,0,1,4074.1-800.3Zm-13.552-1.221,24.906,39.494a17.746,17.746,0,0,1-8.96-2.82,40.242,40.242,0,0,1-13.173-13.2c-3.5-5.548-5.426-11.268-5.426-16.108C4057.89-798.161,4059.179-800.339,4060.544-801.523Z" transform="translate(-144.315 -146.163)"/></g></svg>