<svg xmlns="http://www.w3.org/2000/svg" width="203.018" height="251.66" viewBox="0 0 203.018 251.66"><defs><style>.a{fill:#474749;}.b{fill:#fff;}</style></defs><path class="a" d="M6470.247-3928.122a3.1,3.1,0,0,0-1.578-2.833l-85.252-48.168a3.135,3.135,0,0,0-1.024-.364,6.79,6.79,0,0,0-6.761-6.259,6.788,6.788,0,0,0-6.78,6.781v2.717l-.208.054v-10.652a6.788,6.788,0,0,0-6.78-6.781,6.788,6.788,0,0,0-6.78,6.781v14.171l-85.51,22.19a3.1,3.1,0,0,0-2.3,2.615c-.006.049-.011.1-.014.14a3.049,3.049,0,0,0-.025.395v153.985a3.111,3.111,0,0,0,1.58,2.707l84.772,47.89c.053.048.108.093.164.137a3.127,3.127,0,0,0,1.9.65,3.1,3.1,0,0,0,.78-.1l111.49-28.924a3.11,3.11,0,0,0,2.327-3.009v-154C6470.249-3928.043,6470.248-3928.083,6470.247-3928.122ZM6364.9-3941.858a3.044,3.044,0,0,1-3.041,3.04,3.044,3.044,0,0,1-3.041-3.04v-44.989a3.044,3.044,0,0,1,3.041-3.04,3.044,3.044,0,0,1,3.041,3.04Zm-7.342,0a4.306,4.306,0,0,0,4.3,4.3,4.306,4.306,0,0,0,4.3-4.3v-29.831l5.167-1.34v39.051a4.306,4.306,0,0,0,4.3,4.3,4.307,4.307,0,0,0,4.3-4.3v-41.284l1.86-.483,83.677,47.277L6355.7-3899.982l-83.678-47.277,85.539-22.2Zm21.11,7.88a3.044,3.044,0,0,1-3.041,3.041,3.044,3.044,0,0,1-3.041-3.041v-44.989a3.044,3.044,0,0,1,3.041-3.041,3.044,3.044,0,0,1,3.041,3.041Zm-107.744,5.375v-17.727l84.093,47.506v17.727Zm0,1.448,36.717,20.742v133.461l-36.717-20.742Zm37.978,21.454,46.115,26.052v133.461l-46.115-26.051Zm47.375,7.107,110.228-28.6v152.7l-110.228,28.6Z" transform="translate(-6267.231 3993.628)"/><path class="b" d="M6366.109-3861.134l109.771-28.485L6392.2-3936.9l-1.861.483v41.283a4.307,4.307,0,0,1-4.3,4.3,4.307,4.307,0,0,1-4.3-4.3v-39.051l-5.165,1.34v29.831a4.307,4.307,0,0,1-4.3,4.3,4.307,4.307,0,0,1-4.3-4.3v-27.6l-85.538,22.2Z" transform="translate(-6277.64 3954.779)"/><path class="b" d="M6315.675-3762.013l-36.717-20.742v133.461l36.717,20.742Z" transform="translate(-6275.261 3849.228)"/><path class="b" d="M6445.552-3688.642l-46.114-26.051v133.461l46.114,26.051Z" transform="translate(-6357.763 3802.62)"/><path class="b" d="M6363.05-3796.079l-84.092-47.506v17.727l84.092,47.506ZM6320.18-3806.8a.629.629,0,0,1-.312.544.624.624,0,0,1-.318.086.628.628,0,0,1-.309-.081l-6.488-3.647a.631.631,0,0,1-.322-.55v-9.32a.629.629,0,0,1,.313-.544.631.631,0,0,1,.627-.006l6.488,3.647a.631.631,0,0,1,.321.55Z" transform="translate(-6275.261 3890.882)"/><path class="b" d="M6659.957-3782.864l-110.228,28.6v152.7l110.228-28.6Z" transform="translate(-6460.679 3849.302)"/><path class="b" d="M6389.146-3756.746l5.228,2.938v-7.873l-5.228-2.939Z" transform="translate(-6350.716 3836.809)"/><path class="a" d="M6392.574-3766.31l-6.488-3.648a.632.632,0,0,0-.627.006.63.63,0,0,0-.312.544v9.32a.631.631,0,0,0,.321.549l6.488,3.647a.632.632,0,0,0,.309.081.634.634,0,0,0,.319-.086.631.631,0,0,0,.313-.544v-9.32A.629.629,0,0,0,6392.574-3766.31Zm-.939,8.792-5.228-2.939v-7.873l5.228,2.939Z" transform="translate(-6347.977 3840.519)"/><path class="b" d="M6560.829-3981.764a3.044,3.044,0,0,0-3.041,3.04v44.989a3.044,3.044,0,0,0,3.041,3.041,3.044,3.044,0,0,0,3.041-3.041v-44.989A3.043,3.043,0,0,0,6560.829-3981.764Z" transform="translate(-6466.197 3985.504)"/><path class="b" d="M6604.509-3956.764a3.044,3.044,0,0,0-3.041,3.041v44.989a3.044,3.044,0,0,0,3.041,3.041,3.044,3.044,0,0,0,3.04-3.041v-44.989A3.044,3.044,0,0,0,6604.509-3956.764Z" transform="translate(-6496.108 3968.385)"/></svg>