<svg width="340" height="500" xmlns="http://www.w3.org/2000/svg" xmlns:svg="http://www.w3.org/2000/svg">
 <g>
  <title>Layer 1</title>
  <path fill="rgba(189, 229, 241, 0.6)" stroke="rgba(189, 229, 241, 0.6)" d="m0.55,6.45c0,0 0,429.1 0,429.1c0,0 4,7.1 4,7.1c0,0 10.4,12.4 10.4,12.4c0,0 12.1,10.7 12.1,10.6c0,-0.1 14,7.3 14,7.3c0,0 15.7,5.2 15.7,5.2c0,0 15.6,1.4 15.6,1.4c0,0 14.3,-0.8 14.3,-0.8c0,0 12.4,-4 12.4,-4c0,0 15.5,-9.1 15.5,-9.1c0,0 31.3,-18.2 31.3,-18.2c0,0 21.4,-11.5 21.4,-11.5c0,0 18.4,-8.4 18.4,-8.4c0,0 16,-6.4 16,-6.4c0,0 16.2,-4.8 16.2,-4.8c0,0 15,-2.8 14.9,-2.7c-0.1,0.1 14.3,-2.3 14.3,-2.3c0,0 20.9,-1.4 20.9,-1.4c0,0 17,-1.8 17,-1.8c0,0 11.2,-2.7 11.2,-2.7c0,0 7.2,-3.2 7.2,-3.2c0,0 7.7,-6.2 7.7,-6.2c0,0 5.8,-7.6 5.8,-7.7c0,-0.1 3.7,-9 3.7,-9c0,0 1.1,-9.2 1.1,-9.3c0,-0.1 0.3,-11.7 0.3,-11.7c0,0 -3.6,-14.1 -3.6,-14.1c0,0 -11.5,-36.6 -11.5,-36.6c0,0 -4.8,-20.4 -4.8,-20.2c0,0.2 -2,-16.9 -2,-16.9c0,0 -1.3,-18.5 -1.3,-18.5c0,0 -0.2,-21.3 -0.2,-21.3c0,0 2,-36.6 2,-36.6c0,0 1.3,-20.1 1.4,-20.5c0.1,-0.4 -0.2,-10.7 -0.2,-10.7c0,0 -1.7,-12.3 -1.7,-12.4c0,-0.1 -4.1,-14 -4.1,-14.1c0,-0.1 -6.2,-14.6 -6.2,-14.6c0,0 -8.7,-13 -8.7,-13c0,0 -9.4,-8.9 -9.1,-9.3c0.3,-0.4 -16.1,-11.3 -16.1,-11.3c0,0 -11.5,-6.8 -11.5,-6.8c0,0 -15.7,-5.6 -15.7,-5.6c0,0 -15.4,-2 -15.4,-2c0,0 -11.2,-0.5 -11.2,-0.5c0,0 -15.7,-1.6 -15.7,-1.6c0,0 -19.7,-1.6 -19.7,-1.6c0,0 -19.7,-3 -19.7,-3c0,0 -20,-4.1 -20,-4.1c0,0 -20.2,-7.2 -20.3,-7.2c-0.1,0 -18.4,-7.4 -18.4,-7.4c0,0 -28.5,-12.8 -28.5,-12.8c0,0 -28.7,-14.2 -28.7,-14.2c0,0 -15.3,-7.4 -15.3,-7.4c0,0 -8.6,-5 -8.5,-5c0.1,0 -6.7,-2.6 -6.7,-2.6z" id="svg_3"/>
 </g>
</svg>