<svg xmlns="http://www.w3.org/2000/svg" width="194" height="211.42" viewBox="0 0 194 211.42"><defs><style>.a{fill:#a3ed98;}</style></defs><path class="a" d="M-2087.3-5355.55l-5.147,3.563v4.354l-20.192,5.939-4.355-4.751-29.694,6.73-3.167-7.918-15.837,10.69h-39.2l-13.065,31.277L-2213.2-5293l13.857-2.771,7.918.4,3.167,9.5,21.775-2.376-10.294,13.065-12.273,16.629-13.461,17.024-5.147,15.44,1.584,3.563-11.877,13.857v4.553l9.9-2.178,4.751,8.71-1.188,16.232,6.73,3.167,14.253-5.939,7.126,15.837,9.106,4.355-7.522,7.522,4.751,4.751,5.939-5.543h5.543l-1.584,10.294,7.522,2.771,7.522-8.71-4.751-7.918,13.857-6.335-8.71-14.649,18.608-6.334,9.106-25.735,10.69,6.731,10.69-10.69v-4.751l26.13-25.339,12.273.792,2.375,5.543,6.731-3.167,5.939,5.735,15.837-14.841,2.376-8.71-24.547-18.212,7.522-1.187-2.375-9.106-15.441,5.939,4.355-13.461,5.147-4.751-9.5-12.669-23.755-1.979-29.3,11.877.792-3.959,10.628-7.522,19.462-4.355-.4-7.522-20.984,3.563,14.649-12.273,3.167-8.314Z" transform="translate(2217.948 5355.55)"/></svg>