<svg xmlns="http://www.w3.org/2000/svg" width="249.784" height="168.519" viewBox="0 0 249.784 168.519"><defs><style>.a{fill:#a3ed98;}</style></defs><path class="a" d="M-2230.037-4547.064l-9.41,8.833,4.7,24.957,23.524,8.982,13.259,13.687,5.988,2.994,17.108-23.1,26.518-2.139-3.85,12.832,3.85,6.843h8.126l-4.277,14.115,13.687,5.132,9.41-6.843,7.271,4.7,5.56,20.958,22.669-3.422,10.693-6.843,5.988,2.566,18.392-19.247,26.09-8.982,10.693.428,4.7-16.253,16.681-3.422,2.994-4.277-6.843-14.542,6.843-2.567-6.843-6.565-7.7-1.989-8.554-29.085-17.109,6.417-3.849-14.542-11.548-7.271-2.566-9.837-14.542-7.271-5.133-7.271-11.121,2.139-4.7,6.844v14.114l-14.542,10.692-9.41-7.271-7.271,3.422-13.259-14.115-6.416-.428.428,6.416-9.41-12.4,2.78-3.208-13.045-17.322-8.554-3.421h-6.843l-4.918,7.271,3.635,19.674-6.416,10.693,7.7,1.283-4.277,11.334-6.416,8.981-2.994.214-3.208,8.555-17.536,6.2-8.982,12.617Z" transform="translate(2239.446 4623.625)"/></svg>