<svg xmlns="http://www.w3.org/2000/svg" width="150.933" height="185.667" viewBox="0 0 150.933 185.667"><defs><style>.a{fill:#a3ed98;}</style></defs><path class="a" d="M-4065.823-5316.462l-2.749,7.5-3.5-2.25v-2.749l-6,5h-5.5l2,5.248h-4.248l-8,13.993-6.247,3.249v5.5l-6.747-5.248-7.747.75,1.249,3.249-5,1.249-3.748-3.5-7.5,6.247,1.749,2.5h8.247l-1.75,8,5.248,11L-4125.8-5238l-6.5,19.491-10.745,3.5v5.5l13.494,10.5,21.99-13.744,16.243,8.747-4.248,13.494,7.747,23.989,6.247,23.49,12.744,8,3,4.248,4-2-4-19.991,20.491-.75v-18.742l6.5-2.749,3.5,7.746,29.987,10.746-1.25-15.743,14.494-42.98-27.988-2.749,1.5-7-21.49-25.989,1.749-26.488-12.744,3-7.247,12.744-7.247-8-5.308,2.749-10.685-5.747-5.5-9.246,11.245-11.994,9.746-2.5,6.5-10.5Z" transform="translate(4143.038 5316.462)"/></svg>