<svg xmlns="http://www.w3.org/2000/svg" width="205.845" height="199.132" viewBox="0 0 205.845 199.132"><defs><style>.a{fill:#a3ed98;}</style></defs><path class="a" d="M-3208.378-5373.14l-13.052,16.035-12.305,12.679v10.441l7.831,8.577-12.679,7.458,4.475,5.594-8.577,2.983-13.052,3.356v5.966l10.441-4.1,3.729,4.1-9.323,7.831-1.492,11.187,5.221,14.668h5.966l7.458,17.4h-8.95l2.61,10.814,4.848,2.237,1.492,4.848-11.187,8.2,2.237,10.442,5.593,8.2,13.425,4.1,8.95,2.983-1.119,8.578-18.272,9.322,4.848,2.237,18.645-10.814,21.256-11.933,14.17-8.2,3.356,6.712-6.712,3.356,8.577,14.917,5.593.373,10.069,8.577h4.475l4.475-20.51-10.5-10.814v-2.983l27.657,5.594,13.425-6.339-2.61-8.577,19.391-11.187v6.712l6.712.374,9.323-7.459,7.956.994v-4.475l7.458,1.243v-3.729l-7.707-2.237-1.492-5.221,5.718-3.48,13.673,6.961,6.464-3.232-4.973-9.448-6.96-4.475,1.492-6.463,4.972-.249-1.243,4.723,3.978,1,2.735-3.481-3.481-6.712-10.938,3.232-4.724-5.469-2.983.5,2.734-4.35h4.475l11.436-12.8-12.43,1.989-19.143-9.448-9.447-5.718-3.729.994,1.492-18.147-1.74-7.21-9.944-3.729-7.956,5.967-6.215-13.673-11.187-5.221-4.475,5.469-7.955-5.469-15.165-11.933-5.718,12.678.995,7.955-5.221,2.486-12.927-8.95-12.43-1.243-.5-2.734,4.972-2.983-5.718-16.408-2.486-6.215-3.232.5Z" transform="translate(3255.738 5373.14)"/></svg>